<svg width="443" height="443" xmlns="http://www.w3.org/2000/svg" xmlns:xlink="http://www.w3.org/1999/xlink" xml:space="preserve" overflow="hidden"><g transform="translate(-2522 -1016)"><path d="M2522 1237.5C2522 1115.17 2621.17 1016 2743.5 1016 2865.83 1016 2965 1115.17 2965 1237.5 2965 1359.83 2865.83 1459 2743.5 1459 2621.17 1459 2522 1359.83 2522 1237.5Z" fill="#FFBC25" fill-rule="evenodd"/><path d="M2783.59 1189.09C2777.77 1189.09 2772.73 1191.03 2768.49 1194.9 2764.28 1198.8 2761.01 1204.33 2758.76 1211.58 2756.48 1218.79 2755.35 1227.47 2755.35 1237.59 2755.35 1247.65 2756.48 1256.3 2758.76 1263.52 2761.01 1270.76 2764.28 1276.29 2768.49 1280.15 2772.73 1284 2777.77 1285.91 2783.59 1285.91 2789.48 1285.91 2794.54 1284 2798.78 1280.15 2803.01 1276.29 2806.25 1270.76 2808.49 1263.52 2810.74 1256.3 2811.85 1247.65 2811.85 1237.59 2811.85 1227.47 2810.74 1218.79 2808.49 1211.58 2806.25 1204.33 2803.01 1198.8 2798.78 1194.9 2794.54 1191.03 2789.48 1189.09 2783.59 1189.09ZM2681.14 1168.15 2707.83 1168.15 2707.83 1306.85 2680.4 1306.85 2680.4 1194.21 2680.03 1194.21 2648 1215.33 2648 1189.92ZM2783.59 1166C2795.14 1166 2805.03 1168.88 2813.27 1174.65 2821.53 1180.44 2827.89 1188.67 2832.33 1199.37 2836.77 1210.08 2839 1222.83 2839 1237.59 2839 1252.38 2836.79 1265.08 2832.37 1275.76 2827.95 1286.44 2821.6 1294.65 2813.32 1300.4 2805.03 1306.14 2795.14 1309 2783.59 1309 2772.13 1309 2762.25 1306.12 2754.02 1300.35 2745.76 1294.56 2739.4 1286.35 2734.96 1275.72 2730.5 1265.06 2728.29 1252.38 2728.29 1237.59 2728.29 1222.83 2730.5 1210.08 2734.96 1199.37 2739.4 1188.67 2745.76 1180.44 2754.02 1174.65 2762.25 1168.88 2772.13 1166 2783.59 1166Z" fill-rule="evenodd"/></g></svg>