<svg width="443" height="443" xmlns="http://www.w3.org/2000/svg" xmlns:xlink="http://www.w3.org/1999/xlink" xml:space="preserve" overflow="hidden"><g transform="translate(-3066 -1016)"><path d="M3066 1237.5C3066 1115.17 3165.17 1016 3287.5 1016 3409.83 1016 3509 1115.17 3509 1237.5 3509 1359.83 3409.83 1459 3287.5 1459 3165.17 1459 3066 1359.83 3066 1237.5Z" fill="#D72638" fill-rule="evenodd"/><path d="M3345.91 1188.98C3339.98 1188.98 3334.87 1190.92 3330.58 1194.8 3326.28 1198.68 3322.98 1204.24 3320.67 1211.47 3318.36 1218.7 3317.2 1227.37 3317.2 1237.49 3317.2 1247.54 3318.36 1256.19 3320.67 1263.42 3322.98 1270.65 3326.28 1276.19 3330.58 1280.04 3334.87 1283.88 3339.98 1285.81 3345.91 1285.81 3351.9 1285.81 3357.03 1283.88 3361.32 1280.04 3365.64 1276.19 3368.92 1270.65 3371.19 1263.42 3373.47 1256.19 3374.6 1247.54 3374.6 1237.49 3374.6 1227.37 3373.47 1218.7 3371.19 1211.47 3368.92 1204.24 3365.64 1198.68 3361.32 1194.8 3357.03 1190.92 3351.9 1188.98 3345.91 1188.98ZM3345.91 1165.9C3357.63 1165.9 3367.68 1168.78 3376.06 1174.55 3384.45 1180.33 3390.89 1188.57 3395.42 1199.27 3399.92 1209.98 3402.19 1222.72 3402.19 1237.49 3402.19 1252.26 3399.95 1264.98 3395.46 1275.66 3390.96 1286.34 3384.51 1294.54 3376.11 1300.28 3367.7 1306.03 3357.63 1308.9 3345.91 1308.9 3334.25 1308.9 3324.25 1306.01 3315.86 1300.24 3307.48 1294.47 3301.03 1286.26 3296.5 1275.61 3291.98 1264.97 3289.74 1252.26 3289.74 1237.49 3289.74 1222.72 3291.98 1209.98 3296.5 1199.27 3301.03 1188.57 3307.48 1180.33 3315.86 1174.55 3324.25 1168.78 3334.25 1165.9 3345.91 1165.9ZM3221.38 1165.9C3230.99 1165.9 3239.49 1167.66 3246.91 1171.2 3254.32 1174.74 3260.12 1179.71 3264.3 1186.1 3268.48 1192.49 3270.56 1199.97 3270.56 1208.54 3270.56 1214.74 3269.38 1220.48 3267.05 1225.76 3264.72 1231.03 3261.18 1236.3 3256.45 1241.54 3251.71 1246.78 3245.75 1252.54 3238.59 1258.81L3211.01 1283.29 3211.01 1283.67 3271.39 1283.67 3271.39 1306.76 3171.83 1306.76 3171.83 1285.81 3222.61 1241.77C3226.72 1238.05 3230.35 1234.59 3233.49 1231.39 3236.65 1228.2 3239.1 1224.89 3240.88 1221.48 3242.66 1218.06 3243.53 1214.28 3243.53 1210.12 3243.53 1205.77 3242.63 1202 3240.79 1198.81 3238.94 1195.61 3236.37 1193.14 3233.07 1191.41 3229.77 1189.67 3225.84 1188.8 3221.29 1188.8 3216.48 1188.8 3212.33 1189.82 3208.82 1191.87 3205.3 1193.92 3202.58 1196.87 3200.68 1200.71 3198.79 1204.56 3197.82 1209.19 3197.82 1214.59L3171.19 1214.59C3171.19 1204.72 3173.26 1196.14 3177.4 1188.84 3181.56 1181.55 3187.38 1175.9 3194.89 1171.9 3202.39 1167.9 3211.22 1165.9 3221.38 1165.9Z" fill-rule="evenodd"/></g></svg>