<svg width="444" height="443" xmlns="http://www.w3.org/2000/svg" xmlns:xlink="http://www.w3.org/1999/xlink" xml:space="preserve" overflow="hidden"><defs><clipPath id="clip0"><rect x="1978" y="1016" width="444" height="443"/></clipPath></defs><g clip-path="url(#clip0)" transform="translate(-1978 -1016)"><path d="M1978 1237.5C1978 1115.17 2077.39 1016 2200 1016 2322.61 1016 2422 1115.17 2422 1237.5 2422 1359.83 2322.61 1459 2200 1459 2077.39 1459 1978 1359.83 1978 1237.5Z" fill="#7B12EE" fill-rule="evenodd"/><path d="M2155.94 1167 2243.05 1167 2243.05 1190.22 2180.62 1190.22 2177.93 1223.62 2178.22 1223.61C2181.55 1220 2185.58 1217.26 2190.33 1215.36 2195.07 1213.47 2200.32 1212.51 2206.05 1212.52 2212.28 1212.52 2218.12 1213.66 2223.58 1215.96 2229.04 1218.26 2233.81 1221.53 2237.91 1225.76 2242.01 1229.99 2245.21 1234.96 2247.53 1240.67 2249.84 1246.4 2251 1252.61 2251 1259.33 2250.99 1268.78 2248.86 1277.17 2244.61 1284.51 2240.36 1291.84 2234.41 1297.6 2226.76 1301.77 2219.13 1305.92 2210.19 1308 2199.96 1308 2190.26 1308.01 2181.67 1306.16 2174.14 1302.46 2166.63 1298.75 2160.66 1293.62 2156.26 1287.02 2151.84 1280.44 2149.42 1272.79 2149 1264.08L2175.99 1264.09C2176.25 1268.25 2177.43 1271.95 2179.56 1275.18 2181.69 1278.41 2184.54 1280.96 2188.11 1282.83 2191.68 1284.7 2195.69 1285.63 2200.14 1285.62 2204.82 1285.63 2208.96 1284.54 2212.58 1282.36 2216.17 1280.19 2218.99 1277.17 2220.98 1273.32 2223 1269.46 2223.99 1265.02 2223.99 1259.98 2224 1254.88 2222.99 1250.39 2220.99 1246.51 2218.98 1242.62 2216.21 1239.57 2212.67 1237.37 2209.12 1235.16 2205.03 1234.06 2200.42 1234.05 2194.8 1234.05 2189.9 1235.23 2185.7 1237.61 2181.51 1239.97 2178.58 1243.23 2176.93 1247.39L2151.13 1246.45Z" fill-rule="evenodd"/></g></svg>