<svg width="4400" height="1921" xmlns="http://www.w3.org/2000/svg" xmlns:xlink="http://www.w3.org/1999/xlink" xml:space="preserve" overflow="hidden"><defs><clipPath id="clip0"><rect x="946" y="0" width="4400" height="1921"/></clipPath></defs><g clip-path="url(#clip0)" transform="translate(-946 0)"><path d="M3028.84 1138.91C3005.35 1138.91 2984.6 1143.77 2966.57 1153.48 2948.55 1163.2 2933.47 1176.56 2921.32 1193.57 2909.17 1210.58 2900.06 1230.52 2893.98 1253.4 2887.9 1276.28 2884.87 1300.88 2884.87 1327.2 2884.46 1354.33 2887.8 1379.53 2894.89 1402.82 2901.98 1426.1 2912 1446.45 2924.96 1463.86 2937.52 1481.27 2952.6 1494.84 2970.22 1504.55 2987.84 1514.27 3007.38 1519.13 3028.84 1519.13 3049.9 1519.13 3069.34 1514.27 3087.16 1504.55 3104.98 1494.84 3120.37 1481.27 3133.33 1463.86 3146.29 1446.45 3156.31 1426.1 3163.4 1402.82 3170.49 1379.53 3174.03 1354.33 3174.03 1327.2 3174.03 1300.88 3170.39 1276.28 3163.1 1253.4 3155.81 1230.52 3145.68 1210.58 3132.72 1193.57 3119.76 1176.56 3104.48 1163.2 3086.86 1153.48 3069.24 1143.77 3049.9 1138.91 3028.84 1138.91ZM2600.81 1137.69C2596.76 1137.69 2591.5 1137.89 2585.01 1138.3 2578.53 1138.7 2573.47 1139.51 2569.83 1140.73 2566.18 1141.94 2563.75 1144.57 2562.54 1148.62 2561.32 1152.67 2560.71 1158.75 2560.71 1166.85L2560.71 1304.12C2560.71 1307.35 2561.12 1309.38 2561.93 1310.19 2562.74 1311 2564.36 1311.4 2566.79 1311.4 2608.1 1311.4 2639.99 1305.13 2662.47 1292.58 2684.95 1280.02 2696.18 1256.94 2696.18 1223.33 2696.18 1212.81 2694.67 1202.38 2691.63 1192.05 2688.59 1181.73 2683.43 1172.51 2676.14 1164.42 2668.85 1156.72 2659.03 1150.35 2646.67 1145.28 2634.32 1140.22 2619.03 1137.69 2600.81 1137.69ZM3977.69 1107.93C3979.72 1107.93 3981.94 1107.93 3984.38 1107.93 3986 1107.93 3992.58 1108.03 4004.12 1108.23 4015.66 1108.43 4028.72 1108.74 4043.3 1109.14 4057.88 1109.55 4072.36 1109.75 4086.74 1109.75 4101.11 1109.75 4112.56 1109.75 4121.06 1109.75 4128.76 1109.75 4139.08 1109.75 4152.04 1109.75 4165 1109.75 4177.76 1109.55 4190.31 1109.14 4202.87 1108.74 4213.8 1108.43 4223.12 1108.23 4232.43 1108.03 4237.5 1107.93 4238.3 1107.93 4241.14 1107.93 4243.47 1108.33 4245.29 1109.14 4247.11 1109.95 4248.43 1112.18 4249.24 1115.82 4251.67 1130.81 4254.1 1145.18 4256.53 1158.95 4258.96 1172.72 4261.39 1186.69 4263.82 1200.86 4264.22 1204.5 4264.02 1207.44 4263.21 1209.67 4262.4 1211.89 4260.17 1213.41 4256.53 1214.22 4252.48 1215.44 4249.14 1215.74 4246.51 1215.13 4243.87 1214.53 4241.95 1211.79 4240.73 1206.93 4238.3 1200.46 4235.57 1193.57 4232.53 1186.28 4229.5 1178.99 4226.16 1172.11 4222.51 1165.63 4218.87 1158.75 4213.91 1153.28 4207.63 1149.23 4201.35 1145.18 4193.15 1143.16 4183.02 1143.16L4130.17 1143.16C4125.31 1143.16 4120.35 1143.26 4115.29 1143.46 4110.23 1143.66 4105.47 1144.37 4101.01 1145.59 4097.37 1146.8 4094.84 1149.54 4093.42 1153.79 4092 1158.04 4091.29 1164.01 4091.29 1171.7L4091.29 1294.4C4091.29 1297.23 4091.8 1299.05 4092.81 1299.86 4093.82 1300.67 4095.75 1301.08 4098.58 1301.08L4167.84 1301.08C4179.99 1301.08 4187.58 1299.97 4190.62 1297.74 4193.65 1295.51 4196.39 1291.77 4198.82 1286.5 4200.03 1282.86 4201.45 1278 4203.07 1271.92 4204.69 1265.85 4206.51 1257.96 4208.54 1248.24 4208.94 1244.59 4210.06 1242.26 4211.88 1241.25 4213.7 1240.24 4216.84 1239.93 4221.3 1240.34 4225.75 1241.15 4228.48 1242.36 4229.5 1243.98 4230.51 1245.6 4231.01 1248.24 4231.01 1251.88 4229.8 1264.03 4228.99 1276.68 4228.59 1289.84 4228.18 1303 4227.98 1313.23 4227.98 1320.52 4227.98 1326.19 4228.18 1336.21 4228.59 1350.58 4228.99 1364.96 4229.8 1378.22 4231.01 1390.37 4231.01 1394.01 4230.51 1396.74 4229.5 1398.57 4228.48 1400.39 4225.75 1401.5 4221.3 1401.91 4216.84 1402.72 4213.7 1402.41 4211.88 1401 4210.06 1399.58 4208.94 1396.84 4208.54 1392.8 4206.92 1384.29 4205.2 1376.09 4203.37 1368.2 4201.55 1360.3 4199.43 1353.31 4197 1347.24 4195.38 1342.38 4192.95 1338.84 4189.71 1336.61 4186.47 1334.38 4178.77 1333.27 4166.62 1333.27L4098.58 1333.27C4095.75 1333.27 4093.82 1333.68 4092.81 1334.49 4091.8 1335.3 4091.29 1336.92 4091.29 1339.34L4091.29 1492.41C4091.29 1500.51 4091.9 1506.58 4093.12 1510.63 4094.33 1514.68 4096.76 1517.11 4100.41 1517.92 4104.86 1519.13 4109.72 1519.84 4114.98 1520.04 4120.25 1520.25 4125.31 1520.35 4130.17 1520.35L4208.54 1520.35C4218.66 1520.35 4226.97 1518.32 4233.45 1514.27 4239.92 1510.22 4245.19 1504.55 4249.24 1497.27 4253.7 1488.76 4257.95 1479.45 4262 1469.33 4266.05 1459.2 4269.9 1449.28 4273.54 1439.56 4275.16 1435.11 4276.88 1432.58 4278.7 1431.97 4280.53 1431.36 4283.46 1431.47 4287.51 1432.27 4289.94 1433.08 4291.66 1433.89 4292.67 1434.7 4293.69 1435.51 4294.4 1436.53 4294.8 1437.74 4295.21 1438.96 4295.31 1440.27 4295.11 1441.69 4294.9 1443.11 4294.8 1444.62 4294.8 1446.24 4292.37 1462.85 4289.33 1480.16 4285.69 1498.18 4282.04 1516.2 4278.2 1533.1 4274.15 1548.89 4272.93 1552.13 4271.72 1554.06 4270.5 1554.66 4269.29 1555.27 4267.46 1555.58 4265.03 1555.58 4261.39 1555.58 4253.59 1555.58 4241.65 1555.58 4229.7 1555.58 4216.64 1555.37 4202.46 1554.97 4187.88 1554.56 4173.71 1554.26 4159.94 1554.06 4146.17 1553.85 4135.44 1553.75 4127.74 1553.75 4118.83 1553.75 4106.78 1553.85 4091.6 1554.06 4076.41 1554.26 4061.53 1554.56 4046.95 1554.97 4031.96 1555.37 4018.6 1555.58 4006.85 1555.58 3995.11 1555.58 3988.42 1555.58 3986.8 1555.58 3984.38 1555.58 3982.15 1555.58 3980.12 1555.58 3978.1 1555.58 3976.28 1555.37 3974.65 1554.97 3973.03 1554.16 3971.82 1553.04 3971.01 1551.63 3970.2 1550.21 3969.8 1547.88 3969.8 1544.64 3969.8 1542.21 3970.1 1540.19 3970.71 1538.57 3971.31 1536.95 3972.22 1535.73 3973.44 1534.92 3974.65 1534.52 3976.17 1534.11 3978 1533.71 3979.82 1533.3 3982.15 1532.9 3984.98 1532.5 3991.06 1532.09 3996.73 1531.28 4001.99 1530.07 4007.26 1528.85 4012.52 1527.03 4017.79 1524.6 4021.84 1522.98 4024.77 1519.84 4026.59 1515.18 4028.42 1510.53 4029.33 1505.16 4029.33 1499.09L4029.33 1163.2C4029.33 1156.32 4028.42 1150.65 4026.59 1146.19 4024.77 1141.74 4021.84 1138.7 4017.79 1137.08 4014.95 1136.27 4012.12 1135.57 4009.28 1134.96 4006.45 1134.35 4003.61 1133.84 4000.78 1133.44 3997.54 1133.03 3994.4 1132.63 3991.36 1132.23 3988.32 1131.82 3985.39 1131.42 3982.55 1131.01 3977.29 1131.01 3973.54 1130.4 3971.31 1129.19 3969.09 1127.97 3967.97 1124.33 3967.97 1118.26 3967.97 1115.42 3968.38 1113.29 3969.19 1111.88 3970 1110.46 3971.01 1109.55 3972.22 1109.14 3973.84 1108.33 3975.67 1107.93 3977.69 1107.93ZM3263.79 1106.11C3265.82 1106.11 3268.25 1106.11 3271.08 1106.11 3271.89 1106.11 3275.34 1106.21 3281.41 1106.41 3287.48 1106.61 3294.37 1106.71 3302.06 1106.71 3309.76 1107.12 3317.35 1107.32 3324.85 1107.32 3332.34 1107.32 3337.91 1107.32 3341.55 1107.32 3345.2 1107.32 3350.56 1107.32 3357.65 1107.32 3364.74 1107.32 3371.93 1107.12 3379.22 1106.71 3386.51 1106.71 3393.19 1106.61 3399.26 1106.41 3405.34 1106.21 3409.19 1106.11 3410.81 1106.11 3413.24 1106.11 3415.46 1106.11 3417.49 1106.11 3419.51 1106.11 3421.13 1106.51 3422.35 1107.32 3423.56 1107.73 3424.58 1108.64 3425.39 1110.05 3426.2 1111.47 3426.6 1113.6 3426.6 1116.43 3426.6 1122.1 3425.49 1125.65 3423.26 1127.06 3421.03 1128.48 3417.49 1129.19 3412.63 1129.19 3407.77 1129.59 3403.21 1130.4 3398.96 1131.62 3394.71 1132.83 3390.56 1134.05 3386.51 1135.26 3383.27 1136.48 3380.63 1139.01 3378.61 1142.85 3376.58 1146.7 3375.57 1152.47 3375.57 1160.16L3375.57 1389.76C3375.57 1434.3 3383.67 1466.8 3399.87 1487.24 3416.07 1507.69 3442.8 1517.92 3480.06 1517.92 3512.86 1517.92 3538.38 1507.49 3556.6 1486.64 3574.83 1465.78 3583.94 1434.91 3583.94 1394.01L3583.94 1266.46C3583.94 1249.45 3583.64 1231.53 3583.03 1212.7 3582.42 1193.88 3581.31 1177.17 3579.69 1162.59 3578.47 1154.09 3577.05 1147.81 3575.44 1143.77 3573.82 1139.72 3571.59 1137.08 3568.75 1135.87 3564.3 1134.65 3559.34 1133.44 3553.87 1132.23 3548.4 1131.01 3543.24 1130.2 3538.38 1129.8 3533.52 1129.8 3529.98 1129.09 3527.75 1127.67 3525.52 1126.25 3524.41 1122.71 3524.41 1117.04 3524.41 1114.2 3524.71 1112.08 3525.32 1110.66 3525.93 1109.24 3526.84 1108.33 3528.05 1107.93 3529.27 1107.12 3530.89 1106.71 3532.91 1106.71 3534.94 1106.71 3537.37 1106.71 3540.2 1106.71 3541.01 1106.71 3544.15 1106.81 3549.62 1107.02 3555.08 1107.22 3561.06 1107.32 3567.54 1107.32 3574.42 1107.73 3581.21 1107.93 3587.89 1107.93 3594.57 1107.93 3599.74 1107.93 3603.38 1107.93 3607.03 1107.93 3612.09 1107.93 3618.57 1107.93 3625.05 1107.93 3631.73 1107.73 3638.61 1107.32 3645.09 1107.32 3651.07 1107.22 3656.53 1107.02 3662 1106.81 3665.34 1106.71 3666.56 1106.71 3668.99 1106.71 3671.22 1106.71 3673.24 1106.71 3675.27 1106.71 3676.89 1107.12 3678.1 1107.93L3679.92 1109.56 3682.16 1107.32C3683.37 1106.51 3684.99 1106.11 3687.02 1106.11 3689.04 1106.11 3691.47 1106.11 3694.31 1106.11 3695.12 1106.11 3698.56 1106.21 3704.63 1106.41 3710.71 1106.61 3717.59 1106.71 3725.29 1106.71 3732.98 1107.12 3740.48 1107.32 3747.77 1107.32 3755.06 1107.32 3760.72 1107.32 3764.78 1107.32 3768.42 1107.32 3773.89 1107.32 3781.18 1107.32 3788.47 1107.32 3795.96 1107.12 3803.65 1106.71 3811.35 1106.71 3818.23 1106.61 3824.31 1106.41 3830.38 1106.21 3834.03 1106.11 3835.24 1106.11 3837.67 1106.11 3839.9 1106.11 3841.93 1106.11 3843.95 1106.11 3845.57 1106.51 3846.79 1107.32 3848 1107.73 3849.01 1108.64 3849.82 1110.05 3850.63 1111.47 3851.04 1113.6 3851.04 1116.43 3851.04 1122.1 3849.92 1125.65 3847.7 1127.06 3845.47 1128.48 3841.93 1129.19 3837.07 1129.19 3832.21 1129.59 3826.94 1130.4 3821.27 1131.62 3815.6 1132.83 3810.74 1134.05 3806.69 1135.26 3803.45 1136.48 3800.82 1139.11 3798.8 1143.16 3796.77 1147.21 3795.76 1153.48 3795.76 1161.99L3795.76 1492.41C3795.76 1500.51 3796.36 1506.58 3797.58 1510.63 3798.8 1514.68 3801.22 1517.11 3804.87 1517.92 3809.32 1519.13 3814.18 1519.84 3819.45 1520.04 3824.72 1520.25 3829.78 1520.35 3834.64 1520.35L3892.35 1520.35C3902.47 1520.35 3910.77 1518.32 3917.26 1514.27 3923.74 1510.22 3929 1504.55 3933.05 1497.27 3937.5 1488.76 3941.76 1479.45 3945.81 1469.33 3949.86 1459.2 3953.7 1449.28 3957.35 1439.56 3958.97 1435.11 3960.69 1432.58 3962.51 1431.97 3964.34 1431.36 3967.27 1431.47 3971.32 1432.27 3973.75 1433.08 3975.47 1433.89 3976.49 1434.7 3977.5 1435.51 3978.21 1436.53 3978.61 1437.74 3979.02 1438.96 3979.12 1440.27 3978.92 1441.69 3978.71 1443.11 3978.61 1444.62 3978.61 1446.24 3976.18 1462.85 3973.14 1480.16 3969.5 1498.18 3965.86 1516.2 3962.01 1533.1 3957.96 1548.89 3956.74 1552.13 3955.53 1554.06 3954.31 1554.66 3953.1 1555.27 3951.27 1555.58 3948.85 1555.58 3945.2 1555.58 3938.52 1555.58 3928.8 1555.58 3919.08 1555.58 3908.35 1555.37 3896.6 1554.97 3884.86 1554.56 3873.11 1554.26 3861.37 1554.06 3849.62 1553.85 3839.9 1553.75 3832.21 1553.75 3823.3 1553.75 3811.25 1553.85 3796.06 1554.06 3780.87 1554.26 3765.99 1554.56 3751.41 1554.97 3736.43 1555.37 3723.06 1555.58 3711.32 1555.58 3699.57 1555.58 3692.89 1555.58 3691.27 1555.58 3688.84 1555.58 3686.61 1555.58 3684.59 1555.58 3682.56 1555.58 3680.74 1555.37 3679.12 1554.97 3677.5 1554.16 3676.28 1553.04 3675.47 1551.63 3674.66 1550.21 3674.26 1547.88 3674.26 1544.64 3674.26 1542.21 3674.56 1540.19 3675.17 1538.57 3675.78 1536.95 3676.69 1535.73 3677.9 1534.92 3679.12 1534.52 3680.64 1534.11 3682.46 1533.71 3684.28 1533.3 3686.61 1532.9 3689.45 1532.5 3695.52 1532.09 3701.19 1531.28 3706.46 1530.07 3711.72 1528.85 3716.99 1527.03 3722.25 1524.6 3726.3 1522.98 3729.24 1519.84 3731.06 1515.18 3732.88 1510.53 3733.79 1505.16 3733.79 1499.09L3733.79 1161.99C3733.79 1153.48 3732.68 1147.21 3730.45 1143.16 3728.23 1139.11 3725.69 1136.48 3722.86 1135.26 3718.4 1134.05 3713.44 1132.83 3707.97 1131.62 3702.51 1130.4 3697.34 1129.59 3692.48 1129.19 3687.62 1129.19 3684.08 1128.48 3681.85 1127.06L3680.64 1125.26 3679.01 1127.67C3676.79 1129.09 3673.24 1129.8 3668.38 1129.8 3663.52 1130.2 3658.36 1131.01 3652.89 1132.23 3647.42 1133.44 3642.66 1134.65 3638.61 1135.87 3635.37 1137.08 3633.05 1139.72 3631.63 1143.77 3630.21 1147.81 3628.89 1154.09 3627.68 1162.59 3625.65 1176.36 3624.34 1192.76 3623.73 1211.79 3623.12 1230.82 3622.82 1248.84 3622.82 1265.85L3622.82 1401.91C3622.82 1424.58 3619.98 1445.54 3614.32 1464.77 3608.64 1484 3599.74 1500.51 3587.58 1514.27 3575.44 1528.04 3559.95 1538.77 3541.11 1546.46 3522.28 1554.16 3499.9 1558 3473.99 1558 3422.55 1558 3382.46 1546.26 3353.7 1522.78 3324.95 1499.29 3310.57 1458.39 3310.57 1400.08L3310.57 1161.99C3310.57 1153.48 3309.46 1147.21 3307.23 1143.16 3305 1139.11 3302.47 1136.48 3299.64 1135.26 3295.18 1134.05 3290.22 1132.83 3284.75 1131.62 3279.28 1130.4 3274.12 1129.59 3269.26 1129.19 3264.4 1129.19 3260.86 1128.48 3258.63 1127.06 3256.4 1125.65 3255.29 1122.1 3255.29 1116.43 3255.29 1113.6 3255.59 1111.47 3256.2 1110.05 3256.81 1108.64 3257.72 1107.73 3258.93 1107.32 3260.15 1106.51 3261.77 1106.11 3263.79 1106.11ZM2598.38 1106.11C2651.43 1106.11 2691.73 1116.03 2719.27 1135.87 2746.81 1155.71 2760.58 1184.46 2760.58 1222.12 2760.58 1234.67 2757.64 1247.12 2751.77 1259.47 2745.9 1271.82 2737.9 1282.86 2727.77 1292.58 2717.24 1302.7 2704.79 1310.8 2690.41 1316.87 2676.04 1322.95 2660.14 1325.98 2642.73 1325.98 2640.3 1326.39 2639.08 1327.1 2639.08 1328.11 2639.08 1329.12 2639.89 1329.83 2641.51 1330.23 2653.66 1332.66 2663.68 1337.62 2671.58 1345.11 2679.48 1352.61 2686.46 1362.43 2692.54 1374.57L2739.92 1472.97C2750.45 1494.03 2761.69 1509.11 2773.64 1518.22 2785.59 1527.33 2797.64 1531.28 2809.78 1530.07 2817.07 1529.66 2822.14 1529.76 2824.97 1530.37 2827.81 1530.98 2829.83 1533.71 2831.05 1538.57 2831.86 1542.21 2831.35 1545.35 2829.53 1547.98 2827.71 1550.62 2823.76 1552.54 2817.68 1553.75 2815.25 1554.16 2812.92 1554.56 2810.7 1554.97 2808.47 1555.37 2806.14 1555.58 2803.71 1555.58 2801.68 1555.98 2799.46 1556.18 2797.03 1556.18 2794.6 1556.18 2792.17 1556.18 2789.74 1556.18 2763.01 1556.18 2739.62 1549.81 2719.57 1537.05 2699.53 1524.3 2683.02 1503.74 2670.06 1475.4L2629.36 1385.51C2620.86 1367.69 2612.55 1356.15 2604.45 1350.88 2596.35 1345.62 2583.8 1342.99 2566.79 1342.99 2564.36 1342.99 2562.74 1343.5 2561.93 1344.51 2561.12 1345.52 2560.71 1347.65 2560.71 1350.88L2560.71 1500.91C2560.71 1509.01 2561.73 1514.88 2563.75 1518.53 2565.78 1522.17 2568.41 1524.6 2571.65 1525.81 2575.7 1527.43 2580.15 1528.85 2585.01 1530.07 2589.88 1531.28 2594.73 1531.89 2599.59 1531.89 2604.45 1532.29 2608 1533.2 2610.23 1534.62 2612.45 1536.04 2613.57 1539.38 2613.57 1544.64 2613.57 1547.88 2613.16 1550.21 2612.35 1551.63 2611.54 1553.04 2610.53 1553.96 2609.31 1554.36 2608.1 1555.17 2606.48 1555.47 2604.45 1555.27 2602.43 1555.07 2600.2 1554.97 2597.77 1554.97 2596.15 1554.97 2592.3 1554.97 2586.23 1554.97 2580.15 1554.97 2573.47 1554.77 2566.18 1554.36 2558.89 1554.36 2551.7 1554.26 2544.62 1554.06 2537.53 1553.85 2532.16 1553.75 2528.52 1553.75 2524.87 1553.75 2519.3 1553.85 2511.81 1554.06 2504.32 1554.26 2496.73 1554.36 2489.03 1554.36 2481.34 1554.77 2474.45 1554.97 2468.38 1554.97 2462.3 1554.97 2458.86 1554.97 2458.05 1554.97 2455.21 1554.97 2452.78 1555.07 2450.76 1555.27 2448.73 1555.47 2447.11 1555.17 2445.9 1554.36 2444.68 1553.96 2443.77 1553.04 2443.17 1551.63 2442.56 1550.21 2442.25 1547.88 2442.25 1544.64 2442.25 1539.38 2443.37 1536.04 2445.6 1534.62 2447.82 1533.2 2451.37 1532.29 2456.23 1531.89 2461.09 1531.89 2466.25 1531.28 2471.72 1530.07 2477.19 1528.85 2482.15 1527.43 2486.6 1525.81 2489.44 1524.6 2491.97 1522.07 2494.2 1518.22 2496.42 1514.37 2497.54 1508 2497.54 1499.09L2497.54 1163.2C2497.54 1156.32 2496.62 1150.65 2494.8 1146.19 2492.98 1141.74 2490.45 1138.91 2487.21 1137.69 2483.16 1136.48 2478.6 1135.57 2473.54 1134.96 2468.48 1134.35 2463.52 1134.05 2458.66 1134.05 2453.8 1134.05 2450.05 1133.54 2447.42 1132.53 2444.79 1131.52 2443.47 1127.97 2443.47 1121.9 2443.47 1119.47 2443.77 1117.65 2444.38 1116.43 2444.99 1115.22 2445.9 1114.2 2447.11 1113.4 2448.33 1112.59 2449.75 1111.98 2451.37 1111.57 2452.99 1111.17 2454.81 1110.76 2456.83 1110.36 2481.13 1109.14 2504.52 1108.13 2527 1107.32 2549.48 1106.51 2573.27 1106.11 2598.38 1106.11ZM3028.84 1103.07C3059.22 1103.07 3087.47 1107.83 3113.59 1117.34 3139.71 1126.86 3162.29 1140.93 3181.32 1159.56 3200.36 1178.18 3215.44 1201.57 3226.58 1229.71 3237.72 1257.85 3243.29 1290.75 3243.29 1328.41 3243.29 1364.85 3237.62 1397.15 3226.28 1425.29 3214.94 1453.43 3199.55 1477.22 3180.11 1496.66 3160.67 1516.09 3137.89 1530.77 3111.77 1540.69 3085.64 1550.62 3057.8 1555.58 3028.23 1555.58 2998.67 1555.58 2970.93 1550.62 2945.01 1540.69 2919.09 1530.77 2896.61 1516.09 2877.58 1496.66 2858.14 1477.22 2842.95 1453.43 2832.02 1425.29 2821.08 1397.15 2815.61 1364.85 2815.61 1328.41 2815.61 1292.78 2821.08 1260.99 2832.02 1233.05 2842.95 1205.11 2857.94 1181.62 2876.97 1162.59 2896 1143.16 2918.58 1128.38 2944.71 1118.26 2970.83 1108.13 2998.87 1103.07 3028.84 1103.07ZM4673.96 1085.46C4678.41 1085.05 4681.75 1085.46 4683.98 1086.67 4686.21 1087.89 4687.93 1090.92 4689.14 1095.78 4691.17 1104.28 4696.84 1109.24 4706.15 1110.66 4715.47 1112.08 4727.01 1112.79 4740.78 1112.79L4944.9 1112.79C4958.26 1112.79 4969.6 1112.08 4978.92 1110.66 4988.23 1109.24 4994.1 1104.28 4996.54 1095.78 4997.75 1090.92 4999.37 1087.89 5001.39 1086.67 5003.42 1085.46 5006.86 1085.05 5011.72 1085.46 5016.18 1086.27 5018.81 1087.78 5019.62 1090.01 5020.43 1092.24 5020.83 1095.17 5020.83 1098.82L5020.16 1111.71 5023.02 1109.14C5024.64 1108.33 5026.46 1107.93 5028.49 1107.93 5030.51 1107.93 5032.74 1107.93 5035.17 1107.93 5036.79 1107.93 5043.37 1108.03 5054.91 1108.23 5066.45 1108.43 5079.51 1108.74 5094.09 1109.14 5108.67 1109.55 5123.15 1109.75 5137.53 1109.75 5151.91 1109.75 5163.35 1109.75 5171.85 1109.75 5179.55 1109.75 5189.88 1109.75 5202.83 1109.75 5215.8 1109.75 5228.55 1109.55 5241.11 1109.14 5253.66 1108.74 5264.6 1108.43 5273.91 1108.23 5283.23 1108.03 5288.29 1107.93 5289.1 1107.93 5291.93 1107.93 5294.26 1108.33 5296.08 1109.14 5297.91 1109.95 5299.22 1112.18 5300.03 1115.82 5302.46 1130.81 5304.89 1145.18 5307.32 1158.95 5309.75 1172.72 5312.18 1186.69 5314.61 1200.86 5315.02 1204.5 5314.82 1207.44 5314.01 1209.67 5313.2 1211.89 5310.97 1213.41 5307.32 1214.22 5303.27 1215.44 5299.93 1215.74 5297.3 1215.13 5294.67 1214.53 5292.74 1211.79 5291.53 1206.93 5289.1 1200.46 5286.37 1193.57 5283.33 1186.28 5280.29 1178.99 5276.95 1172.11 5273.3 1165.63 5269.66 1158.75 5264.7 1153.28 5258.42 1149.23 5252.14 1145.18 5243.94 1143.16 5233.82 1143.16L5180.97 1143.16C5176.1 1143.16 5171.14 1143.26 5166.08 1143.46 5161.02 1143.66 5156.26 1144.37 5151.8 1145.59 5148.16 1146.8 5145.63 1149.54 5144.21 1153.79 5142.8 1158.04 5142.09 1164.01 5142.09 1171.7L5142.09 1294.4C5142.09 1297.23 5142.59 1299.05 5143.6 1299.86 5144.62 1300.67 5146.54 1301.08 5149.38 1301.08L5218.63 1301.08C5230.78 1301.08 5238.37 1299.97 5241.41 1297.74 5244.45 1295.51 5247.18 1291.77 5249.61 1286.5 5250.83 1282.86 5252.24 1278 5253.86 1271.92 5255.48 1265.85 5257.31 1257.96 5259.33 1248.24 5259.74 1244.59 5260.85 1242.26 5262.67 1241.25 5264.49 1240.24 5267.63 1239.93 5272.09 1240.34 5276.54 1241.15 5279.28 1242.36 5280.29 1243.98 5281.3 1245.6 5281.81 1248.24 5281.81 1251.88 5280.59 1264.03 5279.78 1276.68 5279.38 1289.84 5278.97 1303 5278.77 1313.23 5278.77 1320.52 5278.77 1326.19 5278.97 1336.21 5279.38 1350.58 5279.78 1364.96 5280.59 1378.22 5281.81 1390.37 5281.81 1394.01 5281.3 1396.74 5280.29 1398.57 5279.28 1400.39 5276.54 1401.5 5272.09 1401.91 5267.63 1402.72 5264.49 1402.41 5262.67 1401 5260.85 1399.58 5259.74 1396.84 5259.33 1392.8 5257.71 1384.29 5255.99 1376.09 5254.17 1368.2 5252.35 1360.3 5250.22 1353.31 5247.79 1347.24 5246.17 1342.38 5243.74 1338.84 5240.5 1336.61 5237.26 1334.38 5229.56 1333.27 5217.41 1333.27L5149.38 1333.27C5146.54 1333.27 5144.62 1333.68 5143.6 1334.49 5142.59 1335.3 5142.09 1336.92 5142.09 1339.34L5142.09 1492.41C5142.09 1500.51 5142.69 1506.58 5143.91 1510.63 5145.12 1514.68 5147.55 1517.11 5151.2 1517.92 5155.65 1519.13 5160.51 1519.84 5165.78 1520.04 5171.04 1520.25 5176.1 1520.35 5180.97 1520.35L5259.33 1520.35C5269.46 1520.35 5277.76 1518.32 5284.24 1514.27 5290.72 1510.22 5295.98 1504.55 5300.03 1497.27 5304.49 1488.76 5308.74 1479.45 5312.79 1469.33 5316.84 1459.2 5320.69 1449.28 5324.33 1439.56 5325.95 1435.11 5327.67 1432.58 5329.5 1431.97 5331.32 1431.36 5334.25 1431.47 5338.31 1432.27 5340.74 1433.08 5342.46 1433.89 5343.47 1434.7 5344.48 1435.51 5345.19 1436.53 5345.6 1437.74 5346 1438.96 5346.1 1440.27 5345.9 1441.69 5345.7 1443.11 5345.6 1444.62 5345.6 1446.24 5343.16 1462.85 5340.13 1480.16 5336.48 1498.18 5332.84 1516.2 5328.99 1533.1 5324.94 1548.89 5323.73 1552.13 5322.51 1554.06 5321.3 1554.66 5320.08 1555.27 5318.26 1555.58 5315.83 1555.58 5312.18 1555.58 5304.39 1555.58 5292.44 1555.58 5280.49 1555.58 5267.43 1555.37 5253.26 1554.97 5238.68 1554.56 5224.5 1554.26 5210.73 1554.06 5196.96 1553.85 5186.23 1553.75 5178.54 1553.75 5169.62 1553.75 5157.58 1553.85 5142.39 1554.06 5127.2 1554.26 5112.32 1554.56 5097.74 1554.97 5082.75 1555.37 5069.39 1555.58 5057.65 1555.58 5045.9 1555.58 5039.22 1555.58 5037.6 1555.58 5035.17 1555.58 5032.94 1555.58 5030.92 1555.58 5028.89 1555.58 5027.07 1555.37 5025.45 1554.97 5023.83 1554.16 5022.61 1553.04 5021.8 1551.63 5020.99 1550.21 5020.59 1547.88 5020.59 1544.64 5020.59 1542.21 5020.89 1540.19 5021.5 1538.57 5022.11 1536.95 5023.02 1535.73 5024.23 1534.92 5025.45 1534.52 5026.97 1534.11 5028.79 1533.71 5030.61 1533.3 5032.94 1532.9 5035.77 1532.5 5041.85 1532.09 5047.52 1531.28 5052.78 1530.07 5058.05 1528.85 5063.31 1527.03 5068.58 1524.6 5072.63 1522.98 5075.57 1519.84 5077.39 1515.18 5079.21 1510.53 5080.12 1505.16 5080.12 1499.09L5080.12 1163.2C5080.12 1156.32 5079.21 1150.65 5077.39 1146.19 5075.57 1141.74 5072.63 1138.7 5068.58 1137.08 5065.75 1136.27 5062.91 1135.57 5060.07 1134.96 5057.24 1134.35 5054.4 1133.84 5051.57 1133.44 5048.33 1133.03 5045.19 1132.63 5042.15 1132.23 5039.12 1131.82 5036.18 1131.42 5033.35 1131.01 5028.08 1131.01 5024.33 1130.4 5022.11 1129.19 5020.99 1128.58 5020.16 1127.37 5019.6 1125.54L5019.49 1124.59 5019.31 1127.97C5019.11 1137.69 5019.01 1147.21 5019.01 1156.52 5019.01 1167.05 5019.11 1178.08 5019.31 1189.62 5019.52 1201.16 5020.02 1211.79 5020.83 1221.51 5020.83 1225.16 5020.23 1228.09 5019.01 1230.32 5017.8 1232.54 5014.76 1233.66 5009.9 1233.66 5006.25 1234.06 5003.42 1233.35 5001.39 1231.53 4999.37 1229.71 4997.95 1226.98 4997.14 1223.33 4994.71 1214.83 4991.88 1205.31 4988.64 1194.79 4985.4 1184.26 4982.56 1175.55 4980.13 1168.67 4977.3 1162.19 4973.45 1157.33 4968.59 1154.09 4963.73 1150.85 4957.05 1149.23 4948.54 1149.23L4880.5 1149.23C4878.08 1149.23 4876.35 1149.64 4875.34 1150.45 4874.33 1151.26 4873.82 1152.88 4873.82 1155.31L4873.82 1499.09C4873.82 1508 4874.83 1514.37 4876.86 1518.22 4878.88 1522.07 4881.52 1524.6 4884.76 1525.81 4888.81 1527.43 4893.67 1528.85 4899.34 1530.07 4905.01 1531.28 4910.27 1531.89 4915.13 1531.89 4919.99 1532.29 4923.54 1533.2 4925.76 1534.62 4927.99 1536.04 4929.1 1539.38 4929.1 1544.64 4929.1 1547.88 4928.7 1550.21 4927.89 1551.63 4927.08 1553.04 4926.07 1553.96 4924.85 1554.36 4923.63 1555.17 4922.02 1555.47 4919.99 1555.27 4917.97 1555.07 4915.74 1554.97 4913.31 1554.97 4912.09 1554.97 4908.35 1554.97 4902.07 1554.97 4895.79 1554.97 4888.81 1554.77 4881.11 1554.36 4873.42 1554.36 4865.92 1554.26 4858.63 1554.06 4851.34 1553.85 4845.88 1553.75 4842.23 1553.75 4838.59 1553.75 4833.02 1553.85 4825.53 1554.06 4818.03 1554.26 4810.44 1554.36 4802.75 1554.36 4795.05 1554.77 4788.17 1554.97 4782.09 1554.97 4776.02 1554.97 4772.57 1554.97 4771.76 1554.97 4768.93 1554.97 4766.5 1555.07 4764.47 1555.27 4762.45 1555.47 4760.83 1555.17 4759.61 1554.36 4758.4 1553.96 4757.49 1553.04 4756.88 1551.63 4756.27 1550.21 4755.97 1547.88 4755.97 1544.64 4755.97 1539.38 4757.08 1536.04 4759.31 1534.62 4761.54 1533.2 4765.08 1532.29 4769.94 1531.89 4774.8 1531.89 4779.96 1531.28 4785.43 1530.07 4790.9 1528.85 4795.86 1527.43 4800.31 1525.81 4803.15 1524.6 4805.68 1522.07 4807.91 1518.22 4810.14 1514.37 4811.25 1508 4811.25 1499.09L4811.25 1155.31C4811.25 1152.88 4810.85 1151.26 4810.04 1150.45 4809.23 1149.64 4807.6 1149.23 4805.18 1149.23L4737.14 1149.23C4728.63 1149.23 4721.85 1150.85 4716.79 1154.09 4711.72 1157.33 4707.98 1162.19 4705.55 1168.67 4703.12 1175.55 4700.18 1184.26 4696.74 1194.79 4693.3 1205.31 4690.56 1214.83 4688.54 1223.33 4687.32 1226.98 4685.8 1229.71 4683.98 1231.53 4682.16 1233.35 4679.43 1234.06 4675.78 1233.66 4670.52 1233.66 4667.38 1232.54 4666.36 1230.32 4665.35 1228.09 4664.85 1225.16 4664.85 1221.51 4665.25 1211.79 4665.65 1201.16 4666.06 1189.62 4666.46 1178.08 4666.67 1167.05 4666.67 1156.52 4666.67 1147.21 4666.46 1137.69 4666.06 1127.97 4665.65 1118.26 4665.25 1108.54 4664.85 1098.82 4664.85 1095.17 4665.15 1092.24 4665.76 1090.01 4666.36 1087.78 4669.1 1086.27 4673.96 1085.46ZM4312.75 1085.46C4317.2 1085.05 4320.54 1085.46 4322.77 1086.67 4325 1087.89 4326.72 1090.92 4327.93 1095.78 4329.96 1104.28 4335.63 1109.24 4344.94 1110.66 4354.26 1112.08 4365.8 1112.79 4379.57 1112.79L4583.69 1112.79C4597.05 1112.79 4608.39 1112.08 4617.71 1110.66 4627.02 1109.24 4632.89 1104.28 4635.33 1095.78 4636.54 1090.92 4638.16 1087.89 4640.18 1086.67 4642.21 1085.46 4645.65 1085.05 4650.51 1085.46 4654.97 1086.27 4657.6 1087.78 4658.41 1090.01 4659.22 1092.24 4659.62 1095.17 4659.62 1098.82 4658.81 1108.54 4658.31 1118.26 4658.1 1127.97 4657.9 1137.69 4657.8 1147.21 4657.8 1156.52 4657.8 1167.05 4657.9 1178.08 4658.1 1189.62 4658.31 1201.16 4658.81 1211.79 4659.62 1221.51 4659.62 1225.16 4659.02 1228.09 4657.8 1230.32 4656.59 1232.54 4653.55 1233.66 4648.69 1233.66 4645.04 1234.06 4642.21 1233.35 4640.18 1231.53 4638.16 1229.71 4636.74 1226.98 4635.93 1223.33 4633.5 1214.83 4630.67 1205.31 4627.43 1194.79 4624.19 1184.26 4621.35 1175.55 4618.92 1168.67 4616.09 1162.19 4612.24 1157.33 4607.38 1154.09 4602.52 1150.85 4595.84 1149.23 4587.33 1149.23L4519.29 1149.23C4516.87 1149.23 4515.14 1149.64 4514.13 1150.45 4513.12 1151.26 4512.61 1152.88 4512.61 1155.31L4512.61 1499.09C4512.61 1508 4513.62 1514.37 4515.65 1518.22 4517.67 1522.07 4520.31 1524.6 4523.55 1525.81 4527.6 1527.43 4532.46 1528.85 4538.13 1530.07 4543.8 1531.28 4549.06 1531.89 4553.92 1531.89 4558.78 1532.29 4562.33 1533.2 4564.55 1534.62 4566.78 1536.04 4567.89 1539.38 4567.89 1544.64 4567.89 1547.88 4567.49 1550.21 4566.68 1551.63 4565.87 1553.04 4564.86 1553.96 4563.64 1554.36 4562.42 1555.17 4560.81 1555.47 4558.78 1555.27 4556.76 1555.07 4554.53 1554.97 4552.1 1554.97 4550.88 1554.97 4547.14 1554.97 4540.86 1554.97 4534.58 1554.97 4527.6 1554.77 4519.9 1554.36 4512.21 1554.36 4504.71 1554.26 4497.42 1554.06 4490.13 1553.85 4484.67 1553.75 4481.02 1553.75 4477.38 1553.75 4471.81 1553.85 4464.32 1554.06 4456.82 1554.26 4449.23 1554.36 4441.54 1554.36 4433.84 1554.77 4426.96 1554.97 4420.88 1554.97 4414.81 1554.97 4411.36 1554.97 4410.55 1554.97 4407.72 1554.97 4405.29 1555.07 4403.26 1555.27 4401.24 1555.47 4399.62 1555.17 4398.4 1554.36 4397.19 1553.96 4396.28 1553.04 4395.67 1551.63 4395.06 1550.21 4394.76 1547.88 4394.76 1544.64 4394.76 1539.38 4395.87 1536.04 4398.1 1534.62 4400.33 1533.2 4403.87 1532.29 4408.73 1531.89 4413.59 1531.89 4418.75 1531.28 4424.22 1530.07 4429.69 1528.85 4434.65 1527.43 4439.1 1525.81 4441.94 1524.6 4444.47 1522.07 4446.7 1518.22 4448.93 1514.37 4450.04 1508 4450.04 1499.09L4450.04 1155.31C4450.04 1152.88 4449.64 1151.26 4448.83 1150.45 4448.01 1149.64 4446.39 1149.23 4443.97 1149.23L4375.93 1149.23C4367.42 1149.23 4360.64 1150.85 4355.58 1154.09 4350.51 1157.33 4346.77 1162.19 4344.34 1168.67 4341.91 1175.55 4338.97 1184.26 4335.53 1194.79 4332.09 1205.31 4329.35 1214.83 4327.33 1223.33 4326.11 1226.98 4324.59 1229.71 4322.77 1231.53 4320.95 1233.35 4318.22 1234.06 4314.57 1233.66 4309.31 1233.66 4306.17 1232.54 4305.15 1230.32 4304.14 1228.09 4303.63 1225.16 4303.63 1221.51 4304.04 1211.79 4304.44 1201.16 4304.85 1189.62 4305.25 1178.08 4305.46 1167.05 4305.46 1156.52 4305.46 1147.21 4305.25 1137.69 4304.85 1127.97 4304.44 1118.26 4304.04 1108.54 4303.63 1098.82 4303.63 1095.17 4303.94 1092.24 4304.55 1090.01 4305.15 1087.78 4307.89 1086.27 4312.75 1085.46ZM3761.05 471.877C3759.02 477.14 3757.2 482.405 3755.58 487.669 3753.96 492.932 3752.34 498.197 3750.72 503.461 3748.7 508.724 3746.87 513.99 3745.25 519.253 3743.63 524.516 3742.01 529.578 3740.39 534.438 3734.72 552.254 3729.36 569.768 3724.29 586.976 3719.23 604.187 3714.88 619.877 3711.23 634.049 3710.83 635.264 3710.83 636.176 3711.23 636.782 3711.64 637.391 3712.45 637.694 3713.67 637.694L3808.43 637.694C3809.65 637.694 3810.36 637.289 3810.56 636.479 3810.76 635.669 3810.86 634.658 3810.86 633.443L3787.78 560.556C3784.94 551.647 3782.51 543.75 3780.49 536.867 3778.46 529.983 3776.44 523.301 3774.41 516.823 3772.39 510.345 3770.36 503.663 3768.34 496.779 3766.31 489.895 3763.88 481.595 3761.05 471.877ZM2456.83 383.804C2458.86 383.804 2461.29 383.804 2464.12 383.804 2464.93 383.804 2468.28 383.906 2474.15 384.108 2480.02 384.311 2486.6 384.413 2493.89 384.413 2501.18 384.818 2508.37 385.019 2515.46 385.019 2522.54 385.019 2528.11 385.019 2532.16 385.019L2557.68 385.019C2560.51 385.019 2562.54 385.626 2563.75 386.841 2564.97 388.056 2566.18 389.676 2567.4 391.701L2687.68 698.432 2814.65 391.701C2815.46 389.676 2816.47 388.056 2817.68 386.841 2818.9 385.626 2821.12 385.019 2824.37 385.019L2845.02 385.019C2848.66 385.019 2854.03 385.019 2861.12 385.019 2868.21 385.019 2875.39 384.818 2882.68 384.413 2889.97 384.413 2896.55 384.311 2902.43 384.108 2908.3 383.906 2911.84 383.804 2913.06 383.804 2915.49 383.804 2917.72 383.804 2919.74 383.804 2921.77 383.804 2923.39 384.21 2924.6 385.019 2925.81 385.425 2926.83 386.336 2927.64 387.753 2928.45 389.17 2928.85 391.296 2928.85 394.13 2928.85 399.8 2927.74 403.242 2925.51 404.457 2923.28 405.67 2919.74 406.48 2914.88 406.885 2910.02 407.695 2905.16 408.607 2900.3 409.618 2895.44 410.632 2890.99 411.745 2886.94 412.96 2882.89 414.579 2879.95 417.312 2878.13 421.159 2876.31 425.005 2875.6 431.181 2876 439.684L2887.54 776.786C2887.54 785.695 2888.56 792.073 2890.58 795.92 2892.61 799.767 2895.24 802.297 2898.48 803.512 2902.53 805.132 2907.39 806.549 2913.06 807.763 2918.73 808.978 2923.99 809.585 2928.85 809.585 2933.71 809.99 2937.26 810.902 2939.48 812.319L2939.54 812.494 2943.62 811.407C2945.44 811.002 2947.77 810.599 2950.61 810.194 2956.68 809.788 2962.35 808.978 2967.62 807.763 2972.88 806.549 2978.15 804.727 2983.41 802.297 2987.46 800.677 2990.4 797.538 2992.22 792.881 2994.04 788.227 2994.95 782.859 2994.95 776.786L2994.95 440.899C2994.95 434.016 2994.04 428.347 2992.22 423.892 2990.4 419.439 2987.46 416.402 2983.41 414.782 2980.58 413.972 2977.74 413.264 2974.91 412.655 2972.07 412.049 2969.24 411.542 2966.4 411.137 2963.16 410.732 2960.02 410.327 2956.99 409.922 2953.95 409.517 2951.01 409.114 2948.18 408.708 2942.91 408.708 2939.17 408.1 2936.94 406.885 2934.71 405.67 2933.6 402.027 2933.6 395.953 2933.6 393.118 2934 390.993 2934.81 389.575 2935.62 388.158 2936.64 387.246 2937.85 386.841 2939.47 386.031 2941.29 385.626 2943.32 385.626 2945.34 385.626 2947.57 385.626 2950 385.626 2951.62 385.626 2958.2 385.728 2969.74 385.931 2981.29 386.133 2994.35 386.436 3008.93 386.841 3023.51 387.246 3037.99 387.45 3052.36 387.45 3066.74 387.45 3078.18 387.45 3086.68 387.45 3094.38 387.45 3104.71 387.45 3117.67 387.45 3130.63 387.45 3143.38 387.246 3155.94 386.841 3168.49 386.436 3179.43 386.133 3188.74 385.931 3198.06 385.728 3203.12 385.626 3203.93 385.626 3206.77 385.626 3209.09 386.031 3210.92 386.841 3212.74 387.651 3214.06 389.878 3214.87 393.523 3217.3 408.505 3219.73 422.881 3222.16 436.647 3224.59 450.414 3227.02 464.385 3229.44 478.559 3229.85 482.202 3229.65 485.137 3228.84 487.366 3228.03 489.592 3225.8 491.111 3222.16 491.921 3218.11 493.136 3214.76 493.439 3212.13 492.83 3209.5 492.224 3207.58 489.49 3206.36 484.632 3203.93 478.153 3201.2 471.268 3198.16 463.98 3195.12 456.691 3191.78 449.808 3188.14 443.329 3184.49 436.446 3179.53 430.979 3173.25 426.929 3166.97 422.881 3158.77 420.856 3148.65 420.856L3095.8 420.856C3090.94 420.856 3085.98 420.957 3080.91 421.159 3075.85 421.362 3071.09 422.07 3066.64 423.285 3062.99 424.501 3060.46 427.234 3059.04 431.486 3057.63 435.737 3056.92 441.709 3056.92 449.403L3056.92 572.096C3056.92 574.931 3057.42 576.753 3058.44 577.563 3059.45 578.373 3061.37 578.778 3064.21 578.778L3133.46 578.778C3145.61 578.778 3153.21 577.664 3156.24 575.436 3159.28 573.209 3162.01 569.464 3164.44 564.199 3165.66 560.556 3167.08 555.697 3168.7 549.622 3170.32 543.548 3172.14 535.652 3174.16 525.935 3174.57 522.29 3175.68 519.961 3177.51 518.95 3179.33 517.936 3182.47 517.633 3186.92 518.038 3191.38 518.848 3194.11 520.063 3195.12 521.683 3196.14 523.301 3196.64 525.935 3196.64 529.578 3195.43 541.727 3194.62 554.38 3194.21 567.541 3193.81 580.701 3193.6 590.925 3193.6 598.213 3193.6 603.883 3193.81 613.905 3194.21 628.279 3194.62 642.654 3195.43 655.916 3196.64 668.063 3196.64 671.708 3196.14 674.442 3195.12 676.263 3194.11 678.085 3191.38 679.198 3186.92 679.604 3182.47 680.414 3179.33 680.11 3177.51 678.694 3175.68 677.275 3174.57 674.542 3174.16 670.493 3172.54 661.99 3170.82 653.79 3169 645.895 3167.18 637.997 3165.05 631.012 3162.62 624.939 3161 620.081 3158.57 616.537 3155.33 614.31 3152.09 612.082 3144.4 610.968 3132.25 610.968L3064.21 610.968C3061.37 610.968 3059.45 611.374 3058.44 612.184 3057.42 612.994 3056.92 614.614 3056.92 617.042L3056.92 770.106C3056.92 778.204 3057.53 784.278 3058.74 788.326 3059.96 792.377 3062.39 794.805 3066.03 795.615 3070.49 796.83 3075.35 797.538 3080.61 797.742 3085.87 797.943 3090.94 798.045 3095.8 798.045L3174.16 798.045C3184.29 798.045 3192.59 796.02 3199.07 791.971 3205.55 787.921 3210.82 782.253 3214.87 774.964 3219.32 766.461 3223.57 757.147 3227.62 747.024 3231.67 736.902 3235.52 726.98 3239.17 717.263 3240.79 712.808 3242.51 710.278 3244.33 709.669 3246.15 709.063 3249.09 709.164 3253.14 709.972 3255.57 710.783 3257.29 711.593 3258.3 712.403 3259.31 713.213 3260.02 714.225 3260.43 715.44 3260.83 716.654 3260.93 717.971 3260.73 719.388 3260.53 720.805 3260.43 722.323 3260.43 723.943 3258 740.545 3254.96 757.856 3251.32 775.876 3247.67 793.895 3243.82 810.8 3239.77 826.592 3238.56 829.832 3237.34 831.756 3236.13 832.362 3234.91 832.971 3233.09 833.274 3230.66 833.274 3227.02 833.274 3219.22 833.274 3207.27 833.274 3195.33 833.274 3182.26 833.071 3168.09 832.666 3153.51 832.261 3139.33 831.957 3125.57 831.756 3111.79 831.553 3101.06 831.451 3093.37 831.451 3084.46 831.451 3072.41 831.553 3057.22 831.756 3042.03 831.957 3027.15 832.261 3012.57 832.666 2997.59 833.071 2984.22 833.274 2972.48 833.274 2960.73 833.274 2954.05 833.274 2952.43 833.274 2950 833.274 2947.77 833.274 2945.75 833.274 2943.72 833.274 2941.9 833.071 2940.28 832.666L2939.1 831.585 2938.57 832.059C2937.36 832.869 2935.74 833.172 2933.71 832.971 2931.69 832.767 2929.46 832.666 2927.03 832.666 2925.81 832.666 2922.07 832.666 2915.79 832.666 2909.52 832.666 2902.53 832.464 2894.83 832.059 2887.14 832.059 2879.65 831.957 2872.36 831.756 2865.07 831.553 2859.6 831.451 2855.96 831.451 2852.31 831.451 2846.74 831.553 2839.25 831.756 2831.76 831.957 2824.16 832.059 2816.47 832.059 2808.77 832.464 2801.89 832.666 2795.81 832.666 2789.74 832.666 2786.3 832.666 2785.49 832.666 2782.65 832.666 2780.22 832.767 2778.2 832.971 2776.17 833.172 2774.55 832.869 2773.34 832.059 2772.12 831.654 2771.21 830.742 2770.6 829.326 2769.99 827.909 2769.69 825.581 2769.69 822.341 2769.69 817.077 2770.8 813.735 2773.03 812.319 2775.26 810.902 2778.8 809.99 2783.66 809.585 2788.52 809.585 2793.69 808.978 2799.15 807.763 2804.62 806.549 2809.58 805.132 2814.04 803.512 2816.87 802.297 2819.4 799.767 2821.63 795.92 2823.86 792.073 2824.97 785.695 2824.97 776.786L2817.68 487.06 2684.04 810.194C2680.39 818.292 2675.94 822.341 2670.67 822.341 2665.41 822.341 2661.56 818.292 2659.13 810.194L2537.63 494.957 2532.77 673.53C2532.37 689.322 2532.26 707.139 2532.47 726.98 2532.67 746.822 2533.38 763.424 2534.59 776.786 2535 785.695 2536.11 792.073 2537.93 795.92 2539.76 799.767 2542.29 802.297 2545.53 803.512 2549.58 805.132 2554.34 806.549 2559.8 807.763 2565.27 808.978 2570.43 809.585 2575.3 809.585 2580.15 809.99 2583.7 810.902 2585.93 812.319 2588.15 813.735 2589.27 817.077 2589.27 822.341 2589.27 825.581 2588.86 827.909 2588.05 829.326 2587.24 830.742 2586.23 831.654 2585.01 832.059 2583.8 832.869 2582.18 833.172 2580.15 832.971 2578.13 832.767 2575.9 832.666 2573.47 832.666 2572.26 832.666 2568.92 832.666 2563.45 832.666 2557.98 832.666 2552.01 832.464 2545.53 832.059 2538.64 832.059 2531.96 831.957 2525.48 831.756 2519 831.553 2513.94 831.451 2510.29 831.451 2506.65 831.451 2501.48 831.553 2494.8 831.756 2488.12 831.957 2481.34 832.059 2474.45 832.059 2467.97 832.464 2462 832.666 2456.53 832.666 2451.06 832.666 2447.92 832.666 2447.11 832.666 2444.28 832.666 2441.85 832.767 2439.82 832.971 2437.8 833.172 2436.18 832.869 2434.96 832.059 2433.75 831.654 2432.84 830.742 2432.23 829.326 2431.62 827.909 2431.32 825.581 2431.32 822.341 2431.32 817.077 2432.43 813.735 2434.66 812.319 2436.89 810.902 2440.43 809.99 2445.29 809.585 2450.15 809.585 2455.32 808.978 2460.78 807.763 2466.25 806.549 2471.21 805.132 2475.67 803.512 2478.5 802.297 2480.73 799.767 2482.35 795.92 2483.97 792.073 2485.39 785.695 2486.6 776.786 2487.82 762.209 2489.13 745.202 2490.55 725.765 2491.97 706.329 2493.08 688.107 2493.89 671.1L2501.18 439.684C2501.18 431.181 2500.27 425.005 2498.45 421.159 2496.62 417.312 2493.89 414.579 2490.25 412.96 2485.79 411.745 2481.23 410.632 2476.58 409.618 2471.92 408.607 2467.16 407.695 2462.3 406.885 2457.44 406.48 2453.9 405.67 2451.67 404.457 2449.44 403.242 2448.33 399.8 2448.33 394.13 2448.33 391.296 2448.63 389.17 2449.24 387.753 2449.85 386.336 2450.76 385.425 2451.97 385.019 2453.19 384.21 2454.81 383.804 2456.83 383.804ZM3795.98 373.176C3798.21 374.187 3799.93 376.516 3801.14 380.161L3826.05 459.728C3833.74 484.834 3841.64 510.648 3849.74 537.172 3857.84 563.694 3866.14 590.52 3874.65 617.65 3882.75 644.376 3890.95 670.797 3899.25 696.914 3907.55 723.033 3915.76 747.834 3923.86 771.319 3926.28 778.608 3928.82 784.581 3931.45 789.238 3934.08 793.895 3937.02 797.235 3940.26 799.26 3943.9 802.095 3948.05 804.118 3952.71 805.333 3957.37 806.549 3962.13 807.359 3966.99 807.763 3969.82 808.168 3972.25 808.574 3974.28 808.978 3976.3 809.384 3977.92 809.99 3979.14 810.8 3979.95 811.61 3980.66 812.724 3981.26 814.14 3981.87 815.559 3982.17 817.684 3982.17 820.519 3982.17 823.757 3981.67 826.086 3980.66 827.504 3979.64 828.921 3978.53 830.034 3977.31 830.844 3975.69 831.249 3973.87 831.451 3971.85 831.451 3969.82 831.451 3967.59 831.451 3965.17 831.451 3963.95 831.451 3960.2 831.451 3953.93 831.451 3947.65 831.451 3940.66 831.249 3932.97 830.844 3924.87 830.439 3916.87 830.136 3908.97 829.932 3901.07 829.731 3895.3 829.629 3891.66 829.629 3888.01 829.629 3882.34 829.731 3874.65 829.932 3866.95 830.136 3859.26 830.439 3851.56 830.844 3843.46 831.249 3836.28 831.451 3830 831.451 3823.72 831.451 3820.38 831.451 3819.97 831.451 3817.54 831.451 3815.32 831.451 3813.29 831.451 3811.27 831.451 3809.65 831.249 3808.43 830.844 3806.81 830.034 3805.7 828.921 3805.09 827.504 3804.48 826.086 3804.18 823.757 3804.18 820.519 3804.18 814.848 3805.19 811.307 3807.22 809.888 3809.24 808.472 3812.89 807.56 3818.15 807.155 3822.2 807.155 3827.47 806.549 3833.95 805.333 3840.43 804.118 3845.49 802.702 3849.13 801.082 3851.56 799.867 3853.49 797.943 3854.9 795.312 3856.32 792.68 3856.42 789.34 3855.21 785.29L3823.01 678.997C3822.2 677.782 3821.49 676.77 3820.89 675.96 3820.28 675.15 3819.37 674.745 3818.15 674.745L3703.94 674.745C3702.32 674.745 3701.01 675.15 3700 675.96 3698.98 676.77 3698.48 677.782 3698.48 678.997L3668.71 783.468C3667.49 787.516 3666.89 790.958 3666.89 793.793 3666.89 796.628 3668.3 799.057 3671.14 801.082 3673.57 803.512 3677.62 805.333 3683.29 806.549 3688.96 807.763 3695.03 808.574 3701.51 808.978 3706.37 809.384 3709.92 810.294 3712.14 811.712 3714.37 813.129 3715.49 816.267 3715.49 821.126 3715.49 823.961 3715.08 826.086 3714.27 827.504 3713.46 828.921 3712.45 830.034 3711.23 830.844 3710.02 831.249 3708.4 831.451 3706.37 831.451 3704.35 831.451 3702.12 831.451 3699.69 831.451 3698.48 831.451 3695.14 831.451 3689.67 831.451 3684.2 831.451 3678.23 831.249 3671.75 830.844 3665.27 830.439 3658.99 830.136 3652.91 829.932 3646.84 829.731 3642.59 829.629 3640.16 829.629 3636.92 829.629 3632.26 829.731 3626.18 829.932 3620.11 830.136 3614.04 830.439 3607.96 830.844 3601.89 831.249 3596.42 831.451 3591.56 831.451 3586.7 831.451 3583.86 831.451 3583.05 831.451 3580.62 831.451 3578.5 831.451 3576.68 831.451 3574.85 831.451 3573.54 831.249 3572.73 830.844 3571.51 830.034 3570.5 828.921 3569.69 827.504 3568.88 826.086 3568.47 823.757 3568.47 820.519 3568.47 814.848 3569.49 811.307 3571.51 809.888 3573.54 808.472 3577.18 807.56 3582.45 807.155 3585.69 807.155 3589.33 806.65 3593.38 805.637 3597.43 804.625 3601.08 803.308 3604.32 801.69 3607.15 800.475 3609.89 797.235 3612.52 791.971 3615.15 786.706 3617.68 780.836 3620.11 774.356L3744.65 399.597C3744.65 399.191 3744.75 398.687 3744.95 398.078 3745.15 397.471 3745.46 396.763 3745.86 395.953 3746.27 395.143 3746.97 394.333 3747.99 393.523 3749 392.713 3750.32 391.903 3751.94 391.093L3786.56 374.086C3790.61 372.467 3793.75 372.163 3795.98 373.176ZM3278.37 363.154C3282.83 362.749 3286.17 363.154 3288.4 364.369 3290.62 365.582 3292.35 368.621 3293.56 373.479 3295.58 381.983 3301.26 386.943 3310.57 388.36 3319.88 389.778 3331.43 390.486 3345.2 390.486L3549.31 390.486C3562.68 390.486 3574.02 389.778 3583.33 388.36 3592.65 386.943 3598.52 381.983 3600.95 373.479 3602.16 368.621 3603.78 365.582 3605.81 364.369 3607.84 363.154 3611.28 362.749 3616.14 363.154 3620.59 363.964 3623.23 365.482 3624.04 367.709 3624.84 369.936 3625.25 372.873 3625.25 376.516 3624.44 386.235 3623.93 395.953 3623.73 405.67 3623.53 415.389 3623.43 424.906 3623.43 434.218 3623.43 444.746 3623.53 455.781 3623.73 467.322 3623.93 478.862 3624.44 489.49 3625.25 499.209 3625.25 502.854 3624.64 505.789 3623.43 508.016 3622.21 510.243 3619.17 511.356 3614.32 511.356 3610.67 511.761 3607.84 511.053 3605.81 509.231 3603.78 507.409 3602.37 504.676 3601.56 501.031 3599.13 492.527 3596.29 483.012 3593.05 472.483 3589.81 461.956 3586.98 453.249 3584.55 446.366 3581.71 439.888 3577.86 435.027 3573.01 431.789 3568.15 428.549 3561.46 426.929 3552.96 426.929L3484.92 426.929C3482.49 426.929 3480.77 427.334 3479.76 428.144 3478.74 428.954 3478.24 430.574 3478.24 433.004L3478.24 776.786C3478.24 785.695 3479.25 792.073 3481.28 795.92 3483.3 799.767 3485.93 802.297 3489.17 803.512 3493.22 805.132 3498.08 806.549 3503.75 807.763 3509.42 808.978 3514.69 809.585 3519.55 809.585 3524.41 809.99 3527.95 810.902 3530.18 812.319 3532.4 813.735 3533.52 817.077 3533.52 822.341 3533.52 825.581 3533.11 827.909 3532.3 829.326 3531.49 830.742 3530.48 831.654 3529.27 832.059 3528.05 832.869 3526.43 833.172 3524.41 832.971 3522.38 832.767 3520.15 832.666 3517.72 832.666 3516.51 832.666 3512.76 832.666 3506.48 832.666 3500.21 832.666 3493.22 832.464 3485.53 832.059 3477.83 832.059 3470.34 831.957 3463.05 831.756 3455.76 831.553 3450.29 831.451 3446.65 831.451 3443 831.451 3437.43 831.553 3429.94 831.756 3422.45 831.957 3414.86 832.059 3407.16 832.059 3399.47 832.464 3392.58 832.666 3386.51 832.666 3380.43 832.666 3376.99 832.666 3376.18 832.666 3373.34 832.666 3370.91 832.767 3368.89 832.971 3366.86 833.172 3365.25 832.869 3364.03 832.059 3362.81 831.654 3361.9 830.742 3361.3 829.326 3360.69 827.909 3360.38 825.581 3360.38 822.341 3360.38 817.077 3361.5 813.735 3363.72 812.319 3365.95 810.902 3369.5 809.99 3374.36 809.585 3379.22 809.585 3384.38 808.978 3389.85 807.763 3395.32 806.549 3400.28 805.132 3404.73 803.512 3407.57 802.297 3410.1 799.767 3412.32 795.92 3414.55 792.073 3415.67 785.695 3415.67 776.786L3415.67 433.004C3415.67 430.574 3415.26 428.954 3414.45 428.144 3413.64 427.334 3412.02 426.929 3409.59 426.929L3341.55 426.929C3333.05 426.929 3326.26 428.549 3321.2 431.789 3316.14 435.027 3312.39 439.888 3309.96 446.366 3307.53 453.249 3304.6 461.956 3301.15 472.483 3297.71 483.012 3294.98 492.527 3292.95 501.031 3291.74 504.676 3290.22 507.409 3288.4 509.231 3286.57 511.053 3283.84 511.761 3280.2 511.356 3274.93 511.356 3271.79 510.243 3270.78 508.016 3269.77 505.789 3269.26 502.854 3269.26 499.209 3269.66 489.49 3270.07 478.862 3270.48 467.322 3270.88 455.781 3271.08 444.746 3271.08 434.218 3271.08 424.906 3270.88 415.389 3270.48 405.67 3270.07 395.953 3269.66 386.235 3269.26 376.516 3269.26 372.873 3269.57 369.936 3270.17 367.709 3270.78 365.482 3273.51 363.964 3278.37 363.154ZM1539 0C1539 530.47 1804.49 960.5 2131.99 960.5 1804.49 960.5 1539 1390.53 1539 1921 1539 1390.53 1273.5 960.5 946 960.5 1253.03 960.5 1505.57 582.543 1535.94 98.2049Z" fill="#F6D660" fill-rule="evenodd"/></g></svg>