<svg width="2191" height="2191" xmlns="http://www.w3.org/2000/svg" xmlns:xlink="http://www.w3.org/1999/xlink" xml:space="preserve" overflow="hidden"><defs><clipPath id="clip0"><rect x="1104" y="142" width="2191" height="2191"/></clipPath></defs><g clip-path="url(#clip0)" transform="translate(-1104 -142)"><path d="M172 1091.62C114.756 1096.13 57.2443 1096.13 0 1091.62L85.9999 0 172 1091.62Z" fill="#D72638" fill-rule="evenodd" transform="matrix(1 0 0 -1 2114 1238)"/><path d="M2225.64 214.01C2223.07 214.01 2220.86 214.851 2219 216.533 2217.14 218.215 2215.71 220.624 2214.71 223.759 2213.71 226.893 2213.21 230.654 2213.21 235.04 2213.21 239.4 2213.71 243.147 2214.71 246.282 2215.71 249.417 2217.14 251.819 2219 253.487 2220.86 255.155 2223.07 255.99 2225.64 255.99 2228.23 255.99 2230.45 255.155 2232.31 253.487 2234.18 251.819 2235.6 249.417 2236.58 246.282 2237.57 243.147 2238.06 239.4 2238.06 235.04 2238.06 230.654 2237.57 226.893 2236.58 223.759 2235.6 220.624 2234.18 218.215 2232.31 216.533 2230.45 214.851 2228.23 214.01 2225.64 214.01ZM2225.64 204C2230.71 204 2235.06 205.251 2238.69 207.754 2242.32 210.257 2245.11 213.829 2247.07 218.471 2249.02 223.113 2250 228.636 2250 235.04 2250 241.445 2249.03 246.961 2247.09 251.59 2245.14 256.219 2242.35 259.777 2238.71 262.266 2235.07 264.756 2230.71 266 2225.64 266 2220.59 266 2216.26 264.749 2212.63 262.246 2209 259.744 2206.21 256.185 2204.25 251.57 2202.29 246.955 2201.32 241.445 2201.32 235.04 2201.32 228.636 2202.29 223.113 2204.25 218.471 2206.21 213.829 2209 210.257 2212.63 207.754 2216.26 205.251 2220.59 204 2225.64 204ZM2171.73 204C2175.89 204 2179.57 204.767 2182.78 206.301 2185.99 207.834 2188.5 209.988 2190.31 212.759 2192.12 215.531 2193.02 218.774 2193.02 222.487 2193.02 225.178 2192.51 227.667 2191.5 229.955 2190.49 232.242 2188.96 234.523 2186.91 236.796 2184.86 239.07 2182.28 241.566 2179.18 244.284L2167.24 254.9 2167.24 255.061 2193.38 255.061 2193.38 265.072 2150.28 265.072 2150.28 255.99 2172.26 236.897C2174.04 235.283 2175.61 233.782 2176.97 232.397 2178.34 231.011 2179.4 229.578 2180.17 228.098 2180.94 226.618 2181.32 224.976 2181.32 223.173 2181.32 221.289 2180.93 219.655 2180.13 218.269 2179.33 216.883 2178.22 215.813 2176.79 215.06 2175.36 214.306 2173.66 213.93 2171.69 213.93 2169.61 213.93 2167.81 214.374 2166.29 215.262 2164.77 216.15 2163.59 217.428 2162.77 219.096 2161.95 220.765 2161.53 222.77 2161.53 225.111L2150 225.111C2150 220.832 2150.9 217.112 2152.69 213.95 2154.49 210.788 2157.01 208.339 2160.26 206.604 2163.51 204.868 2167.33 204 2171.73 204Z" fill-rule="evenodd"/><path d="M172 1090.63C114.756 1095.13 57.2443 1095.13 0 1090.63L85.9999 0 172 1090.63Z" fill="#7B12EE" fill-rule="evenodd" transform="matrix(-1 1.22465e-16 1.22465e-16 1 2286 1238)"/><path d="M2219.01 2271 2181.43 2271 2181.43 2260.95 2208.36 2260.95 2209.51 2246.51 2209.39 2246.51C2207.96 2248.07 2206.22 2249.26 2204.17 2250.08 2202.12 2250.9 2199.86 2251.31 2197.39 2251.31 2194.7 2251.31 2192.18 2250.81 2189.83 2249.82 2187.47 2248.82 2185.41 2247.41 2183.64 2245.58 2181.88 2243.75 2180.49 2241.6 2179.5 2239.13 2178.5 2236.65 2178 2233.96 2178 2231.06 2178 2226.97 2178.92 2223.34 2180.75 2220.17 2182.59 2216.99 2185.15 2214.51 2188.45 2212.7 2191.75 2210.9 2195.61 2210 2200.02 2210 2204.2 2210 2207.91 2210.8 2211.15 2212.4 2214.39 2214 2216.97 2216.23 2218.87 2219.08 2220.77 2221.93 2221.81 2225.24 2222 2229L2210.35 2229C2210.25 2227.2 2209.73 2225.6 2208.82 2224.2 2207.9 2222.8 2206.67 2221.7 2205.13 2220.89 2203.58 2220.09 2201.85 2219.68 2199.94 2219.68 2197.92 2219.68 2196.13 2220.15 2194.57 2221.09 2193.02 2222.04 2191.81 2223.34 2190.94 2225.01 2190.08 2226.68 2189.65 2228.6 2189.65 2230.78 2189.65 2232.98 2190.08 2234.93 2190.94 2236.61 2191.81 2238.29 2193.01 2239.61 2194.53 2240.56 2196.06 2241.52 2197.83 2241.99 2199.82 2241.99 2202.24 2241.99 2204.35 2241.48 2206.16 2240.46 2207.97 2239.44 2209.23 2238.03 2209.95 2236.22L2221.08 2236.63Z" fill-rule="evenodd"/><path d="M171.753 1091.17C114.591 1095.67 57.162 1095.67 0 1091.17L85.8763 0 171.753 1091.17Z" fill="#FCECC0" fill-rule="evenodd" transform="matrix(0.45399 0.891007 0.891007 -0.45399 2160.99 1160.97)"/><path d="M3120.83 769.877 3126.13 780.285 3072.65 807.535 3067.2 796.839 3110.63 774.71 3110.56 774.566 3096.05 766.227 3105.84 761.234Z" fill-rule="evenodd"/><path d="M171.753 1091.17C114.591 1095.67 57.162 1095.67 0 1091.17L85.8763 0 171.753 1091.17Z" fill="#FCECC0" fill-rule="evenodd" transform="matrix(-0.45399 -0.891007 -0.891007 0.45399 2239.01 1313.99)"/><path d="M1279.17 1705.08 1273.87 1694.67 1327.35 1667.42 1332.8 1678.12 1289.37 1700.25 1289.44 1700.39 1303.95 1708.73 1294.16 1713.72Z" fill-rule="evenodd"/><path d="M171.753 1091.17C114.591 1095.67 57.162 1095.67 0 1091.17L85.8763 0 171.753 1091.17Z" fill="#FCECC0" fill-rule="evenodd" transform="matrix(0.309017 0.951057 0.951057 -0.309017 2173.44 1155.81)"/><path d="M3182.64 919.683 3186.25 930.793 3129.17 949.341 3125.46 937.924 3171.81 922.862 3171.76 922.708 3158.73 912.202 3169.19 908.803Z" fill-rule="evenodd"/><path d="M171.753 1091.17C114.591 1095.67 57.162 1095.67 0 1091.17L85.8763 0 171.753 1091.17Z" fill="#FCECC0" fill-rule="evenodd" transform="matrix(-0.309017 -0.951057 -0.951057 0.309017 2226.56 1319.15)"/><path d="M1217.36 1555.28 1213.75 1544.17 1270.83 1525.62 1274.54 1537.03 1228.19 1552.1 1228.24 1552.25 1241.27 1562.76 1230.81 1566.16Z" fill-rule="evenodd"/><path d="M171.753 1091.17C114.591 1095.67 57.162 1095.67 0 1091.17L85.8763 0 171.753 1091.17Z" fill="#FCECC0" fill-rule="evenodd" transform="matrix(0.156434 0.987688 0.987688 -0.156434 2186.54 1152.66)"/><path d="M3220.26 1077.31 3222.08 1088.85 3162.8 1098.24 3160.92 1086.39 3209.07 1078.76 3209.04 1078.6 3197.82 1066.19 3208.68 1064.47Z" fill-rule="evenodd"/><path d="M171.753 1091.17C114.591 1095.67 57.162 1095.67 0 1091.17L85.8763 0 171.753 1091.17Z" fill="#FCECC0" fill-rule="evenodd" transform="matrix(-0.156434 -0.987688 -0.987688 0.156434 2213.45 1322.3)"/><path d="M1179.74 1397.64 1177.92 1386.11 1237.2 1376.72 1239.08 1388.57 1190.93 1396.2 1190.96 1396.36 1202.18 1408.77 1191.32 1410.49Z" fill-rule="evenodd"/><path d="M171.753 1091.17C114.591 1095.67 57.162 1095.67 0 1091.17L85.8763 0 171.753 1091.17Z" fill="#FCECC0" fill-rule="evenodd" transform="matrix(-0.891007 0.45399 0.45399 0.891007 2276.51 1198.47)"/><path d="M2667.6 2158.31 2657.19 2163.61 2629.94 2110.13 2640.64 2104.68 2662.77 2148.11 2662.91 2148.04 2671.25 2133.53 2676.24 2143.32Z" fill-rule="evenodd"/><path d="M171.753 1091.17C114.591 1095.67 57.162 1095.67 0 1091.17L85.8763 0 171.753 1091.17Z" fill="#FCECC0" fill-rule="evenodd" transform="matrix(0.891007 -0.45399 -0.45399 -0.891007 2123.49 1276.49)"/><path d="M1732.4 316.652 1742.81 311.348 1770.06 364.828 1759.36 370.278 1737.23 326.848 1737.09 326.922 1728.75 341.433 1723.75 331.635Z" fill-rule="evenodd"/><path d="M171.753 1091.17C114.591 1095.67 57.162 1095.67 0 1091.17L85.8763 0 171.753 1091.17Z" fill="#FCECC0" fill-rule="evenodd" transform="matrix(-0.951057 0.309017 0.309017 0.951057 2281.67 1210.92)"/><path d="M2517.8 2220.12 2506.69 2223.73 2488.14 2166.65 2499.56 2162.94 2514.62 2209.29 2514.77 2209.24 2525.28 2196.21 2528.68 2206.67Z" fill-rule="evenodd"/><path d="M171.753 1091.17C114.591 1095.67 57.162 1095.67 0 1091.17L85.8763 0 171.753 1091.17Z" fill="#FCECC0" fill-rule="evenodd" transform="matrix(0.951057 -0.309017 -0.309017 -0.951057 2118.33 1264.04)"/><path d="M1882.2 254.84 1893.31 251.23 1911.86 308.314 1900.44 312.023 1885.38 265.667 1885.23 265.716 1874.72 278.745 1871.32 268.286Z" fill-rule="evenodd"/><path d="M171.753 1091.17C114.591 1095.67 57.162 1095.67 0 1091.17L85.8763 0 171.753 1091.17Z" fill="#FCECC0" fill-rule="evenodd" transform="matrix(-0.987688 0.156434 0.156434 0.987688 2284.82 1224.02)"/><path d="M2360.17 2257.74 2348.63 2259.56 2339.24 2200.28 2351.09 2198.4 2358.72 2246.54 2358.88 2246.52 2371.29 2235.29 2373.01 2246.16Z" fill-rule="evenodd"/><path d="M171.753 1091.17C114.591 1095.67 57.162 1095.67 0 1091.17L85.8763 0 171.753 1091.17Z" fill="#FCECC0" fill-rule="evenodd" transform="matrix(0.987688 -0.156434 -0.156434 -0.987688 2115.18 1250.93)"/><path d="M2039.83 217.223 2051.37 215.396 2060.76 274.679 2048.91 276.556 2041.28 228.414 2041.12 228.439 2028.71 239.664 2026.99 228.802Z" fill-rule="evenodd"/><path d="M171.753 1091.17C114.591 1095.67 57.162 1095.67 0 1091.17L85.8763 0 171.753 1091.17Z" fill="#FCECC0" fill-rule="evenodd" transform="matrix(0.951057 0.309017 0.309017 -0.951057 2118.32 1210.96)"/><path d="M2520.48 255.711 2531.59 259.321 2513.04 316.405 2501.62 312.696 2516.69 266.339 2516.53 266.289 2500.38 270.654 2503.77 260.195Z" fill-rule="evenodd"/><path d="M171.753 1091.17C114.591 1095.67 57.162 1095.67 0 1091.17L85.8763 0 171.753 1091.17Z" fill="#FCECC0" fill-rule="evenodd" transform="matrix(-0.951057 -0.309017 -0.309017 0.951057 2281.68 1264)"/><path d="M1879.52 2219.25 1868.41 2215.64 1886.96 2158.55 1898.38 2162.26 1883.31 2208.62 1883.47 2208.67 1899.63 2204.3 1896.23 2214.76Z" fill-rule="evenodd"/><path d="M171.753 1091.17C114.591 1095.67 57.162 1095.67 0 1091.17L85.8763 0 171.753 1091.17Z" fill="#FCECC0" fill-rule="evenodd" transform="matrix(0.891007 0.45399 0.45399 -0.891007 2123.47 1198.51)"/><path d="M2670.12 317.932 2680.52 323.235 2653.27 376.715 2642.58 371.265 2664.71 327.836 2664.56 327.762 2647.92 329.546 2652.91 319.747Z" fill-rule="evenodd"/><path d="M171.753 1091.17C114.591 1095.67 57.162 1095.67 0 1091.17L85.8763 0 171.753 1091.17Z" fill="#FCECC0" fill-rule="evenodd" transform="matrix(-0.891007 -0.45399 -0.45399 0.891007 2276.53 1276.45)"/><path d="M1729.89 2157.03 1719.48 2151.72 1746.73 2098.24 1757.42 2103.69 1735.29 2147.12 1735.44 2147.2 1752.08 2145.41 1747.09 2155.21Z" fill-rule="evenodd"/><path d="M171.753 1091.17C114.591 1095.67 57.162 1095.67 0 1091.17L85.8763 0 171.753 1091.17Z" fill="#FCECC0" fill-rule="evenodd" transform="matrix(0.809017 0.587785 0.587785 -0.809017 2130.51 1187.02)"/><path d="M2808.18 402.795 2817.63 409.662 2782.35 458.221 2772.64 451.165 2801.29 411.731 2801.16 411.636 2784.44 410.794 2790.9 401.897Z" fill-rule="evenodd"/><path d="M171.753 1091.17C114.591 1095.67 57.162 1095.67 0 1091.17L85.8763 0 171.753 1091.17Z" fill="#FCECC0" fill-rule="evenodd" transform="matrix(-0.809017 -0.587785 -0.587785 0.809017 2269.49 1287.94)"/><path d="M1591.82 2072.16 1582.37 2065.3 1617.65 2016.74 1627.36 2023.79 1598.71 2063.23 1598.84 2063.32 1615.56 2064.16 1609.1 2073.06Z" fill-rule="evenodd"/><path d="M171.753 1091.17C114.591 1095.67 57.162 1095.67 0 1091.17L85.8763 0 171.753 1091.17Z" fill="#FCECC0" fill-rule="evenodd" transform="matrix(-0.309017 0.951057 0.951057 0.309017 2226.52 1155.8)"/><path d="M3181.77 1557.96 3178.16 1569.07 3121.07 1550.52 3124.78 1539.1 3171.14 1554.17 3171.19 1554.01 3166.83 1537.85 3177.29 1541.25Z" fill-rule="evenodd"/><path d="M171.753 1091.17C114.591 1095.67 57.162 1095.67 0 1091.17L85.8763 0 171.753 1091.17Z" fill="#FCECC0" fill-rule="evenodd" transform="matrix(0.309017 -0.951057 -0.951057 -0.309017 2173.48 1319.16)"/><path d="M1218.23 917.001 1221.84 905.891 1278.93 924.439 1275.22 935.855 1228.86 920.793 1228.81 920.947 1233.17 937.105 1222.71 933.706Z" fill-rule="evenodd"/><path d="M171.753 1091.17C114.591 1095.67 57.162 1095.67 0 1091.17L85.8763 0 171.753 1091.17Z" fill="#FCECC0" fill-rule="evenodd" transform="matrix(-0.45399 0.891007 0.891007 0.45399 2238.97 1160.95)"/><path d="M3119.55 1707.59 3114.24 1718 3060.76 1690.75 3066.21 1680.06 3109.64 1702.19 3109.72 1702.04 3107.93 1685.4 3117.73 1690.39Z" fill-rule="evenodd"/><path d="M171.753 1091.17C114.591 1095.67 57.162 1095.67 0 1091.17L85.8763 0 171.753 1091.17Z" fill="#FCECC0" fill-rule="evenodd" transform="matrix(0.45399 -0.891007 -0.891007 -0.45399 2161.03 1314.01)"/><path d="M1280.45 767.364 1285.76 756.955 1339.24 784.205 1333.79 794.901 1290.36 772.772 1290.28 772.916 1292.07 789.558 1282.27 784.565Z" fill-rule="evenodd"/><path d="M171.753 1091.17C114.591 1095.67 57.162 1095.67 0 1091.17L85.8763 0 171.753 1091.17Z" fill="#FCECC0" fill-rule="evenodd" transform="matrix(-0.587785 0.809017 0.809017 0.587785 2250.46 1167.99)"/><path d="M3034.68 1845.66 3027.82 1855.11 2979.26 1819.83 2986.32 1810.11 3025.75 1838.76 3025.84 1838.63 3026.69 1821.92 3035.58 1828.38Z" fill-rule="evenodd"/><path d="M171.753 1091.17C114.591 1095.67 57.162 1095.67 0 1091.17L85.8763 0 171.753 1091.17Z" fill="#FCECC0" fill-rule="evenodd" transform="matrix(0.587785 -0.809017 -0.809017 -0.587785 2149.54 1306.97)"/><path d="M1365.32 629.304 1372.18 619.853 1420.74 655.133 1413.69 664.844 1374.25 636.194 1374.16 636.325 1373.31 653.041 1364.42 646.577Z" fill-rule="evenodd"/><path d="M171.753 1091.17C114.591 1095.67 57.162 1095.67 0 1091.17L85.8763 0 171.753 1091.17Z" fill="#1AB89A" fill-rule="evenodd" transform="matrix(0.987688 0.156434 0.156434 -0.987688 2115.18 1224.07)"/><path d="M2361.63 216.516C2365.66 217.155 2369.13 218.438 2372.03 220.366 2374.93 222.294 2377.07 224.638 2378.44 227.397 2379.81 230.157 2380.24 233.142 2379.73 236.351 2379.21 239.693 2377.72 242.327 2375.28 244.251 2372.84 246.176 2369.9 247.206 2366.45 247.339L2366.42 247.538C2369.15 248.324 2371.39 249.536 2373.15 251.173 2374.9 252.81 2376.14 254.698 2376.86 256.838 2377.58 258.978 2377.75 261.242 2377.37 263.629 2376.83 267.024 2375.39 269.896 2373.05 272.244 2370.71 274.592 2367.72 276.253 2364.08 277.227 2360.45 278.201 2356.42 278.337 2351.99 277.636 2347.19 276.875 2343.25 275.348 2340.19 273.055 2337.13 270.762 2334.96 267.978 2333.68 264.704 2332.41 261.429 2332.05 257.946 2332.61 254.255L2344.46 256.133C2344.13 258.228 2344.28 260.107 2344.9 261.768 2345.52 263.43 2346.56 264.792 2348.02 265.853 2349.48 266.914 2351.29 267.614 2353.44 267.955 2355.51 268.282 2357.39 268.213 2359.08 267.747 2360.77 267.281 2362.16 266.467 2363.24 265.306 2364.32 264.145 2365 262.703 2365.27 260.978 2365.54 259.307 2365.3 257.774 2364.55 256.378 2363.81 254.982 2362.63 253.796 2361.02 252.82 2359.4 251.844 2357.43 251.171 2355.1 250.802L2349.76 249.957 2351.18 241.005 2356.51 241.85C2358.61 242.181 2360.48 242.145 2362.12 241.738 2363.76 241.332 2365.1 240.619 2366.13 239.6 2367.16 238.581 2367.8 237.275 2368.05 235.684 2368.32 234.013 2368.16 232.493 2367.59 231.124 2367.02 229.756 2366.09 228.623 2364.81 227.726 2363.52 226.829 2361.95 226.234 2360.09 225.94 2358.21 225.641 2356.48 225.741 2354.91 226.24 2353.33 226.738 2352.03 227.592 2350.99 228.801 2349.96 230.011 2349.3 231.53 2349.01 233.36L2337.43 231.526C2337.99 227.972 2339.38 224.95 2341.6 222.46 2343.81 219.969 2346.64 218.187 2350.07 217.113 2353.5 216.039 2357.36 215.84 2361.63 216.516Z" fill-rule="evenodd"/><path d="M171.753 1091.17C114.591 1095.67 57.162 1095.67 0 1091.17L85.8763 0 171.753 1091.17Z" fill="#1AB89A" fill-rule="evenodd" transform="matrix(-0.987688 -0.156434 -0.156434 0.987688 2284.82 1250.93)"/><path d="M2038.37 2258.48C2034.34 2257.85 2030.87 2256.56 2027.97 2254.63 2025.07 2252.71 2022.93 2250.36 2021.56 2247.6 2020.19 2244.84 2019.76 2241.86 2020.27 2238.65 2020.8 2235.31 2022.28 2232.67 2024.72 2230.75 2027.16 2228.82 2030.1 2227.79 2033.55 2227.66L2033.58 2227.46C2030.85 2226.68 2028.61 2225.46 2026.86 2223.83 2025.1 2222.19 2023.87 2220.3 2023.14 2218.16 2022.42 2216.02 2022.25 2213.76 2022.63 2211.37 2023.17 2207.98 2024.61 2205.1 2026.95 2202.76 2029.29 2200.41 2032.28 2198.75 2035.92 2197.77 2039.55 2196.8 2043.58 2196.66 2048.01 2197.36 2052.81 2198.12 2056.75 2199.65 2059.81 2201.94 2062.87 2204.24 2065.04 2207.02 2066.32 2210.3 2067.59 2213.57 2067.95 2217.05 2067.39 2220.75L2055.54 2218.87C2055.87 2216.77 2055.73 2214.89 2055.1 2213.23 2054.48 2211.57 2053.44 2210.21 2051.98 2209.15 2050.52 2208.09 2048.71 2207.39 2046.56 2207.05 2044.49 2206.72 2042.61 2206.79 2040.92 2207.25 2039.23 2207.72 2037.84 2208.53 2036.76 2209.69 2035.68 2210.86 2035 2212.3 2034.73 2214.02 2034.47 2215.69 2034.71 2217.23 2035.45 2218.62 2036.19 2220.02 2037.37 2221.2 2038.98 2222.18 2040.6 2223.16 2042.57 2223.83 2044.91 2224.2L2050.24 2225.04 2048.82 2234 2043.49 2233.15C2041.39 2232.82 2039.52 2232.86 2037.88 2233.26 2036.24 2233.67 2034.9 2234.38 2033.87 2235.4 2032.84 2236.42 2032.2 2237.73 2031.95 2239.32 2031.68 2240.99 2031.84 2242.51 2032.41 2243.88 2032.98 2245.24 2033.91 2246.38 2035.19 2247.27 2036.48 2248.17 2038.05 2248.77 2039.91 2249.06 2041.79 2249.36 2043.52 2249.26 2045.09 2248.76 2046.67 2248.26 2047.97 2247.41 2049.01 2246.2 2050.04 2244.99 2050.7 2243.47 2050.99 2241.64L2062.57 2243.47C2062.01 2247.03 2060.62 2250.05 2058.4 2252.54 2056.19 2255.03 2053.36 2256.81 2049.93 2257.89 2046.5 2258.96 2042.64 2259.16 2038.37 2258.48Z" fill-rule="evenodd"/><path d="M171.753 1091.17C114.591 1095.67 57.162 1095.67 0 1091.17L85.8763 0 171.753 1091.17Z" fill="#1AB89A" fill-rule="evenodd" transform="matrix(0.587785 0.809017 0.809017 -0.587785 2149.52 1168.02)"/><path d="M3036.23 629.842C3038.63 633.145 3040.18 636.504 3040.87 639.92 3041.55 643.336 3041.41 646.505 3040.43 649.425 3039.45 652.346 3037.64 654.762 3035.01 656.672 3032.27 658.661 3029.36 659.473 3026.28 659.109 3023.19 658.745 3020.38 657.392 3017.85 655.049L3017.69 655.168C3019.06 657.654 3019.79 660.096 3019.87 662.493 3019.95 664.89 3019.49 667.1 3018.49 669.123 3017.49 671.147 3016.01 672.869 3014.05 674.29 3011.27 676.31 3008.22 677.322 3004.9 677.325 3001.59 677.329 2998.3 676.39 2995.04 674.508 2991.78 672.627 2988.83 669.872 2986.2 666.244 2983.34 662.312 2981.64 658.452 2981.1 654.664 2980.55 650.877 2980.99 647.375 2982.4 644.157 2983.81 640.94 2986.02 638.223 2989.03 636.007L2996.08 645.718C2994.37 646.965 2993.14 648.396 2992.4 650.01 2991.67 651.624 2991.44 653.323 2991.73 655.108 2992.01 656.893 2992.79 658.665 2994.07 660.425 2995.3 662.12 2996.68 663.401 2998.21 664.267 2999.73 665.133 3001.29 665.539 3002.87 665.482 3004.46 665.425 3005.96 664.884 3007.37 663.858 3008.74 662.864 3009.65 661.61 3010.11 660.096 3010.57 658.584 3010.58 656.911 3010.13 655.081 3009.68 653.251 3008.76 651.379 3007.37 649.467L3004.2 645.1 3011.53 639.773 3014.7 644.14C3015.95 645.856 3017.3 647.151 3018.74 648.025 3020.19 648.898 3021.64 649.339 3023.09 649.348 3024.54 649.356 3025.92 648.887 3027.22 647.94 3028.59 646.945 3029.56 645.762 3030.12 644.39 3030.68 643.018 3030.83 641.56 3030.55 640.017 3030.28 638.474 3029.59 636.942 3028.48 635.422 3027.36 633.879 3026.07 632.727 3024.6 631.966 3023.14 631.206 3021.61 630.887 3020.03 631.01 3018.44 631.134 3016.9 631.741 3015.4 632.83L3008.51 623.346C3011.42 621.231 3014.54 620.076 3017.87 619.882 3021.2 619.688 3024.45 620.425 3027.64 622.094 3030.83 623.761 3033.69 626.344 3036.23 629.842Z" fill-rule="evenodd"/><path d="M171.753 1091.17C114.591 1095.67 57.162 1095.67 0 1091.17L85.8763 0 171.753 1091.17Z" fill="#1AB89A" fill-rule="evenodd" transform="matrix(-0.587785 -0.809017 -0.809017 0.587785 2250.48 1306.98)"/><path d="M1363.77 1845.16C1361.37 1841.86 1359.82 1838.5 1359.14 1835.08 1358.45 1831.66 1358.59 1828.5 1359.57 1825.57 1360.56 1822.65 1362.36 1820.24 1364.99 1818.33 1367.73 1816.34 1370.64 1815.53 1373.72 1815.89 1376.81 1816.25 1379.62 1817.61 1382.15 1819.95L1382.31 1819.83C1380.94 1817.35 1380.21 1814.9 1380.13 1812.51 1380.05 1810.11 1380.51 1807.9 1381.51 1805.88 1382.51 1803.85 1383.99 1802.13 1385.95 1800.71 1388.73 1798.69 1391.78 1797.68 1395.1 1797.68 1398.41 1797.67 1401.7 1798.61 1404.96 1800.49 1408.22 1802.37 1411.17 1805.13 1413.8 1808.76 1416.66 1812.69 1418.36 1816.55 1418.9 1820.34 1419.45 1824.12 1419.01 1827.63 1417.6 1830.84 1416.19 1834.06 1413.98 1836.78 1410.97 1838.99L1403.92 1829.28C1405.64 1828.04 1406.86 1826.6 1407.6 1824.99 1408.33 1823.38 1408.56 1821.68 1408.28 1819.89 1407.99 1818.11 1407.21 1816.34 1405.93 1814.58 1404.7 1812.88 1403.32 1811.6 1401.79 1810.73 1400.27 1809.87 1398.71 1809.46 1397.13 1809.52 1395.54 1809.57 1394.04 1810.12 1392.63 1811.14 1391.26 1812.14 1390.35 1813.39 1389.89 1814.9 1389.43 1816.42 1389.42 1818.09 1389.87 1819.92 1390.32 1821.75 1391.24 1823.62 1392.63 1825.53L1395.8 1829.9 1388.47 1835.23 1385.3 1830.86C1384.05 1829.14 1382.7 1827.85 1381.26 1826.98 1379.81 1826.1 1378.36 1825.66 1376.91 1825.65 1375.46 1825.64 1374.08 1826.11 1372.78 1827.06 1371.41 1828.06 1370.44 1829.24 1369.88 1830.61 1369.32 1831.98 1369.17 1833.44 1369.45 1834.98 1369.72 1836.53 1370.41 1838.06 1371.52 1839.58 1372.64 1841.12 1373.93 1842.27 1375.4 1843.03 1376.86 1843.79 1378.39 1844.11 1379.97 1843.99 1381.56 1843.87 1383.1 1843.26 1384.6 1842.17L1391.49 1851.65C1388.58 1853.77 1385.46 1854.92 1382.13 1855.12 1378.81 1855.31 1375.55 1854.58 1372.36 1852.91 1369.17 1851.24 1366.31 1848.66 1363.77 1845.16Z" fill-rule="evenodd"/><path d="M171.753 1091.17C114.591 1095.67 57.162 1095.67 0 1091.17L85.8763 0 171.753 1091.17Z" fill="#1AB89A" fill-rule="evenodd" transform="matrix(-0.809017 0.587785 0.587785 0.809017 2269.48 1187.02)"/><path d="M2807.66 2073.73C2804.36 2076.13 2801 2077.68 2797.58 2078.37 2794.16 2079.05 2791 2078.91 2788.07 2077.93 2785.15 2076.95 2782.74 2075.14 2780.83 2072.51 2778.84 2069.77 2778.03 2066.86 2778.39 2063.78 2778.75 2060.69 2780.11 2057.88 2782.45 2055.35L2782.33 2055.19C2779.85 2056.56 2777.4 2057.29 2775.01 2057.37 2772.61 2057.45 2770.4 2056.99 2768.38 2055.99 2766.35 2054.99 2764.63 2053.51 2763.21 2051.55 2761.19 2048.77 2760.18 2045.72 2760.18 2042.4 2760.17 2039.09 2761.11 2035.8 2762.99 2032.54 2764.87 2029.28 2767.63 2026.33 2771.26 2023.7 2775.19 2020.84 2779.05 2019.14 2782.84 2018.6 2786.62 2018.05 2790.13 2018.49 2793.34 2019.9 2796.56 2021.31 2799.28 2023.52 2801.49 2026.53L2791.78 2033.58C2790.53 2031.87 2789.1 2030.64 2787.49 2029.9 2785.88 2029.17 2784.18 2028.94 2782.39 2029.23 2780.61 2029.51 2778.83 2030.29 2777.07 2031.57 2775.38 2032.8 2774.1 2034.18 2773.23 2035.71 2772.37 2037.23 2771.96 2038.79 2772.02 2040.37 2772.07 2041.96 2772.62 2043.46 2773.64 2044.87 2774.64 2046.24 2775.89 2047.15 2777.4 2047.61 2778.92 2048.07 2780.59 2048.08 2782.42 2047.63 2784.25 2047.18 2786.12 2046.26 2788.03 2044.87L2792.4 2041.7 2797.73 2049.03 2793.36 2052.2C2791.64 2053.45 2790.35 2054.8 2789.48 2056.25 2788.6 2057.69 2788.16 2059.14 2788.15 2060.59 2788.14 2062.04 2788.61 2063.42 2789.56 2064.72 2790.55 2066.09 2791.74 2067.06 2793.11 2067.62 2794.48 2068.18 2795.94 2068.33 2797.48 2068.05 2799.03 2067.78 2800.56 2067.09 2802.08 2065.98 2803.62 2064.86 2804.77 2063.57 2805.53 2062.1 2806.29 2060.64 2806.61 2059.11 2806.49 2057.53 2806.37 2055.94 2805.76 2054.4 2804.67 2052.9L2814.15 2046.01C2816.27 2048.92 2817.42 2052.04 2817.62 2055.37 2817.81 2058.7 2817.07 2061.95 2815.41 2065.14 2813.74 2068.33 2811.16 2071.19 2807.66 2073.73Z" fill-rule="evenodd"/><path d="M171.753 1091.17C114.591 1095.67 57.162 1095.67 0 1091.17L85.8763 0 171.753 1091.17Z" fill="#1AB89A" fill-rule="evenodd" transform="matrix(0.809017 -0.587785 -0.587785 -0.809017 2130.52 1287.98)"/><path d="M1592.34 401.268C1595.64 398.869 1599 397.325 1602.42 396.635 1605.84 395.945 1609 396.092 1611.93 397.073 1614.85 398.055 1617.26 399.86 1619.17 402.489 1621.16 405.227 1621.97 408.139 1621.61 411.224 1621.25 414.31 1619.89 417.119 1617.55 419.651L1617.67 419.814C1620.15 418.439 1622.6 417.711 1624.99 417.629 1627.39 417.547 1629.6 418.008 1631.62 419.011 1633.65 420.014 1635.37 421.493 1636.79 423.449 1638.81 426.23 1639.82 429.279 1639.83 432.596 1639.83 435.913 1638.89 439.201 1637.01 442.46 1635.13 445.719 1632.37 448.666 1628.74 451.302 1624.81 454.159 1620.95 455.86 1617.16 456.404 1613.38 456.948 1609.87 456.514 1606.66 455.101 1603.44 453.687 1600.72 451.479 1598.51 448.474L1608.22 441.418C1609.47 443.135 1610.9 444.361 1612.51 445.097 1614.12 445.833 1615.82 446.059 1617.61 445.775 1619.39 445.491 1621.17 444.709 1622.93 443.43 1624.62 442.199 1625.9 440.821 1626.77 439.295 1627.63 437.769 1628.04 436.213 1627.98 434.628 1627.93 433.042 1627.38 431.543 1626.36 430.131 1625.36 428.762 1624.11 427.848 1622.6 427.387 1621.08 426.926 1619.41 426.921 1617.58 427.371 1615.75 427.821 1613.88 428.741 1611.97 430.13L1607.6 433.303 1602.27 425.97 1606.64 422.797C1608.36 421.55 1609.65 420.203 1610.52 418.755 1611.4 417.307 1611.84 415.858 1611.85 414.408 1611.86 412.958 1611.39 411.581 1610.44 410.277 1609.45 408.909 1608.26 407.943 1606.89 407.379 1605.52 406.816 1604.06 406.671 1602.52 406.946 1600.97 407.221 1599.44 407.911 1597.92 409.016 1596.38 410.137 1595.23 411.43 1594.47 412.895 1593.71 414.361 1593.39 415.887 1593.51 417.474 1593.63 419.06 1594.24 420.603 1595.33 422.102L1585.85 428.992C1583.73 426.081 1582.58 422.961 1582.38 419.633 1582.19 416.305 1582.93 413.048 1584.59 409.861 1586.26 406.674 1588.84 403.809 1592.34 401.268Z" fill-rule="evenodd"/><path d="M171.753 1091.17C114.591 1095.67 57.162 1095.67 0 1091.17L85.8763 0 171.753 1091.17Z" fill="#1AB89A" fill-rule="evenodd" transform="matrix(-0.156434 0.987688 0.987688 0.156434 2213.43 1152.68)"/><path d="M3220.98 1399.13C3220.35 1403.16 3219.06 1406.63 3217.13 1409.53 3215.21 1412.43 3212.86 1414.57 3210.1 1415.94 3207.34 1417.31 3204.36 1417.74 3201.15 1417.23 3197.81 1416.7 3195.17 1415.22 3193.25 1412.78 3191.32 1410.34 3190.29 1407.4 3190.16 1403.95L3189.96 1403.92C3189.18 1406.65 3187.96 1408.89 3186.33 1410.65 3184.69 1412.4 3182.8 1413.63 3180.66 1414.36 3178.52 1415.08 3176.26 1415.25 3173.87 1414.87 3170.48 1414.33 3167.6 1412.89 3165.26 1410.55 3162.91 1408.21 3161.25 1405.22 3160.27 1401.58 3159.3 1397.95 3159.16 1393.92 3159.86 1389.49 3160.63 1384.69 3162.15 1380.75 3164.45 1377.69 3166.74 1374.63 3169.52 1372.46 3172.8 1371.18 3176.07 1369.91 3179.55 1369.55 3183.25 1370.11L3181.37 1381.96C3179.27 1381.63 3177.39 1381.77 3175.73 1382.4 3174.07 1383.02 3172.71 1384.06 3171.65 1385.52 3170.59 1386.98 3169.89 1388.79 3169.55 1390.94 3169.22 1393.01 3169.29 1394.89 3169.75 1396.58 3170.22 1398.27 3171.03 1399.66 3172.19 1400.74 3173.36 1401.82 3174.8 1402.5 3176.52 1402.77 3178.19 1403.03 3179.73 1402.8 3181.12 1402.05 3182.52 1401.31 3183.7 1400.13 3184.68 1398.52 3185.66 1396.9 3186.33 1394.93 3186.7 1392.59L3187.54 1387.26 3196.5 1388.68 3195.65 1394.01C3195.32 1396.11 3195.36 1397.98 3195.76 1399.62 3196.17 1401.26 3196.88 1402.6 3197.9 1403.63 3198.92 1404.66 3200.23 1405.3 3201.82 1405.55 3203.49 1405.82 3205.01 1405.66 3206.38 1405.09 3207.74 1404.52 3208.88 1403.59 3209.77 1402.31 3210.67 1401.02 3211.27 1399.45 3211.56 1397.59 3211.86 1395.71 3211.76 1393.98 3211.26 1392.41 3210.76 1390.83 3209.91 1389.53 3208.7 1388.49 3207.49 1387.46 3205.97 1386.8 3204.14 1386.51L3205.97 1374.93C3209.53 1375.49 3212.55 1376.88 3215.04 1379.1 3217.53 1381.31 3219.31 1384.14 3220.39 1387.57 3221.46 1391 3221.66 1394.86 3220.98 1399.13Z" fill-rule="evenodd"/><path d="M171.753 1091.17C114.591 1095.67 57.162 1095.67 0 1091.17L85.8763 0 171.753 1091.17Z" fill="#1AB89A" fill-rule="evenodd" transform="matrix(0.156434 -0.987688 -0.987688 -0.156434 2186.57 1322.32)"/><path d="M1179.02 1075.87C1179.65 1071.84 1180.94 1068.37 1182.87 1065.47 1184.79 1062.57 1187.14 1060.43 1189.9 1059.06 1192.66 1057.69 1195.64 1057.26 1198.85 1057.77 1202.19 1058.3 1204.83 1059.78 1206.75 1062.22 1208.68 1064.66 1209.71 1067.6 1209.84 1071.05L1210.04 1071.08C1210.82 1068.35 1212.04 1066.11 1213.67 1064.36 1215.31 1062.6 1217.2 1061.37 1219.34 1060.64 1221.48 1059.92 1223.74 1059.75 1226.13 1060.13 1229.52 1060.67 1232.4 1062.11 1234.74 1064.45 1237.09 1066.79 1238.75 1069.78 1239.73 1073.42 1240.7 1077.05 1240.84 1081.08 1240.14 1085.51 1239.38 1090.31 1237.85 1094.25 1235.56 1097.31 1233.26 1100.37 1230.48 1102.54 1227.2 1103.82 1223.93 1105.09 1220.45 1105.45 1216.75 1104.89L1218.63 1093.04C1220.73 1093.37 1222.61 1093.23 1224.27 1092.61 1225.93 1091.98 1227.29 1090.94 1228.35 1089.48 1229.41 1088.02 1230.11 1086.21 1230.45 1084.06 1230.78 1081.99 1230.71 1080.11 1230.25 1078.42 1229.78 1076.73 1228.97 1075.34 1227.81 1074.26 1226.64 1073.18 1225.2 1072.5 1223.48 1072.23 1221.81 1071.97 1220.27 1072.21 1218.88 1072.95 1217.48 1073.69 1216.3 1074.87 1215.32 1076.48 1214.34 1078.1 1213.67 1080.07 1213.3 1082.41L1212.46 1087.74 1203.5 1086.32 1204.35 1080.99C1204.68 1078.89 1204.64 1077.02 1204.24 1075.38 1203.83 1073.74 1203.12 1072.4 1202.1 1071.37 1201.08 1070.34 1199.78 1069.7 1198.18 1069.45 1196.51 1069.18 1194.99 1069.34 1193.62 1069.91 1192.26 1070.48 1191.12 1071.41 1190.23 1072.69 1189.33 1073.98 1188.73 1075.55 1188.44 1077.41 1188.14 1079.29 1188.24 1081.02 1188.74 1082.59 1189.24 1084.17 1190.09 1085.47 1191.3 1086.51 1192.51 1087.54 1194.03 1088.2 1195.86 1088.49L1194.03 1100.07C1190.47 1099.51 1187.45 1098.12 1184.96 1095.9 1182.47 1093.69 1180.69 1090.86 1179.61 1087.43 1178.54 1084 1178.34 1080.14 1179.02 1075.87Z" fill-rule="evenodd"/><path d="M171 1091.62C114.089 1096.13 56.9116 1096.13 0 1091.62L85.5001 0 171 1091.62Z" fill="#FFBC25" fill-rule="evenodd" transform="matrix(6.12323e-17 1 1 -6.12323e-17 2200 1152)"/><path d="M3223.99 1254.92C3223.99 1252.39 3223.15 1250.2 3221.47 1248.36 3219.78 1246.53 3217.38 1245.11 3214.24 1244.13 3211.11 1243.14 3207.35 1242.65 3202.96 1242.65 3198.6 1242.65 3194.85 1243.14 3191.72 1244.13 3188.58 1245.11 3186.18 1246.53 3184.51 1248.36 3182.84 1250.2 3182.01 1252.39 3182.01 1254.92 3182.01 1257.48 3182.84 1259.68 3184.51 1261.52 3186.18 1263.36 3188.58 1264.77 3191.72 1265.74 3194.85 1266.72 3198.6 1267.2 3202.96 1267.2 3207.35 1267.2 3211.11 1266.72 3214.24 1265.74 3217.38 1264.77 3219.78 1263.36 3221.47 1261.52 3223.15 1259.68 3223.99 1257.48 3223.99 1254.92ZM3233.07 1210.4 3233.07 1222 3172.93 1222 3172.93 1210.08 3221.77 1210.08 3221.77 1209.92 3212.61 1196 3223.63 1196ZM3234 1254.92C3234 1259.94 3232.75 1264.24 3230.25 1267.82 3227.74 1271.41 3224.17 1274.17 3219.53 1276.1 3214.89 1278.03 3209.36 1279 3202.96 1279 3196.55 1279 3191.04 1278.04 3186.41 1276.12 3181.78 1274.2 3178.22 1271.44 3175.73 1267.84 3173.24 1264.24 3172 1259.94 3172 1254.92 3172 1249.94 3173.25 1245.65 3175.75 1242.07 3178.26 1238.48 3181.82 1235.72 3186.43 1233.79 3191.05 1231.85 3196.55 1230.89 3202.96 1230.89 3209.36 1230.89 3214.89 1231.85 3219.53 1233.79 3224.17 1235.72 3227.74 1238.48 3230.25 1242.07 3232.75 1245.65 3234 1249.94 3234 1254.92Z" fill-rule="evenodd"/><path d="M171 1091.62C114.089 1096.13 56.9116 1096.13 0 1091.62L85.5001 0 171 1091.62Z" fill="#FFBC25" fill-rule="evenodd" transform="matrix(-1.83697e-16 -1 -1 1.83697e-16 2200 1323)"/><path d="M1176.01 1220.08C1176.01 1222.61 1176.85 1224.8 1178.53 1226.64 1180.22 1228.47 1182.62 1229.89 1185.76 1230.87 1188.89 1231.86 1192.65 1232.35 1197.04 1232.35 1201.4 1232.35 1205.15 1231.86 1208.28 1230.87 1211.42 1229.89 1213.82 1228.47 1215.49 1226.64 1217.16 1224.8 1217.99 1222.61 1217.99 1220.08 1217.99 1217.52 1217.16 1215.32 1215.49 1213.48 1213.82 1211.64 1211.42 1210.23 1208.28 1209.26 1205.15 1208.28 1201.4 1207.8 1197.04 1207.8 1192.65 1207.8 1188.89 1208.28 1185.76 1209.26 1182.62 1210.23 1180.22 1211.64 1178.53 1213.48 1176.85 1215.32 1176.01 1217.52 1176.01 1220.08ZM1166.93 1264.6 1166.93 1253 1227.07 1253 1227.07 1264.92 1178.23 1264.92 1178.23 1265.08 1187.39 1279 1176.37 1279ZM1166 1220.08C1166 1215.06 1167.25 1210.76 1169.75 1207.18 1172.26 1203.59 1175.83 1200.83 1180.47 1198.9 1185.11 1196.97 1190.64 1196 1197.04 1196 1203.45 1196 1208.96 1196.96 1213.59 1198.88 1218.22 1200.8 1221.78 1203.56 1224.27 1207.16 1226.76 1210.76 1228 1215.06 1228 1220.08 1228 1225.06 1226.75 1229.35 1224.25 1232.93 1221.74 1236.52 1218.18 1239.28 1213.57 1241.21 1208.95 1243.15 1203.45 1244.11 1197.04 1244.11 1190.64 1244.11 1185.11 1243.15 1180.47 1241.21 1175.83 1239.28 1172.26 1236.52 1169.75 1232.93 1167.25 1229.35 1166 1225.06 1166 1220.08Z" fill-rule="evenodd"/><path d="M171.753 1091.17C114.591 1095.67 57.162 1095.67 0 1091.17L85.8763 0 171.753 1091.17Z" fill="#7B12EE" fill-rule="evenodd" transform="matrix(0.707107 0.707107 0.707107 -0.707107 2139.26 1176.79)"/><path d="M2917.01 493.349 2943.84 520.181 2936.75 527.274 2917.52 508.047 2906.49 517.418 2906.58 517.504C2908.71 517.428 2910.79 517.831 2912.83 518.714 2914.87 519.597 2916.78 520.922 2918.54 522.688 2920.46 524.606 2921.91 526.756 2922.89 529.14 2923.87 531.523 2924.34 533.992 2924.31 536.546 2924.28 539.1 2923.75 541.606 2922.72 544.065 2921.68 546.524 2920.14 548.78 2918.09 550.831 2915.2 553.717 2911.98 555.625 2908.43 556.556 2904.88 557.486 2901.29 557.41 2897.66 556.328 2894.04 555.246 2890.65 553.128 2887.5 549.976 2884.51 546.995 2882.43 543.781 2881.24 540.334 2880.06 536.887 2879.79 533.479 2880.45 530.108 2881.1 526.737 2882.69 523.656 2885.22 520.865L2893.53 529.182C2892.34 530.531 2891.57 532.026 2891.24 533.669 2890.91 535.311 2891.01 536.968 2891.54 538.639 2892.07 540.31 2893.02 541.829 2894.39 543.197 2895.83 544.64 2897.44 545.585 2899.22 546.031 2900.99 546.477 2902.78 546.42 2904.57 545.86 2906.37 545.3 2908.03 544.25 2909.57 542.712 2911.13 541.155 2912.19 539.475 2912.76 537.671 2913.33 535.867 2913.41 534.081 2912.99 532.316 2912.57 530.55 2911.65 528.954 2910.23 527.53 2908.5 525.802 2906.63 524.653 2904.61 524.084 2902.6 523.514 2900.7 523.609 2898.92 524.368L2891.26 516.136Z" fill-rule="evenodd"/><path d="M171.753 1091.17C114.591 1095.67 57.162 1095.67 0 1091.17L85.8763 0 171.753 1091.17Z" fill="#7B12EE" fill-rule="evenodd" transform="matrix(-0.707107 -0.707107 -0.707107 0.707107 2260.74 1298.21)"/><path d="M1482.99 1981.65 1456.16 1954.82 1463.26 1947.73 1482.48 1966.95 1493.51 1957.58 1493.42 1957.5C1491.29 1957.57 1489.21 1957.17 1487.17 1956.29 1485.13 1955.4 1483.22 1954.08 1481.46 1952.31 1479.54 1950.39 1478.09 1948.24 1477.11 1945.86 1476.13 1943.48 1475.66 1941.01 1475.69 1938.45 1475.72 1935.9 1476.25 1933.39 1477.28 1930.93 1478.32 1928.48 1479.86 1926.22 1481.91 1924.17 1484.8 1921.28 1488.02 1919.37 1491.57 1918.44 1495.12 1917.51 1498.71 1917.59 1502.34 1918.67 1505.96 1919.75 1509.35 1921.87 1512.5 1925.02 1515.49 1928.01 1517.57 1931.22 1518.76 1934.67 1519.94 1938.11 1520.21 1941.52 1519.55 1944.89 1518.9 1948.26 1517.31 1951.34 1514.78 1954.14L1506.47 1945.82C1507.66 1944.47 1508.43 1942.97 1508.76 1941.33 1509.09 1939.69 1508.99 1938.03 1508.46 1936.36 1507.93 1934.69 1506.98 1933.17 1505.61 1931.8 1504.17 1930.36 1502.56 1929.42 1500.78 1928.97 1499.01 1928.52 1497.22 1928.58 1495.43 1929.14 1493.63 1929.7 1491.97 1930.75 1490.43 1932.29 1488.87 1933.84 1487.81 1935.53 1487.24 1937.33 1486.67 1939.13 1486.59 1940.92 1487.01 1942.68 1487.43 1944.45 1488.35 1946.05 1489.77 1947.47 1491.5 1949.2 1493.37 1950.35 1495.39 1950.92 1497.4 1951.49 1499.3 1951.39 1501.08 1950.63L1508.74 1958.86Z" fill-rule="evenodd"/><path d="M171.753 1091.17C114.591 1095.67 57.162 1095.67 0 1091.17L85.8763 0 171.753 1091.17Z" fill="#7B12EE" fill-rule="evenodd" transform="matrix(0.707107 -0.707107 -0.707107 -0.707107 2139.29 1298.24)"/><path d="M1455.85 520.495 1482.68 493.663 1489.77 500.755 1470.55 519.982 1479.92 531.006 1480 530.92C1479.93 528.793 1480.33 526.709 1481.21 524.668 1482.1 522.627 1483.42 520.723 1485.19 518.957 1487.11 517.039 1489.26 515.591 1491.64 514.613 1494.02 513.635 1496.49 513.16 1499.05 513.189 1501.6 513.217 1504.11 513.749 1506.57 514.784 1509.02 515.819 1511.28 517.362 1513.33 519.412 1516.22 522.299 1518.13 525.518 1519.06 529.069 1519.99 532.62 1519.91 536.209 1518.83 539.836 1517.75 543.463 1515.63 546.853 1512.48 550.005 1509.5 552.986 1506.28 555.07 1502.83 556.257 1499.39 557.444 1495.98 557.71 1492.61 557.055 1489.24 556.4 1486.16 554.809 1483.36 552.284L1491.68 543.966C1493.03 545.162 1494.53 545.927 1496.17 546.259 1497.81 546.591 1499.47 546.492 1501.14 545.96 1502.81 545.428 1504.33 544.479 1505.7 543.112 1507.14 541.669 1508.08 540.059 1508.53 538.283 1508.98 536.508 1508.92 534.723 1508.36 532.928 1507.8 531.134 1506.75 529.467 1505.21 527.929 1503.66 526.372 1501.98 525.309 1500.17 524.739 1498.37 524.169 1496.58 524.093 1494.82 524.511 1493.05 524.929 1491.45 525.85 1490.03 527.274 1488.3 529.002 1487.15 530.873 1486.58 532.886 1486.01 534.899 1486.11 536.797 1486.87 538.583L1478.64 546.245Z" fill-rule="evenodd"/><path d="M171.753 1091.17C114.591 1095.67 57.162 1095.67 0 1091.17L85.8763 0 171.753 1091.17Z" fill="#7B12EE" fill-rule="evenodd" transform="matrix(-0.707107 0.707107 0.707107 0.707107 2260.71 1176.76)"/><path d="M2944.15 1954.51 2917.32 1981.34 2910.23 1974.25 2929.45 1955.02 2920.08 1944 2920 1944.08C2920.07 1946.21 2919.67 1948.29 2918.79 1950.33 2917.9 1952.37 2916.58 1954.28 2914.81 1956.04 2912.89 1957.96 2910.74 1959.41 2908.36 1960.39 2905.98 1961.37 2903.51 1961.84 2900.95 1961.81 2898.4 1961.78 2895.89 1961.25 2893.43 1960.22 2890.98 1959.18 2888.72 1957.64 2886.67 1955.59 2883.78 1952.7 2881.87 1949.48 2880.94 1945.93 2880.01 1942.38 2880.09 1938.79 2881.17 1935.17 2882.25 1931.54 2884.37 1928.15 2887.52 1925 2890.51 1922.01 2893.72 1919.93 2897.17 1918.74 2900.61 1917.56 2904.02 1917.29 2907.39 1917.95 2910.76 1918.6 2913.84 1920.19 2916.64 1922.72L2908.32 1931.03C2906.97 1929.84 2905.47 1929.07 2903.83 1928.74 2902.19 1928.41 2900.53 1928.51 2898.86 1929.04 2897.19 1929.57 2895.67 1930.52 2894.3 1931.89 2892.86 1933.33 2891.92 1934.94 2891.47 1936.72 2891.02 1938.49 2891.08 1940.28 2891.64 1942.07 2892.2 1943.87 2893.25 1945.53 2894.79 1947.07 2896.34 1948.63 2898.03 1949.69 2899.83 1950.26 2901.63 1950.83 2903.42 1950.91 2905.18 1950.49 2906.95 1950.07 2908.55 1949.15 2909.97 1947.73 2911.7 1946 2912.85 1944.13 2913.42 1942.12 2913.99 1940.1 2913.89 1938.2 2913.13 1936.42L2921.36 1928.76Z" fill-rule="evenodd"/><path d="M1956 1237.5C1956 1102.47 2065.24 993 2200 993 2334.76 993 2444 1102.47 2444 1237.5 2444 1372.53 2334.76 1482 2200 1482 2065.24 1482 1956 1372.53 1956 1237.5Z" fill="#FFFFFF" fill-rule="evenodd"/><path d="M2084.68 1252.66C2080.85 1252.66 2077.86 1254.14 2075.7 1257.09 2073.54 1260.04 2072.46 1264.17 2072.46 1269.49 2072.46 1273.05 2072.96 1276.12 2073.97 1278.7 2074.96 1281.28 2076.39 1283.28 2078.24 1284.71 2080.1 1286.13 2082.3 1286.85 2084.86 1286.85 2088.77 1286.85 2091.84 1285.36 2094.05 1282.39 2096.26 1279.41 2097.38 1275.27 2097.38 1269.96 2097.38 1264.65 2096.23 1260.44 2093.96 1257.33 2091.69 1254.22 2088.59 1252.66 2084.68 1252.66ZM2025.68 1252.66 2025.68 1268.36 2029.51 1268.36C2031.75 1268.36 2033.47 1267.66 2034.67 1266.28 2035.86 1264.89 2036.46 1262.87 2036.46 1260.21 2036.46 1255.18 2034.14 1252.66 2029.51 1252.66ZM2170.72 1247.37 2193.41 1247.37C2193.81 1247.37 2194.01 1247.57 2194.01 1247.97L2194.01 1249.45C2194.01 1249.85 2193.83 1250.11 2193.47 1250.22L2189.34 1251.53C2188.78 1251.73 2188.4 1251.95 2188.17 1252.19 2187.95 1252.42 2187.84 1252.94 2187.84 1253.73L2187.84 1284.76C2187.84 1285.56 2188 1286.1 2188.32 1286.4 2188.64 1286.7 2189.12 1286.85 2189.76 1286.85L2199.94 1286.85C2200.74 1286.85 2201.37 1286.71 2201.82 1286.43 2202.28 1286.15 2202.67 1285.78 2202.99 1285.3L2206.46 1280.25C2206.7 1279.93 2207.02 1279.83 2207.42 1279.95L2209.46 1280.48C2209.86 1280.6 2210.03 1280.86 2210 1281.26L2208.62 1290.23C2208.54 1290.87 2208.41 1291.34 2208.24 1291.66 2208.05 1291.98 2207.68 1292.18 2207.12 1292.26 2206.56 1292.34 2205.71 1292.34 2204.55 1292.26L2201.14 1292.08 2170.72 1292.08C2170.32 1292.08 2170.12 1291.88 2170.12 1291.48L2170.12 1290C2170.12 1289.6 2170.32 1289.34 2170.72 1289.22L2174.55 1288.04C2175.27 1287.76 2175.72 1287.48 2175.9 1287.2 2176.08 1286.93 2176.17 1286.49 2176.17 1285.9L2176.17 1253.55C2176.17 1252.96 2176.08 1252.52 2175.9 1252.25 2175.72 1251.97 2175.27 1251.71 2174.55 1251.47L2170.72 1250.22C2170.32 1250.11 2170.12 1249.85 2170.12 1249.45L2170.12 1247.97C2170.12 1247.57 2170.32 1247.37 2170.72 1247.37ZM2115.65 1247.37 2138.35 1247.37C2138.75 1247.37 2138.95 1247.57 2138.95 1247.97L2138.95 1249.45C2138.95 1249.85 2138.77 1250.11 2138.41 1250.22L2134.21 1251.53C2133.66 1251.73 2133.28 1251.95 2133.08 1252.19 2132.88 1252.42 2132.78 1252.94 2132.78 1253.73L2132.78 1277.99C2132.78 1280.72 2133.64 1282.88 2135.36 1284.47 2137.07 1286.05 2139.43 1286.85 2142.42 1286.85 2145.53 1286.85 2147.97 1285.93 2149.73 1284.11 2151.48 1282.29 2152.35 1279.75 2152.35 1276.5L2152.35 1253.55C2152.35 1252.96 2152.27 1252.52 2152.09 1252.25 2151.91 1251.97 2151.44 1251.71 2150.69 1251.47L2146.79 1250.22C2146.43 1250.11 2146.25 1249.85 2146.25 1249.45L2146.25 1247.97C2146.25 1247.57 2146.45 1247.37 2146.85 1247.37L2166.01 1247.37C2166.41 1247.37 2166.61 1247.57 2166.61 1247.97L2166.61 1249.45C2166.61 1249.85 2166.43 1250.11 2166.07 1250.22L2161.94 1251.53C2161.38 1251.73 2161 1251.95 2160.81 1252.19 2160.6 1252.42 2160.5 1252.94 2160.5 1253.73L2160.5 1275.31C2160.5 1280.94 2158.76 1285.29 2155.29 1288.36 2151.82 1291.43 2146.89 1292.97 2140.5 1292.97 2134.27 1292.97 2129.49 1291.57 2126.14 1288.78 2122.78 1285.98 2121.1 1282.01 2121.1 1276.86L2121.1 1253.55C2121.1 1252.96 2121.01 1252.52 2120.84 1252.25 2120.65 1251.97 2120.18 1251.71 2119.43 1251.47L2115.6 1250.22C2115.23 1250.11 2115.06 1249.85 2115.06 1249.45L2115.06 1247.97C2115.06 1247.57 2115.25 1247.37 2115.65 1247.37ZM2008.55 1247.37 2029.51 1247.37C2041.81 1247.37 2047.96 1251.65 2047.96 1260.21 2047.96 1266.91 2044.36 1271.11 2037.18 1272.82 2038.26 1273.37 2039.23 1274.06 2040.11 1274.9 2040.99 1275.73 2041.89 1276.7 2042.81 1277.81L2049.34 1286.01C2049.81 1286.65 2050.29 1287.13 2050.77 1287.47 2051.25 1287.81 2051.79 1288.07 2052.38 1288.27L2054.66 1289.16C2055.02 1289.32 2055.2 1289.6 2055.2 1290L2055.2 1291.48C2055.2 1291.88 2055 1292.08 2054.61 1292.08L2042.63 1292.08C2041.95 1292.08 2041.41 1292.02 2041.01 1291.9 2040.61 1291.78 2040.23 1291.5 2039.84 1291.07 2039.46 1290.63 2038.96 1289.92 2038.32 1288.93L2030.35 1276.5C2029.51 1275.23 2028.84 1274.44 2028.35 1274.12 2027.85 1273.81 2027.3 1273.65 2026.7 1273.65L2025.68 1273.65 2025.68 1285.72C2025.68 1286.51 2025.79 1287.02 2026.01 1287.26 2026.23 1287.5 2026.62 1287.72 2027.18 1287.92L2031.31 1289.22C2031.67 1289.38 2031.85 1289.64 2031.85 1290L2031.85 1291.48C2031.85 1291.88 2031.65 1292.08 2031.25 1292.08L2008.55 1292.08C2008.16 1292.08 2007.96 1291.88 2007.96 1291.48L2007.96 1290C2007.96 1289.6 2008.16 1289.34 2008.55 1289.22L2012.39 1288.04C2013.11 1287.76 2013.56 1287.48 2013.74 1287.2 2013.92 1286.93 2014.01 1286.49 2014.01 1285.9L2014.01 1253.55C2014.01 1252.96 2013.92 1252.52 2013.74 1252.25 2013.56 1251.97 2013.11 1251.71 2012.39 1251.47L2008.55 1250.22C2008.16 1250.11 2007.96 1249.85 2007.96 1249.45L2007.96 1247.97C2007.96 1247.57 2008.16 1247.37 2008.55 1247.37ZM2388.31 1246.9C2388.98 1246.86 2389.48 1246.89 2389.78 1246.98 2390.07 1247.08 2390.28 1247.39 2390.37 1247.9 2390.47 1248.42 2390.54 1249.27 2390.58 1250.46L2390.7 1258.31C2390.7 1258.7 2390.5 1258.94 2390.1 1259.02L2388.01 1259.32C2387.65 1259.36 2387.35 1259.22 2387.11 1258.9L2384.35 1254.39C2383.92 1253.71 2383.46 1253.26 2382.98 1253.02 2382.5 1252.78 2381.96 1252.66 2381.36 1252.66L2367.47 1252.66 2367.47 1267.11 2377.95 1267.11C2378.75 1267.11 2379.36 1266.97 2379.81 1266.69 2380.24 1266.42 2380.61 1266.02 2380.88 1265.5L2382.2 1263.06C2382.36 1262.71 2382.64 1262.53 2383.04 1262.53L2384.96 1262.53C2385.35 1262.53 2385.55 1262.73 2385.55 1263.12L2385.55 1276.68C2385.55 1277.08 2385.35 1277.27 2384.96 1277.27L2383.04 1277.27C2382.64 1277.27 2382.36 1277.08 2382.2 1276.68L2380.94 1274.12C2380.59 1273.45 2380.17 1272.98 2379.71 1272.73 2379.26 1272.47 2378.73 1272.34 2378.13 1272.34L2367.47 1272.34 2367.47 1284.76C2367.47 1285.56 2367.63 1286.1 2367.95 1286.4 2368.27 1286.7 2368.75 1286.85 2369.38 1286.85L2381.36 1286.85C2382.16 1286.85 2382.8 1286.72 2383.28 1286.46 2383.76 1286.2 2384.18 1285.84 2384.53 1285.36L2388.42 1280.25C2388.58 1279.89 2388.89 1279.79 2389.33 1279.95L2391.42 1280.48C2391.78 1280.6 2391.96 1280.86 2391.96 1281.26L2390.58 1290.23C2390.46 1290.87 2390.31 1291.34 2390.13 1291.66 2389.96 1291.98 2389.59 1292.18 2389.06 1292.26 2388.52 1292.34 2387.67 1292.34 2386.51 1292.26L2382.74 1292.08 2350.34 1292.08C2349.95 1292.08 2349.75 1291.88 2349.75 1291.48L2349.75 1290C2349.75 1289.6 2349.95 1289.34 2350.34 1289.22L2354.18 1288.04C2354.89 1287.76 2355.34 1287.48 2355.53 1287.2 2355.71 1286.93 2355.79 1286.49 2355.79 1285.9L2355.79 1253.55C2355.79 1252.96 2355.71 1252.52 2355.53 1252.25 2355.34 1251.97 2354.89 1251.71 2354.18 1251.47L2350.34 1250.22C2349.95 1250.11 2349.75 1249.85 2349.75 1249.45L2349.75 1247.97C2349.75 1247.57 2349.95 1247.37 2350.34 1247.37L2383.04 1247.37ZM2251.09 1246.9C2251.77 1246.86 2252.26 1246.89 2252.56 1246.98 2252.86 1247.08 2253.06 1247.39 2253.16 1247.9 2253.26 1248.42 2253.33 1249.27 2253.37 1250.46L2253.49 1258.31C2253.49 1258.7 2253.29 1258.94 2252.89 1259.02L2250.79 1259.32C2250.43 1259.36 2250.13 1259.22 2249.89 1258.9L2247.14 1254.39C2246.7 1253.71 2246.24 1253.26 2245.76 1253.02 2245.29 1252.78 2244.75 1252.66 2244.14 1252.66L2230.26 1252.66 2230.26 1267.11 2240.73 1267.11C2241.53 1267.11 2242.15 1266.97 2242.59 1266.69 2243.03 1266.42 2243.39 1266.02 2243.67 1265.5L2244.99 1263.06C2245.15 1262.71 2245.42 1262.53 2245.82 1262.53L2247.74 1262.53C2248.14 1262.53 2248.34 1262.73 2248.34 1263.12L2248.34 1276.68C2248.34 1277.08 2248.14 1277.27 2247.74 1277.27L2245.82 1277.27C2245.42 1277.27 2245.15 1277.08 2244.99 1276.68L2243.73 1274.12C2243.37 1273.45 2242.96 1272.98 2242.5 1272.73 2242.04 1272.47 2241.51 1272.34 2240.92 1272.34L2230.26 1272.34 2230.26 1284.76C2230.26 1285.56 2230.42 1286.1 2230.74 1286.4 2231.06 1286.7 2231.54 1286.85 2232.17 1286.85L2244.14 1286.85C2244.94 1286.85 2245.58 1286.72 2246.06 1286.46 2246.54 1286.2 2246.96 1285.84 2247.32 1285.36L2251.21 1280.25C2251.38 1279.89 2251.67 1279.79 2252.11 1279.95L2254.21 1280.48C2254.57 1280.6 2254.74 1280.86 2254.74 1281.26L2253.37 1290.23C2253.25 1290.87 2253.1 1291.34 2252.92 1291.66 2252.74 1291.98 2252.38 1292.18 2251.84 1292.26 2251.3 1292.34 2250.45 1292.34 2249.3 1292.26L2245.52 1292.08 2213.14 1292.08C2212.74 1292.08 2212.53 1291.88 2212.53 1291.48L2212.53 1290C2212.53 1289.6 2212.74 1289.34 2213.14 1289.22L2216.97 1288.04C2217.69 1287.76 2218.13 1287.48 2218.31 1287.2 2218.49 1286.93 2218.58 1286.49 2218.58 1285.9L2218.58 1253.55C2218.58 1252.96 2218.49 1252.52 2218.31 1252.25 2218.13 1251.97 2217.69 1251.71 2216.97 1251.47L2213.14 1250.22C2212.74 1250.11 2212.53 1249.85 2212.53 1249.45L2212.53 1247.97C2212.53 1247.57 2212.74 1247.37 2213.14 1247.37L2245.82 1247.37ZM2305.5 1246.69C2306.02 1246.67 2306.85 1246.76 2308.02 1246.95L2309.51 1247.13C2311.14 1247.21 2312.71 1247.27 2314.21 1247.31 2315.71 1247.35 2317.34 1247.37 2319.12 1247.37 2320.89 1247.37 2322.99 1247.37 2325.38 1247.37 2327.81 1247.37 2329.93 1247.37 2331.73 1247.37 2333.53 1247.37 2335.16 1247.35 2336.67 1247.31 2338.16 1247.27 2339.71 1247.21 2341.31 1247.13L2344.3 1246.72C2344.94 1246.6 2345.41 1246.59 2345.73 1246.69 2346.05 1246.79 2346.26 1247.08 2346.37 1247.58 2346.47 1248.07 2346.51 1248.92 2346.51 1250.11L2346.82 1260.03C2346.82 1260.39 2346.61 1260.61 2346.21 1260.69L2344.18 1260.92C2343.78 1260.96 2343.52 1260.81 2343.4 1260.45L2340.77 1254.44C2340.41 1253.73 2340.02 1253.26 2339.6 1253.02 2339.18 1252.78 2338.65 1252.66 2338.01 1252.66L2331.25 1252.66 2331.25 1285.72C2331.25 1286.51 2331.35 1287.02 2331.54 1287.26 2331.75 1287.5 2332.12 1287.72 2332.68 1287.92L2336.87 1289.22C2337.23 1289.38 2337.42 1289.64 2337.42 1290L2337.42 1291.48C2337.42 1291.88 2337.21 1292.08 2336.81 1292.08L2314.12 1292.08C2313.72 1292.08 2313.53 1291.88 2313.53 1291.48L2313.53 1290C2313.53 1289.6 2313.7 1289.34 2314.06 1289.22L2317.9 1288.04C2318.65 1287.76 2319.12 1287.48 2319.3 1287.2 2319.48 1286.93 2319.57 1286.49 2319.57 1285.9L2319.57 1252.66 2312.98 1252.66C2312.18 1252.66 2311.57 1252.81 2311.16 1253.11 2310.74 1253.4 2310.41 1253.81 2310.17 1254.33L2307.41 1260.45C2307.3 1260.81 2307.04 1260.96 2306.64 1260.92L2304.6 1260.69C2304.21 1260.61 2304 1260.39 2304 1260.03L2304.24 1248.56C2304.29 1247.93 2304.37 1247.46 2304.51 1247.16 2304.65 1246.86 2304.98 1246.71 2305.5 1246.69ZM2260.59 1246.69C2261.11 1246.67 2261.95 1246.76 2263.11 1246.95L2264.61 1247.13C2266.24 1247.21 2267.81 1247.27 2269.31 1247.31 2270.8 1247.35 2272.44 1247.37 2274.21 1247.37 2275.99 1247.37 2278.07 1247.37 2280.47 1247.37 2282.91 1247.37 2285.02 1247.37 2286.82 1247.37 2288.61 1247.37 2290.26 1247.35 2291.76 1247.31 2293.25 1247.27 2294.81 1247.21 2296.39 1247.13L2299.39 1246.72C2300.03 1246.6 2300.51 1246.59 2300.83 1246.69 2301.15 1246.79 2301.36 1247.08 2301.46 1247.58 2301.56 1248.07 2301.61 1248.92 2301.61 1250.11L2301.91 1260.03C2301.91 1260.39 2301.71 1260.61 2301.31 1260.69L2299.27 1260.92C2298.87 1260.96 2298.62 1260.81 2298.49 1260.45L2295.86 1254.44C2295.5 1253.73 2295.11 1253.26 2294.69 1253.02 2294.28 1252.78 2293.75 1252.66 2293.11 1252.66L2286.34 1252.66 2286.34 1285.72C2286.34 1286.51 2286.44 1287.02 2286.64 1287.26 2286.84 1287.5 2287.22 1287.72 2287.78 1287.92L2291.97 1289.22C2292.33 1289.38 2292.5 1289.64 2292.5 1290L2292.5 1291.48C2292.5 1291.88 2292.31 1292.08 2291.91 1292.08L2269.22 1292.08C2268.82 1292.08 2268.61 1291.88 2268.61 1291.48L2268.61 1290C2268.61 1289.6 2268.8 1289.34 2269.15 1289.22L2272.98 1288.04C2273.75 1287.76 2274.21 1287.48 2274.39 1287.2 2274.58 1286.93 2274.66 1286.49 2274.66 1285.9L2274.66 1252.66 2268.08 1252.66C2267.28 1252.66 2266.67 1252.81 2266.25 1253.11 2265.83 1253.4 2265.5 1253.81 2265.26 1254.33L2262.51 1260.45C2262.39 1260.81 2262.13 1260.96 2261.73 1260.92L2259.69 1260.69C2259.29 1260.61 2259.1 1260.39 2259.1 1260.03L2259.34 1248.56C2259.37 1247.93 2259.47 1247.46 2259.61 1247.16 2259.74 1246.86 2260.07 1246.71 2260.59 1246.69ZM2084.86 1246.54C2089.89 1246.54 2094.29 1247.51 2098.06 1249.45 2101.83 1251.39 2104.77 1254.1 2106.86 1257.57 2108.96 1261.03 2110.01 1265.07 2110.01 1269.66 2110.01 1274.34 2108.97 1278.42 2106.89 1281.91 2104.82 1285.4 2101.88 1288.1 2098.09 1290.03 2094.3 1291.95 2089.89 1292.91 2084.86 1292.91 2079.87 1292.91 2075.49 1291.94 2071.71 1290 2067.95 1288.05 2065.01 1285.34 2062.92 1281.85 2060.82 1278.36 2059.77 1274.3 2059.77 1269.66 2059.77 1265.11 2060.83 1261.08 2062.95 1257.59 2065.06 1254.11 2067.99 1251.39 2071.74 1249.45 2075.5 1247.51 2079.87 1246.54 2084.86 1246.54ZM2255.19 1187.15 2254.07 1191.12C2253.49 1193.13 2252.91 1195.06 2252.34 1196.89L2251.37 1199.81 2258.99 1199.81 2258.04 1196.89C2257.48 1195.04 2256.9 1193.12 2256.31 1191.11ZM2251.32 1181.97 2259.07 1181.97 2269.28 1210.99 2262.63 1210.99 2260.54 1204.58 2249.79 1204.58 2247.67 1210.99 2241.17 1210.99ZM2206.83 1181.97 2230.51 1181.97 2230.51 1187.05 2221.69 1187.05 2221.69 1210.99 2215.7 1210.99 2215.7 1187.05 2206.83 1187.05ZM2175.61 1181.97 2196.19 1181.97 2196.19 1187.05 2181.61 1187.05 2181.61 1193.85 2195.08 1193.85 2195.08 1198.82 2181.61 1198.82 2181.61 1205.91 2196.19 1205.91 2196.19 1210.99 2175.61 1210.99ZM2130.64 1181.97 2139.5 1181.97 2144.28 1195.45C2144.48 1196.06 2144.71 1196.82 2144.97 1197.72 2145.24 1198.63 2145.52 1199.59 2145.79 1200.61L2146.45 1203.04 2147.1 1200.62C2147.38 1199.61 2147.65 1198.65 2147.91 1197.74 2148.17 1196.82 2148.4 1196.06 2148.59 1195.45L2153.3 1181.97 2162.16 1181.97 2162.16 1210.99 2156.27 1210.99 2156.27 1197.22C2156.27 1196.57 2156.27 1195.79 2156.3 1194.89 2156.32 1193.99 2156.34 1193.02 2156.37 1191.98 2156.39 1190.94 2156.42 1189.89 2156.44 1188.83L2156.46 1188.26 2156.24 1189.02C2155.92 1190.11 2155.61 1191.17 2155.31 1192.2 2155.01 1193.24 2154.73 1194.18 2154.46 1195.04 2154.2 1195.9 2153.97 1196.62 2153.77 1197.22L2148.87 1210.99 2143.97 1210.99 2139.01 1197.22C2138.82 1196.64 2138.58 1195.91 2138.31 1195.05 2138.03 1194.18 2137.74 1193.24 2137.43 1192.21 2137.12 1191.19 2136.8 1190.13 2136.48 1189.03L2136.36 1188.59 2136.36 1188.82C2136.39 1189.87 2136.41 1190.92 2136.44 1191.96 2136.48 1193 2136.5 1193.97 2136.52 1194.88 2136.54 1195.79 2136.55 1196.57 2136.55 1197.22L2136.55 1210.99 2130.64 1210.99Z" fill-rule="evenodd"/></g></svg>