<svg width="2543" height="2541" xmlns="http://www.w3.org/2000/svg" xmlns:xlink="http://www.w3.org/1999/xlink" xml:space="preserve" overflow="hidden"><defs><clipPath id="clip0"><rect x="-4042" y="-287" width="2543" height="2541"/></clipPath></defs><g clip-path="url(#clip0)" transform="translate(4042 287)"><path d="M1248.88 988.112 1230.99 760.958 1248.91 988.11ZM1293.38 988.115 1293.34 988.114 1314.05 725.501ZM1271.87 2541C1305.18 2541 1338.49 2539.69 1371.72 2537.07L1371.72 2537.05 1470.69 2525.35C1503.54 2520.14 1536.19 2513.65 1568.55 2505.88L1337.96 1545.72 1337.99 1545.72 1568.57 2505.83C1633.3 2490.29 1696.71 2469.7 1758.21 2444.23L1380.44 1532.51 1380.47 1532.51 1758.21 2444.16C1819.71 2418.7 1879.12 2388.44 1935.88 2353.66L1419.6 1511.44 1419.62 1511.42 1935.88 2353.6C1992.64 2318.83 2046.58 2279.65 2097.2 2236.43L1455.11 1484.88 1455.14 1484.85 2097.19 2236.34C2147.81 2193.12 2194.95 2145.99 2238.19 2095.39L1486.25 1453.39 1486.27 1453.37 2238.18 2095.35C2281.41 2044.74 2320.6 1990.82 2355.39 1934.08L1512.37 1417.65 1512.38 1417.64 2355.33 1934.03C2390.11 1877.29 2420.38 1817.9 2445.86 1756.41L1532.98 1378.42 1532.99 1378.39 2445.82 1756.37C2471.29 1694.89 2491.9 1631.49 2507.44 1566.78L1546.1 1336.07 1546.11 1336.04 2507.38 1566.74C2522.92 1502.03 2533.35 1436.2 2538.58 1369.86L1553.29 1292.34 1553.29 1292.18 2539.07 1369.36C2544.31 1303.31 2544.31 1236.95 2539.07 1170.9L1553.23 1248.09 1553.22 1247.95 2538.48 1170.43C2533.26 1104.09 2522.83 1038.26 2507.29 973.547L1545.75 1204.32 1545.75 1204.31 2507.21 973.558C2491.67 908.848 2471.07 845.457 2445.59 783.975L1532.64 1162.01 1532.63 1161.98 2445.52 783.976C2420.05 722.493 2389.78 663.105 2355 606.364L1511.84 1122.88 1511.82 1122.85 2354.93 606.367C2320.15 549.625 2280.96 495.701 2237.72 445.099L1485.56 1087.29 1485.53 1087.26 2237.66 445.09C2194.43 394.485 2147.28 347.354 2096.66 304.136L1454.31 1055.98 1454.29 1055.96 2096.62 304.144C2046 260.923 1992.06 221.745 1935.29 186.975L1418.75 1029.62 1418.73 1029.61 1935.22 187.054C1878.46 152.281 1819.05 122.021 1757.55 96.5556L1379.59 1008.74 1379.56 1008.73 1757.5 96.5975C1696 71.1288 1632.59 50.5319 1567.86 34.9982L1337.17 995.549 1337.15 995.541 1567.82 35.0523C1503.09 19.5153 1437.23 9.08854 1370.87 3.86887L1370.86 3.91262 1271.13 0C1237.82 0 1204.51 1.30557 1171.28 3.91707L1171.28 3.95119 1072.31 15.6601C1039.46 20.8616 1006.81 27.3524 974.446 35.1209L1205.09 995.522 1205.06 995.533 974.434 35.2236C909.702 50.7573 846.29 71.3542 784.788 96.8226L1162.63 1008.73 1162.61 1008.73 784.788 96.889C723.285 122.354 663.877 152.614 607.117 187.387L1123.41 1029.63 1123.39 1029.64 607.121 187.455C550.36 222.225 496.419 261.403 445.799 304.624L1087.79 1056.05 1087.78 1056.05 445.814 304.663C395.192 347.881 348.046 395.012 304.813 445.617L1056.52 1087.42 1056.5 1087.44 304.821 445.659C261.586 496.262 222.396 550.186 187.614 606.928L1030.22 1123.11 1030.2 1123.15 187.669 607.023C152.885 663.764 122.615 723.152 97.1413 784.636L1009.42 1162.39 1009.41 1162.42 97.1829 784.684C71.7061 846.166 51.1024 909.557 35.5632 974.267L996.269 1204.84 996.26 1204.86 35.6062 974.309C20.064 1039.02 9.63383 1104.85 4.41243 1171.19L988.922 1248.65 988.915 1248.77 3.9269 1171.65C-1.30934 1237.7-1.30934 1304.06 3.9269 1370.11L988.927 1292.99 988.934 1293.12 4.51554 1370.57C9.73694 1436.92 20.1671 1502.75 35.7093 1567.46L996.339 1336.91 996.355 1336.96 35.7883 1567.49C51.3275 1632.2 71.9316 1695.6 97.408 1757.08L1009.51 1379.4 1009.51 1379.42 97.4748 1757.08C122.949 1818.56 153.218 1877.95 188.003 1934.69L1030.36 1418.66 1030.38 1418.69 188.071 1934.68C222.852 1991.43 262.043 2045.35 305.278 2095.95L1056.73 1454.36 1056.74 1454.37 305.34 2095.92C348.573 2146.52 395.719 2193.65 446.341 2236.87L1088.09 1485.72 1088.11 1485.74 446.383 2236.86C497.003 2280.08 550.944 2319.26 607.706 2354.03L1123.81 1512.1 1123.85 1512.12 607.778 2354C664.537 2388.77 723.945 2419.03 785.449 2444.49L1163.15 1532.95 1163.18 1532.96 785.497 2444.45C847 2469.92 910.411 2490.52 975.143 2506.05L1205.67 1546.17 1205.69 1546.18 975.185 2506.01C1039.91 2521.55 1105.77 2531.97 1172.13 2537.19L1172.14 2537.08Z" fill="#FFFFFF" fill-rule="evenodd" transform="matrix(-1 1.22465e-16 1.22465e-16 1 -1499 -287)"/><path d="M195.366 1233.18C130.467 1238.27 65.2649 1238.27 0.365824 1233.18L97.8656 0.000360911 195.366 1233.18Z" fill="#D72638" fill-rule="evenodd" transform="matrix(1 0 0 -1 -2868 984)"/><path d="M-2741.93-172.75C-2744.83-172.75-2747.33-171.8-2749.43-169.901-2751.53-168.002-2753.15-165.282-2754.28-161.743-2755.41-158.204-2755.97-153.958-2755.97-149.006-2755.97-144.083-2755.41-139.853-2754.28-136.313-2753.15-132.774-2751.53-130.062-2749.43-128.179-2747.33-126.295-2744.83-125.353-2741.93-125.353-2739-125.353-2736.49-126.295-2734.39-128.179-2732.27-130.062-2730.67-132.774-2729.56-136.313-2728.44-139.853-2727.89-144.083-2727.89-149.006-2727.89-153.958-2728.44-158.204-2729.56-161.743-2730.67-165.282-2732.27-168.002-2734.39-169.901-2736.49-171.8-2739-172.75-2741.93-172.75ZM-2741.93-184.051C-2736.2-184.051-2731.28-182.639-2727.18-179.813-2723.08-176.987-2719.92-172.954-2717.71-167.713-2715.51-162.472-2714.4-156.236-2714.4-149.006-2714.4-141.774-2715.49-135.547-2717.69-130.321-2719.89-125.094-2723.04-121.077-2727.16-118.267-2731.27-115.456-2736.2-114.051-2741.93-114.051-2747.63-114.051-2752.52-115.464-2756.63-118.289-2760.73-121.114-2763.88-125.133-2766.1-130.343-2768.31-135.554-2769.41-141.774-2769.41-149.006-2769.41-156.236-2768.31-162.472-2766.1-167.713-2763.88-172.954-2760.73-176.987-2756.63-179.813-2752.52-182.639-2747.63-184.051-2741.93-184.051ZM-2802.84-184.051C-2798.14-184.051-2793.98-183.185-2790.36-181.453-2786.73-179.722-2783.89-177.29-2781.85-174.162-2779.8-171.032-2778.79-167.371-2778.79-163.179-2778.79-160.14-2779.36-157.33-2780.5-154.747-2781.64-152.165-2783.37-149.59-2785.69-147.023-2788.01-144.456-2790.92-141.638-2794.43-138.569L-2807.92-126.583-2807.92-126.402-2778.38-126.402-2778.38-115.099-2827.08-115.099-2827.08-125.353-2802.24-146.909C-2800.23-148.732-2798.46-150.426-2796.92-151.99-2795.37-153.555-2794.18-155.173-2793.31-156.844-2792.44-158.515-2792.01-160.368-2792.01-162.404-2792.01-164.531-2792.45-166.376-2793.35-167.941-2794.26-169.506-2795.51-170.714-2797.13-171.564-2798.74-172.415-2800.66-172.84-2802.89-172.84-2805.24-172.84-2807.27-172.339-2808.99-171.336-2810.71-170.334-2812.04-168.89-2812.97-167.007-2813.9-165.123-2814.37-162.859-2814.37-160.216L-2827.4-160.216C-2827.4-165.047-2826.38-169.247-2824.36-172.817-2822.32-176.387-2819.48-179.152-2815.8-181.111-2812.13-183.071-2807.82-184.051-2802.84-184.051Z" fill-rule="evenodd"/><path d="M195.366 1231.59C130.467 1236.67 65.2649 1236.67 0.365824 1231.59L97.8656 0.395278 195.366 1231.59Z" fill="#7B12EE" fill-rule="evenodd" transform="matrix(-1 1.22465e-16 1.22465e-16 1 -2673 984)"/><path d="M-2749.72 2150.95-2791.57 2150.95-2791.57 2139.58-2761.58 2139.58-2760.3 2123.25-2760.44 2123.25C-2762.03 2125.01-2763.97 2126.36-2766.25 2127.29-2768.53 2128.21-2771.05 2128.68-2773.8 2128.68-2776.8 2128.68-2779.6 2128.11-2782.22 2126.99-2784.85 2125.86-2787.14 2124.26-2789.11 2122.19-2791.07 2120.12-2792.62 2117.69-2793.72 2114.9-2794.84 2112.09-2795.39 2109.05-2795.39 2105.77-2795.39 2101.14-2794.37 2097.04-2792.33 2093.45-2790.28 2089.86-2787.43 2087.05-2783.76 2085-2780.08 2082.97-2775.78 2081.95-2770.87 2081.95-2766.22 2081.95-2762.08 2082.85-2758.48 2084.66-2754.87 2086.47-2751.99 2089-2749.88 2092.22-2747.76 2095.44-2746.6 2099.19-2746.39 2103.44L-2759.37 2103.44C-2759.48 2101.4-2760.06 2099.59-2761.07 2098.01-2762.09 2096.43-2763.46 2095.18-2765.18 2094.27-2766.91 2093.36-2768.83 2092.9-2770.96 2092.9-2773.21 2092.9-2775.2 2093.43-2776.94 2094.49-2778.67 2095.57-2780.01 2097.04-2780.98 2098.93-2781.94 2100.82-2782.42 2102.99-2782.42 2105.45-2782.42 2107.94-2781.94 2110.15-2780.98 2112.05-2780.01 2113.95-2778.68 2115.44-2776.98 2116.52-2775.28 2117.6-2773.31 2118.13-2771.09 2118.13-2768.4 2118.13-2766.05 2117.56-2764.03 2116.4-2762.02 2115.25-2760.61 2113.65-2759.81 2111.61L-2747.42 2112.07Z" fill-rule="evenodd"/><path d="M194.556 1232.72C129.985 1237.8 65.1118 1237.8 0.540617 1232.72L97.5481 0.108268 194.556 1232.72Z" fill="#FCECC0" fill-rule="evenodd" transform="matrix(0.45399 0.891007 0.891007 -0.45399 -2814.64 896.668)"/><path d="M-1730.43 454.656-1724.4 466.345-1785.2 496.949-1791.4 484.937-1742.02 460.084-1742.1 459.922-1758.6 450.557-1747.47 444.949Z" fill-rule="evenodd"/><path d="M194.204 1232.9C129.633 1237.98 64.76 1237.98 0.188747 1232.9L97.1963 0.287631 194.204 1232.9Z" fill="#FCECC0" fill-rule="evenodd" transform="matrix(-0.45399 -0.891007 -0.891007 0.45399 -2726.51 1069.52)"/><path d="M-3811.38 1511.25-3817.4 1499.55-3756.6 1468.95-3750.4 1480.97-3799.78 1505.82-3799.7 1505.98-3783.2 1515.34-3794.33 1520.95Z" fill-rule="evenodd"/><path d="M194.568 1232.75C129.997 1237.83 65.1238 1237.83 0.552526 1232.75L97.56 0.136778 194.568 1232.75Z" fill="#FCECC0" fill-rule="evenodd" transform="matrix(0.309017 0.951057 0.951057 -0.309017 -2800.58 890.839)"/><path d="M-1660.5 624.294-1656.4 636.902-1721.19 657.948-1725.4 644.993-1672.79 627.902-1672.85 627.727-1687.64 615.805-1675.76 611.948Z" fill-rule="evenodd"/><path d="M194.193 1232.87C129.621 1237.95 64.7481 1237.95 0.176837 1232.87L97.1843 0.25876 194.193 1232.87Z" fill="#FCECC0" fill-rule="evenodd" transform="matrix(-0.309017 -0.951057 -0.951057 0.309017 -2740.57 1075.35)"/><path d="M-3881.3 1341.87-3885.4 1329.54-3820.61 1308.95-3816.4 1321.61-3869.01 1338.34-3868.95 1338.51-3854.16 1350.18-3866.04 1353.95Z" fill-rule="evenodd"/><path d="M194.575 1232.78C130.004 1237.86 65.131 1237.86 0.559744 1232.78L97.5673 0.167093 194.575 1232.78Z" fill="#FCECC0" fill-rule="evenodd" transform="matrix(0.156434 0.987688 0.987688 -0.156434 -2785.78 887.281)"/><path d="M-1618.45 802.397-1616.4 815.383-1683.28 825.949-1685.4 812.615-1631.08 804.029-1631.11 803.849-1643.77 789.884-1631.52 787.949Z" fill-rule="evenodd"/><path d="M194.185 1232.84C129.614 1237.92 64.7408 1237.92 0.169619 1232.84L97.1771 0.228806 194.185 1232.84Z" fill="#FCECC0" fill-rule="evenodd" transform="matrix(-0.156434 -0.987688 -0.987688 0.156434 -2755.38 1078.91)"/><path d="M-3923.34 1164.11-3925.4 1150.79-3858.52 1139.95-3856.4 1153.63-3910.72 1162.44-3910.69 1162.63-3898.03 1176.96-3910.28 1178.95Z" fill-rule="evenodd"/><path d="M194.47 1232.98C129.899 1238.07 65.0256 1238.07 0.454364 1232.98L97.4619 0.373884 194.47 1232.98Z" fill="#FCECC0" fill-rule="evenodd" transform="matrix(-0.891007 0.45399 0.45399 0.891007 -2684.15 939.029)"/><path d="M-2243.1 2023.01-2254.79 2028.95-2285.4 1969.05-2273.38 1962.95-2248.52 2011.59-2248.37 2011.51-2239 1995.26-2233.4 2006.23Z" fill-rule="evenodd"/><path d="M194.291 1232.63C129.719 1237.71 64.8462 1237.71 0.275 1232.63L97.2825 0.0220144 194.291 1232.63Z" fill="#FCECC0" fill-rule="evenodd" transform="matrix(0.891007 -0.45399 -0.45399 -0.891007 -2857 1027.16)"/><path d="M-3299.5-57.1103-3287.59-63.0507-3256.4-3.15425-3268.65 2.94965-3293.98-45.6912-3294.14-45.6081-3303.68-29.3564-3309.4-40.3297Z" fill-rule="evenodd"/><path d="M194.442 1232.99C129.87 1238.08 64.9971 1238.08 0.425492 1232.99L97.4334 0.385794 194.442 1232.99Z" fill="#FCECC0" fill-rule="evenodd" transform="matrix(-0.951057 0.309017 0.309017 0.951057 -2678.32 953.093)"/><path d="M-2411.75 2092.91-2424.35 2096.95-2445.4 2033.1-2432.44 2028.95-2415.35 2080.8-2415.18 2080.74-2403.26 2066.17-2399.4 2077.87Z" fill-rule="evenodd"/><path d="M194.32 1232.62C129.748 1237.7 64.8751 1237.7 0.30351 1232.62L97.3114 0.010105 194.32 1232.62Z" fill="#FCECC0" fill-rule="evenodd" transform="matrix(0.951057 -0.309017 -0.309017 -0.951057 -2862.83 1013.1)"/><path d="M-3130.05-126.954-3117.45-131.051-3096.4-66.2609-3109.36-62.051-3126.45-114.665-3126.62-114.61-3138.54-99.8218-3142.4-111.693Z" fill-rule="evenodd"/><path d="M194.411 1233C129.84 1238.08 64.9668 1238.08 0.395538 1233L97.4031 0.393012 194.411 1233Z" fill="#FCECC0" fill-rule="evenodd" transform="matrix(-0.987688 0.156434 0.156434 0.987688 -2674.76 967.891)"/><path d="M-2589.85 2135.9-2602.83 2137.95-2613.4 2071.07-2600.06 2068.95-2591.48 2123.26-2591.3 2123.24-2577.33 2110.57-2575.4 2122.83Z" fill-rule="evenodd"/><path d="M194.35 1232.61C129.778 1237.69 64.9051 1237.69 0.333825 1232.61L97.3413 0.00288714 194.35 1232.61Z" fill="#FCECC0" fill-rule="evenodd" transform="matrix(0.987688 -0.156434 -0.156434 -0.987688 -2866.39 998.289)"/><path d="M-2951.95-168.99-2938.96-171.051-2928.4-104.169-2941.73-102.051-2950.32-156.364-2950.5-156.336-2964.46-143.672-2966.4-155.926Z" fill-rule="evenodd"/><path d="M194.442 1232.62C129.87 1237.7 64.9971 1237.7 0.425492 1232.62L97.4334 0.010105 194.442 1232.62Z" fill="#FCECC0" fill-rule="evenodd" transform="matrix(0.951057 0.309017 0.309017 -0.951057 -2862.84 953.138)"/><path d="M-2408.85-126.052-2396.4-121.948-2417.2-57.0513-2430-61.2677-2413.1-113.969-2413.28-114.026-2431.4-109.064-2427.59-120.954Z" fill-rule="evenodd"/><path d="M194.32 1232.99C129.748 1238.08 64.8751 1238.08 0.30351 1232.99L97.3114 0.385794 194.32 1232.99Z" fill="#FCECC0" fill-rule="evenodd" transform="matrix(-0.951057 -0.309017 -0.309017 0.951057 -2678.31 1013.05)"/><path d="M-3132.94 2091.95-3145.4 2087.91-3124.6 2023.95-3111.8 2028.11-3128.69 2080.04-3128.51 2080.1-3110.4 2075.2-3114.21 2086.92Z" fill-rule="evenodd"/><path d="M194.47 1232.63C129.899 1237.71 65.0256 1237.71 0.454364 1232.63L97.4619 0.0220144 194.47 1232.63Z" fill="#FCECC0" fill-rule="evenodd" transform="matrix(0.891007 0.45399 0.45399 -0.891007 -2857.03 939.074)"/><path d="M-2240.19-56.0517-2228.4-50.0074-2259.28 10.9483-2271.4 4.73642-2246.32-44.7634-2246.49-44.8475-2265.35-42.8141-2259.69-53.9831Z" fill-rule="evenodd"/><path d="M194.291 1232.98C129.719 1238.07 64.8462 1238.07 0.275 1232.98L97.2825 0.373884 194.291 1232.98Z" fill="#FCECC0" fill-rule="evenodd" transform="matrix(-0.891007 -0.45399 -0.45399 0.891007 -2684.13 1027.12)"/><path d="M-3301.87 2021.95-3313.39 2015.9-3283.22 1954.95-3271.39 1961.16-3295.89 2010.65-3295.72 2010.75-3277.3 2008.71-3282.83 2019.87Z" fill-rule="evenodd"/><path d="M194.496 1232.65C129.925 1237.73 65.0519 1237.73 0.480709 1232.65L97.4882 0.0378937 194.496 1232.65Z" fill="#FCECC0" fill-rule="evenodd" transform="matrix(0.809017 0.587785 0.587785 -0.809017 -2849.07 926.095)"/><path d="M-2084.11 39.9687-2073.4 47.7716-2113.39 102.949-2124.4 94.9312-2091.92 50.1225-2092.07 50.0147-2111.02 49.0578-2103.7 38.9483Z" fill-rule="evenodd"/><path d="M194.264 1232.97C129.693 1238.05 64.8199 1238.05 0.248294 1232.97L97.2562 0.357644 194.264 1232.97Z" fill="#FCECC0" fill-rule="evenodd" transform="matrix(-0.809017 -0.587785 -0.587785 0.809017 -2692.08 1040.1)"/><path d="M-3457.69 1925.93-3468.4 1918.13-3428.41 1862.95-3417.4 1870.96-3449.88 1915.78-3449.73 1915.88-3430.78 1916.83-3438.1 1926.95Z" fill-rule="evenodd"/><path d="M194.568 1232.87C129.997 1237.95 65.1238 1237.95 0.552526 1232.87L97.56 0.25876 194.568 1232.87Z" fill="#FCECC0" fill-rule="evenodd" transform="matrix(-0.309017 0.951057 0.951057 0.309017 -2740.62 890.828)"/><path d="M-1662.39 1345.14-1666.44 1357.95-1730.4 1336.56-1726.24 1323.39-1674.3 1340.77-1674.25 1340.58-1679.13 1321.95-1667.41 1325.87Z" fill-rule="evenodd"/><path d="M194.193 1232.75C129.621 1237.83 64.7481 1237.83 0.176837 1232.75L97.1843 0.136778 194.193 1232.75Z" fill="#FCECC0" fill-rule="evenodd" transform="matrix(0.309017 -0.951057 -0.951057 -0.309017 -2800.53 1075.36)"/><path d="M-3880.4 621.407-3876.3 608.949-3811.4 629.747-3815.62 642.548-3868.32 625.659-3868.37 625.832-3863.42 643.949-3875.31 640.138Z" fill-rule="evenodd"/><path d="M194.556 1232.9C129.985 1237.98 65.1118 1237.98 0.540617 1232.9L97.5481 0.287631 194.556 1232.9Z" fill="#FCECC0" fill-rule="evenodd" transform="matrix(-0.45399 0.891007 0.891007 0.45399 -2726.56 896.645)"/><path d="M-1732.4 1514.15-1738.36 1525.95-1798.4 1495.06-1792.28 1482.95-1743.52 1508.03-1743.43 1507.86-1745.44 1489-1734.44 1494.66Z" fill-rule="evenodd"/><path d="M194.204 1232.72C129.633 1237.8 64.76 1237.8 0.188747 1232.72L97.1963 0.108268 194.204 1232.72Z" fill="#FCECC0" fill-rule="evenodd" transform="matrix(0.45399 -0.891007 -0.891007 -0.45399 -2814.6 1069.55)"/><path d="M-3809.4 451.744-3803.43 439.949-3743.4 470.828-3749.51 482.949-3798.27 457.872-3798.36 458.035-3796.35 476.894-3807.35 471.236Z" fill-rule="evenodd"/><path d="M194.54 1232.92C129.969 1238.01 65.0956 1238.01 0.524377 1232.92L97.5319 0.313976 194.54 1232.92Z" fill="#FCECC0" fill-rule="evenodd" transform="matrix(-0.587785 0.809017 0.809017 0.587785 -2713.58 904.598)"/><path d="M-1828.4 1670.24-1836.07 1680.95-1890.39 1640.96-1882.5 1629.95-1838.39 1662.42-1838.29 1662.27-1837.34 1643.33-1827.39 1650.65Z" fill-rule="evenodd"/><path d="M194.221 1232.69C129.649 1237.77 64.7762 1237.77 0.204626 1232.69L97.2125 0.0819226 194.221 1232.69Z" fill="#FCECC0" fill-rule="evenodd" transform="matrix(0.587785 -0.809017 -0.809017 -0.587785 -2827.58 1061.59)"/><path d="M-3713.39 295.662-3705.71 284.949-3651.39 324.94-3659.28 335.948-3703.4 303.472-3703.5 303.621-3704.45 322.569-3714.39 315.242Z" fill-rule="evenodd"/><path d="M194.411 1232.61C129.84 1237.69 64.9668 1237.69 0.395538 1232.61L97.4031 0.00288714 194.411 1232.61Z" fill="#1AB89A" fill-rule="evenodd" transform="matrix(0.987688 0.156434 0.156434 -0.987688 -2866.39 967.947)"/><path d="M-2588.18-170.609C-2583.6-169.887-2579.67-168.437-2576.37-166.258-2573.08-164.08-2570.65-161.431-2569.1-158.314-2567.54-155.196-2567.06-151.823-2567.64-148.197-2568.23-144.421-2569.92-141.445-2572.69-139.27-2575.45-137.096-2578.79-135.932-2582.71-135.782L-2582.74-135.557C-2579.64-134.668-2577.1-133.299-2575.1-131.449-2573.12-129.6-2571.71-127.466-2570.89-125.048-2570.08-122.631-2569.88-120.072-2570.31-117.375-2570.93-113.539-2572.56-110.294-2575.22-107.641-2577.87-104.988-2581.27-103.111-2585.4-102.011-2589.52-100.91-2594.09-100.756-2599.12-101.549-2604.56-102.409-2609.03-104.134-2612.51-106.725-2615.98-109.316-2618.44-112.461-2619.9-116.161-2621.34-119.861-2621.75-123.797-2621.11-127.967L-2607.66-125.845C-2608.04-123.478-2607.87-121.355-2607.16-119.478-2606.46-117.6-2605.28-116.061-2603.62-114.862-2601.97-113.663-2599.91-112.872-2597.47-112.487-2595.12-112.118-2592.99-112.196-2591.07-112.722-2589.15-113.249-2587.58-114.168-2586.35-115.48-2585.12-116.792-2584.35-118.421-2584.05-120.37-2583.74-122.259-2584.01-123.991-2584.86-125.568-2585.7-127.145-2587.04-128.486-2588.87-129.589-2590.71-130.691-2592.94-131.452-2595.59-131.868L-2601.65-132.823-2600.04-142.938-2593.99-141.984C-2591.6-141.61-2589.48-141.65-2587.62-142.11-2585.76-142.569-2584.24-143.374-2583.07-144.526-2581.9-145.677-2581.17-147.153-2580.89-148.951-2580.58-150.839-2580.77-152.556-2581.41-154.103-2582.06-155.649-2583.11-156.929-2584.57-157.942-2586.03-158.956-2587.81-159.628-2589.92-159.96-2592.06-160.298-2594.02-160.185-2595.8-159.621-2597.6-159.059-2599.07-158.094-2600.25-156.728-2601.42-155.361-2602.17-153.644-2602.5-151.576L-2615.64-153.649C-2615-157.664-2613.43-161.079-2610.91-163.892-2608.4-166.707-2605.19-168.721-2601.3-169.934-2597.4-171.147-2593.02-171.372-2588.18-170.609Z" fill-rule="evenodd"/><path d="M194.35 1233C129.778 1238.08 64.9051 1238.08 0.333825 1233L97.3413 0.393012 194.35 1233Z" fill="#1AB89A" fill-rule="evenodd" transform="matrix(-0.987688 -0.156434 -0.156434 0.987688 -2674.76 998.289)"/><path d="M-2953.62 2136.5C-2958.2 2135.79-2962.14 2134.33-2965.43 2132.15-2968.72 2129.98-2971.15 2127.33-2972.7 2124.21-2974.26 2121.09-2974.74 2117.72-2974.16 2114.1-2973.56 2110.32-2971.88 2107.34-2969.11 2105.17-2966.35 2102.99-2963.01 2101.83-2959.09 2101.68L-2959.06 2101.45C-2962.16 2100.57-2964.7 2099.19-2966.69 2097.35-2968.68 2095.5-2970.08 2093.36-2970.91 2090.95-2971.73 2088.53-2971.92 2085.97-2971.49 2083.27-2970.87 2079.44-2969.24 2076.19-2966.58 2073.55-2963.93 2070.89-2960.54 2069.01-2956.4 2067.91-2952.28 2066.81-2947.71 2066.65-2942.68 2067.44-2937.24 2068.3-2932.77 2070.03-2929.29 2072.62-2925.82 2075.22-2923.36 2078.36-2921.9 2082.06-2920.46 2085.76-2920.05 2089.69-2920.69 2093.87L-2934.14 2091.75C-2933.76 2089.38-2933.92 2087.25-2934.64 2085.38-2935.34 2083.5-2936.52 2081.96-2938.18 2080.77-2939.84 2079.57-2941.89 2078.78-2944.33 2078.39-2946.68 2078.02-2948.81 2078.1-2950.73 2078.62-2952.65 2079.15-2954.23 2080.06-2955.45 2081.38-2956.68 2082.7-2957.45 2084.32-2957.76 2086.27-2958.05 2088.15-2957.78 2089.89-2956.94 2091.47-2956.1 2093.05-2954.76 2094.38-2952.93 2095.49-2951.09 2096.59-2948.86 2097.35-2946.2 2097.77L-2940.15 2098.72-2941.76 2108.84-2947.81 2107.88C-2950.2 2107.51-2952.32 2107.56-2954.18 2108.01-2956.04 2108.47-2957.56 2109.27-2958.73 2110.43-2959.9 2111.58-2960.63 2113.06-2960.91 2114.85-2961.22 2116.74-2961.03 2118.46-2960.39 2120.01-2959.74 2121.54-2958.69 2122.83-2957.23 2123.84-2955.77 2124.85-2953.99 2125.53-2951.88 2125.86-2949.74 2126.2-2947.78 2126.09-2946 2125.52-2944.2 2124.96-2942.73 2124-2941.55 2122.63-2940.38 2121.26-2939.63 2119.54-2939.3 2117.48L-2926.16 2119.54C-2926.8 2123.57-2928.37 2126.98-2930.89 2129.79-2933.4 2132.6-2936.61 2134.62-2940.51 2135.84-2944.4 2137.05-2948.78 2137.27-2953.62 2136.5Z" fill-rule="evenodd"/><path d="M194.54 1232.69C129.969 1237.77 65.0956 1237.77 0.524377 1232.69L97.5319 0.0819226 194.54 1232.69Z" fill="#1AB89A" fill-rule="evenodd" transform="matrix(0.587785 0.809017 0.809017 -0.587785 -2827.6 904.632)"/><path d="M-1826.09 296.247C-1823.39 299.983-1821.65 303.782-1820.87 307.645-1820.11 311.509-1820.26 315.093-1821.37 318.395-1822.47 321.699-1824.51 324.431-1827.47 326.591-1830.55 328.841-1833.83 329.759-1837.29 329.347-1840.77 328.936-1843.93 327.405-1846.78 324.755L-1846.96 324.89C-1845.42 327.702-1844.6 330.464-1844.51 333.175-1844.42 335.885-1844.93 338.385-1846.06 340.673-1847.18 342.962-1848.85 344.909-1851.06 346.516-1854.18 348.801-1857.62 349.946-1861.35 349.949-1865.08 349.953-1868.78 348.891-1872.45 346.763-1876.12 344.636-1879.44 341.52-1882.4 337.417-1885.62 332.97-1887.53 328.604-1888.14 324.32-1888.76 320.037-1888.26 316.077-1886.68 312.437-1885.09 308.799-1882.6 305.726-1879.21 303.22L-1871.28 314.203C-1873.2 315.613-1874.59 317.231-1875.42 319.057-1876.24 320.882-1876.5 322.804-1876.18 324.822-1875.86 326.841-1874.98 328.845-1873.54 330.836-1872.16 332.753-1870.6 334.202-1868.88 335.181-1867.17 336.16-1865.42 336.619-1863.64 336.555-1861.85 336.49-1860.16 335.879-1858.57 334.718-1857.03 333.594-1856.01 332.176-1855.49 330.464-1854.97 328.754-1854.96 326.862-1855.47 324.792-1855.97 322.722-1857.01 320.605-1858.57 318.442L-1862.14 313.504-1853.89 307.479-1850.32 312.418C-1848.92 314.359-1847.4 315.823-1845.78 316.812-1844.15 317.799-1842.51 318.298-1840.88 318.308-1839.25 318.317-1837.7 317.787-1836.23 316.716-1834.69 315.59-1833.6 314.252-1832.97 312.701-1832.34 311.149-1832.17 309.5-1832.49 307.755-1832.79 306.01-1833.57 304.277-1834.82 302.558-1836.08 300.813-1837.53 299.51-1839.18 298.65-1840.83 297.79-1842.55 297.429-1844.33 297.568-1846.11 297.708-1847.85 298.395-1849.54 299.627L-1857.29 288.9C-1854.02 286.508-1850.5 285.202-1846.76 284.983-1843.01 284.764-1839.35 285.597-1835.76 287.485-1832.17 289.37-1828.95 292.291-1826.09 296.247Z" fill-rule="evenodd"/><path d="M194.221 1232.92C129.649 1238.01 64.7762 1238.01 0.204626 1232.92L97.2125 0.313976 194.221 1232.92Z" fill="#1AB89A" fill-rule="evenodd" transform="matrix(-0.587785 -0.809017 -0.809017 0.587785 -2713.55 1061.6)"/><path d="M-3715.7 1669.65C-3718.4 1665.92-3720.15 1662.12-3720.91 1658.25-3721.69 1654.38-3721.53 1650.81-3720.43 1647.49-3719.32 1644.19-3717.29 1641.47-3714.33 1639.3-3711.25 1637.05-3707.97 1636.14-3704.5 1636.55-3701.03 1636.95-3697.86 1638.49-3695.02 1641.14L-3694.84 1641C-3696.38 1638.2-3697.2 1635.43-3697.29 1632.72-3697.38 1630.01-3696.86 1627.51-3695.74 1625.22-3694.61 1622.93-3692.95 1620.98-3690.74 1619.38-3687.61 1617.09-3684.18 1615.95-3680.44 1615.95-3676.72 1615.94-3673.01 1617-3669.34 1619.13-3665.68 1621.25-3662.35 1624.37-3659.39 1628.48-3656.18 1632.93-3654.26 1637.29-3653.66 1641.58-3653.04 1645.85-3653.53 1649.82-3655.12 1653.45-3656.71 1657.1-3659.19 1660.17-3662.58 1662.67L-3670.51 1651.69C-3668.58 1650.29-3667.21 1648.66-3666.37 1646.84-3665.55 1645.02-3665.29 1643.09-3665.61 1641.07-3665.93 1639.06-3666.81 1637.05-3668.25 1635.06-3669.64 1633.14-3671.19 1631.69-3672.91 1630.71-3674.62 1629.74-3676.38 1629.27-3678.16 1629.34-3679.95 1629.4-3681.63 1630.02-3683.22 1631.17-3684.76 1632.3-3685.79 1633.72-3686.31 1635.43-3686.82 1637.14-3686.83 1639.03-3686.33 1641.1-3685.82 1643.17-3684.79 1645.29-3683.22 1647.45L-3679.65 1652.39-3687.9 1658.42-3691.47 1653.48C-3692.88 1651.53-3694.4 1650.07-3696.02 1649.09-3697.65 1648.09-3699.28 1647.6-3700.91 1647.58-3702.55 1647.57-3704.1 1648.1-3705.56 1649.18-3707.1 1650.31-3708.2 1651.64-3708.83 1653.19-3709.46 1654.74-3709.62 1656.39-3709.31 1658.14-3709.01 1659.89-3708.23 1661.62-3706.98 1663.34-3705.72 1665.08-3704.27 1666.38-3702.61 1667.24-3700.97 1668.1-3699.25 1668.46-3697.47 1668.33-3695.68 1668.19-3693.95 1667.5-3692.26 1666.27L-3684.5 1676.99C-3687.78 1679.39-3691.29 1680.69-3695.04 1680.92-3698.78 1681.13-3702.44 1680.3-3706.03 1678.42-3709.62 1676.53-3712.84 1673.61-3715.7 1669.65Z" fill-rule="evenodd"/><path d="M194.496 1232.97C129.925 1238.05 65.0519 1238.05 0.480709 1232.97L97.4882 0.357644 194.496 1232.97Z" fill="#1AB89A" fill-rule="evenodd" transform="matrix(-0.809017 0.587785 0.587785 0.809017 -2692.09 926.095)"/><path d="M-2084.7 1927.25C-2088.43 1929.95-2092.23 1931.7-2096.1 1932.47-2099.97 1933.24-2103.54 1933.08-2106.85 1931.98-2110.16 1930.88-2112.88 1928.84-2115.04 1925.88-2117.29 1922.8-2118.21 1919.52-2117.8 1916.05-2117.4 1912.58-2115.86 1909.41-2113.21 1906.57L-2113.35 1906.39C-2116.15 1907.93-2118.92 1908.75-2121.63 1908.84-2124.34 1908.93-2126.84 1908.41-2129.12 1907.29-2131.42 1906.16-2133.37 1904.5-2134.97 1902.29-2137.26 1899.16-2138.4 1895.73-2138.4 1891.99-2138.41 1888.27-2137.35 1884.56-2135.22 1880.9-2133.09 1877.23-2129.97 1873.91-2125.87 1870.95-2121.42 1867.73-2117.06 1865.81-2112.77 1865.21-2108.49 1864.59-2104.52 1865.08-2100.89 1866.67-2097.25 1868.26-2094.18 1870.74-2091.68 1874.13L-2102.66 1882.07C-2104.07 1880.14-2105.69 1878.76-2107.51 1877.92-2109.33 1877.1-2111.25 1876.84-2113.28 1877.17-2115.29 1877.49-2117.3 1878.36-2119.3 1879.8-2121.21 1881.19-2122.66 1882.74-2123.64 1884.46-2124.61 1886.17-2125.08 1887.93-2125.01 1889.71-2124.95 1891.5-2124.33 1893.19-2123.18 1894.77-2122.04 1896.31-2120.63 1897.34-2118.92 1897.86-2117.2 1898.37-2115.31 1898.39-2113.24 1897.88-2111.18 1897.37-2109.06 1896.34-2106.9 1894.77L-2101.96 1891.2-2095.93 1899.45-2100.87 1903.02C-2102.82 1904.43-2104.28 1905.95-2105.26 1907.58-2106.25 1909.2-2106.75 1910.83-2106.76 1912.46-2106.78 1914.1-2106.24 1915.65-2105.17 1917.11-2104.05 1918.65-2102.7 1919.75-2101.15 1920.38-2099.6 1921.01-2097.95 1921.18-2096.21 1920.86-2094.46 1920.56-2092.73 1919.78-2091.01 1918.53-2089.27 1917.27-2087.97 1915.82-2087.11 1914.16-2086.25 1912.52-2085.88 1910.8-2086.02 1909.02-2086.16 1907.23-2086.85 1905.5-2088.08 1903.81L-2077.36 1896.06C-2074.96 1899.33-2073.66 1902.84-2073.43 1906.59-2073.22 1910.34-2074.05 1913.99-2075.93 1917.59-2077.82 1921.18-2080.74 1924.39-2084.7 1927.25Z" fill-rule="evenodd"/><path d="M194.264 1232.65C129.693 1237.73 64.8199 1237.73 0.248294 1232.65L97.2562 0.0378937 194.264 1232.65Z" fill="#1AB89A" fill-rule="evenodd" transform="matrix(0.809017 -0.587785 -0.587785 -0.809017 -2849.06 1040.14)"/><path d="M-3457.1 38.6435C-3453.37 35.9436-3449.57 34.2059-3445.7 33.4293-3441.84 32.6527-3438.26 32.8181-3434.95 33.9222-3431.65 35.0275-3428.92 37.0586-3426.76 40.0173-3424.51 43.099-3423.6 46.3759-3424 49.848-3424.41 53.3209-3425.95 56.482-3428.59 59.3318L-3428.46 59.5152C-3425.65 57.9677-3422.88 57.1483-3420.18 57.0562-3417.47 56.9638-3414.97 57.4826-3412.68 58.6116-3410.39 59.7402-3408.44 61.4046-3406.84 63.6061-3404.55 66.7359-3403.41 70.1671-3403.4 73.9003-3403.4 77.6331-3404.46 81.3336-3406.59 85.0013-3408.71 88.669-3411.83 91.9855-3415.94 94.9521-3420.38 98.1675-3424.75 100.082-3429.04 100.694-3433.31 101.306-3437.28 100.818-3440.91 99.2275-3444.55 97.6361-3447.63 95.1513-3450.13 91.7694L-3439.15 83.8285C-3437.73 85.761-3436.11 87.1406-3434.29 87.969-3432.47 88.7974-3430.55 89.0516-3428.53 88.732-3426.51 88.4123-3424.5 87.5322-3422.51 86.0929-3420.6 84.7076-3419.15 83.1568-3418.17 81.4393-3417.2 79.7221-3416.73 77.9707-3416.8 76.187-3416.86 74.4022-3417.48 72.7152-3418.63 71.126-3419.76 69.5854-3421.18 68.5567-3422.88 68.0379-3424.6 67.519-3426.49 67.5133-3428.56 68.0199-3430.63 68.5265-3432.74 69.5616-3434.9 71.1249L-3439.85 74.696-3445.87 66.4433-3440.93 62.8723C-3438.99 61.4689-3437.53 59.9531-3436.54 58.3233-3435.55 56.6938-3435.05 55.0629-3435.04 53.4313-3435.03 51.7993-3435.56 50.2496-3436.63 48.7823-3437.75 47.2427-3439.1 46.1555-3440.65 45.5209-3442.2 44.887-3443.85 44.7238-3445.59 45.0333-3447.34 45.3429-3449.07 46.1195-3450.79 47.3628-3452.53 48.6245-3453.83 50.0796-3454.69 51.7284-3455.55 53.3784-3455.92 55.0956-3455.78 56.8818-3455.64 58.6666-3454.95 60.4032-3453.72 62.0902L-3464.44 69.8442C-3466.84 66.568-3468.14 63.0567-3468.37 59.3113-3468.58 55.5663-3467.74 51.9007-3465.87 48.3138-3463.98 44.7273-3461.06 41.5029-3457.1 38.6435Z" fill-rule="evenodd"/><path d="M194.575 1232.84C130.004 1237.92 65.131 1237.92 0.559744 1232.84L97.5673 0.228806 194.575 1232.84Z" fill="#1AB89A" fill-rule="evenodd" transform="matrix(-0.156434 0.987688 0.987688 0.156434 -2755.41 887.304)"/><path d="M-1617.84 1165.56C-1618.56 1170.05-1620.01 1173.91-1622.19 1177.14-1624.36 1180.37-1627.02 1182.76-1630.14 1184.28-1633.26 1185.81-1636.62 1186.29-1640.25 1185.72-1644.02 1185.13-1647.01 1183.48-1649.18 1180.76-1651.36 1178.04-1652.52 1174.77-1652.67 1170.93L-1652.89 1170.89C-1653.78 1173.93-1655.15 1176.43-1657 1178.39-1658.85 1180.34-1660.98 1181.71-1663.4 1182.52-1665.82 1183.32-1668.37 1183.51-1671.07 1183.09-1674.9 1182.49-1678.16 1180.88-1680.8 1178.28-1683.46 1175.67-1685.33 1172.34-1686.44 1168.29-1687.54 1164.24-1687.69 1159.75-1686.9 1154.82-1686.03 1149.47-1684.32 1145.09-1681.72 1141.68-1679.13 1138.27-1675.99 1135.85-1672.28 1134.43-1668.59 1133.01-1664.66 1132.61-1660.48 1133.23L-1662.6 1146.43C-1664.97 1146.07-1667.1 1146.22-1668.97 1146.92-1670.85 1147.61-1672.38 1148.77-1673.58 1150.4-1674.78 1152.02-1675.57 1154.04-1675.95 1156.44-1676.33 1158.74-1676.25 1160.84-1675.73 1162.72-1675.2 1164.6-1674.28 1166.15-1672.97 1167.35-1671.65 1168.55-1670.02 1169.31-1668.08 1169.61-1666.19 1169.9-1664.45 1169.65-1662.88 1168.81-1661.3 1167.99-1659.97 1166.67-1658.86 1164.88-1657.75 1163.07-1657 1160.88-1656.58 1158.27L-1655.63 1152.34-1645.5 1153.92-1646.46 1159.86C-1646.84 1162.19-1646.79 1164.28-1646.34 1166.1-1645.88 1167.93-1645.07 1169.42-1643.92 1170.57-1642.77 1171.72-1641.29 1172.43-1639.49 1172.71-1637.61 1173.01-1635.89 1172.83-1634.34 1172.2-1632.8 1171.56-1631.52 1170.53-1630.51 1169.1-1629.49 1167.66-1628.82 1165.91-1628.49 1163.84-1628.15 1161.75-1628.26 1159.82-1628.83 1158.07-1629.39 1156.31-1630.35 1154.87-1631.72 1153.71-1633.09 1152.56-1634.8 1151.82-1636.87 1151.5L-1634.8 1138.6C-1630.78 1139.23-1627.37 1140.78-1624.56 1143.25-1621.74 1145.71-1619.73 1148.86-1618.51 1152.68-1617.3 1156.5-1617.08 1160.8-1617.84 1165.56Z" fill-rule="evenodd"/><path d="M194.185 1232.78C129.614 1237.86 64.7408 1237.86 0.169619 1232.78L97.1771 0.167093 194.185 1232.78Z" fill="#1AB89A" fill-rule="evenodd" transform="matrix(0.156434 -0.987688 -0.987688 -0.156434 -2785.75 1078.93)"/><path d="M-3923.95 800.725C-3923.24 796.151-3921.78 792.213-3919.6 788.922-3917.43 785.631-3914.78 783.203-3911.66 781.648-3908.54 780.093-3905.17 779.605-3901.55 780.184-3897.77 780.786-3894.79 782.465-3892.62 785.234-3890.44 788.003-3889.28 791.339-3889.13 795.255L-3888.9 795.289C-3888.02 792.191-3886.64 789.648-3884.8 787.663-3882.95 785.665-3880.81 784.269-3878.4 783.441-3875.98 782.624-3873.42 782.431-3870.72 782.862-3866.89 783.475-3863.64 785.109-3861 787.765-3858.34 790.42-3856.46 793.814-3855.36 797.944-3854.26 802.064-3854.1 806.638-3854.89 811.665-3855.75 817.112-3857.48 821.583-3860.07 825.056-3862.67 828.529-3865.81 830.991-3869.51 832.444-3873.21 833.885-3877.14 834.294-3881.32 833.658L-3879.2 820.211C-3876.82 820.585-3874.7 820.426-3872.83 819.722-3870.95 819.007-3869.41 817.827-3868.22 816.17-3867.02 814.513-3866.23 812.459-3865.84 810.019-3865.47 807.67-3865.55 805.536-3866.07 803.619-3866.6 801.701-3867.51 800.123-3868.83 798.898-3870.15 797.672-3871.77 796.901-3873.72 796.594-3875.6 796.299-3877.34 796.571-3878.92 797.411-3880.5 798.251-3881.83 799.59-3882.94 801.417-3884.04 803.256-3884.8 805.491-3885.22 808.147L-3886.17 814.196-3896.29 812.584-3895.33 806.535C-3894.96 804.152-3895 802.03-3895.46 800.169-3895.92 798.308-3896.72 796.787-3897.88 795.618-3899.03 794.449-3900.5 793.723-3902.3 793.439-3904.19 793.133-3905.91 793.314-3907.46 793.961-3908.99 794.608-3910.28 795.663-3911.29 797.116-3912.3 798.58-3912.98 800.362-3913.31 802.472-3913.65 804.606-3913.53 806.569-3912.97 808.351-3912.41 810.144-3911.44 811.62-3910.08 812.8-3908.71 813.969-3906.99 814.718-3904.93 815.047L-3906.99 828.188C-3911.02 827.553-3914.43 825.975-3917.24 823.456-3920.05 820.948-3922.07 817.736-3923.29 813.844-3924.49 809.951-3924.72 805.57-3923.95 800.725Z" fill-rule="evenodd"/><path d="M193.562 1233.38C129.329 1238.47 64.7955 1238.47 0.56179 1233.38L97.0621 0.197779 193.562 1233.38Z" fill="#FFBC25" fill-rule="evenodd" transform="matrix(6.12323e-17 1 1 -6.12323e-17 -2771 887)"/><path d="M-1614.7 1002.68C-1614.7 999.812-1615.65 997.332-1617.54 995.248-1619.45 993.175-1622.16 991.567-1625.71 990.458-1629.24 989.336-1633.49 988.781-1638.44 988.781-1643.37 988.781-1647.6 989.336-1651.13 990.458-1654.68 991.567-1657.39 993.175-1659.27 995.248-1661.16 997.332-1662.1 999.812-1662.1 1002.68-1662.1 1005.58-1661.16 1008.07-1659.27 1010.15-1657.39 1012.24-1654.68 1013.83-1651.13 1014.93-1647.6 1016.04-1643.37 1016.58-1638.44 1016.58-1633.49 1016.58-1629.24 1016.04-1625.71 1014.93-1622.16 1013.83-1619.45 1012.24-1617.54 1010.15-1615.65 1008.07-1614.7 1005.58-1614.7 1002.68ZM-1604.45 952.257-1604.45 965.394-1672.35 965.394-1672.35 951.895-1617.21 951.895-1617.21 951.714-1627.55 935.949-1615.11 935.949ZM-1603.4 1002.68C-1603.4 1008.36-1604.81 1013.23-1607.63 1017.29-1610.47 1021.35-1614.5 1024.48-1619.73 1026.66-1624.97 1028.85-1631.22 1029.95-1638.44 1029.95-1645.68 1029.95-1651.9 1028.86-1657.13 1026.69-1662.36 1024.51-1666.38 1021.39-1669.19 1017.31-1672 1013.23-1673.4 1008.36-1673.4 1002.68-1673.4 997.037-1671.99 992.179-1669.16 988.124-1666.33 984.059-1662.31 980.933-1657.11 978.747-1651.89 976.55-1645.68 975.463-1638.44 975.463-1631.22 975.463-1624.97 976.55-1619.73 978.747-1614.5 980.933-1610.47 984.059-1607.63 988.124-1604.81 992.179-1603.4 997.037-1603.4 1002.68Z" fill-rule="evenodd"/><path d="M193.167 1233.38C128.934 1238.47 64.4007 1238.47 0.166951 1233.38L96.6672 0.197779 193.167 1233.38Z" fill="#FFBC25" fill-rule="evenodd" transform="matrix(-1.83697e-16 -1 -1 1.83697e-16 -2771 1080)"/><path d="M-3928.1 963.22C-3928.1 966.085-3927.15 968.565-3925.25 970.65-3923.34 972.722-3920.63 974.33-3917.09 975.44-3913.55 976.561-3909.31 977.116-3904.35 977.116-3899.43 977.116-3895.2 976.561-3891.66 975.44-3888.12 974.33-3885.41 972.722-3883.52 970.65-3881.64 968.565-3880.7 966.085-3880.7 963.22-3880.7 960.321-3881.64 957.829-3883.52 955.745-3885.41 953.661-3888.12 952.065-3891.66 950.966-3895.2 949.856-3899.43 949.313-3904.35 949.313-3909.31 949.313-3913.55 949.856-3917.09 950.966-3920.63 952.065-3923.34 953.661-3925.25 955.745-3927.15 957.829-3928.1 960.321-3928.1 963.22ZM-3938.35 1013.64-3938.35 1000.5-3870.45 1000.5-3870.45 1014-3925.59 1014-3925.59 1014.18-3915.25 1029.95-3927.69 1029.95ZM-3939.4 963.22C-3939.4 957.535-3937.99 952.665-3935.16 948.61-3932.33 944.544-3928.3 941.419-3923.06 939.233-3917.82 937.047-3911.58 935.949-3904.35 935.949-3897.12 935.949-3890.89 937.036-3885.67 939.211-3880.44 941.385-3876.42 944.511-3873.61 948.588-3870.8 952.665-3869.4 957.535-3869.4 963.22-3869.4 968.86-3870.81 973.719-3873.63 977.773-3876.47 981.839-3880.48 984.965-3885.69 987.15-3890.91 989.347-3897.12 990.435-3904.35 990.435-3911.58 990.435-3917.82 989.347-3923.06 987.15-3928.3 984.965-3932.33 981.839-3935.16 977.773-3937.99 973.719-3939.4 968.86-3939.4 963.22Z" fill-rule="evenodd"/><path d="M194.52 1232.67C129.949 1237.75 65.0758 1237.75 0.504167 1232.67L97.512 0.0581037 194.52 1232.67Z" fill="#7B12EE" fill-rule="evenodd" transform="matrix(0.707107 0.707107 0.707107 -0.707107 -2839.19 914.539)"/><path d="M-1960.7 142.949-1930.4 173.205-1938.41 181.203-1960.13 159.522-1972.59 170.089-1972.49 170.186C-1970.08 170.1-1967.73 170.555-1965.43 171.551-1963.12 172.546-1960.96 174.041-1958.98 176.032-1956.81 178.195-1955.17 180.619-1954.06 183.307-1952.96 185.994-1952.42 188.778-1952.46 191.658-1952.49 194.538-1953.09 197.364-1954.25 200.137-1955.43 202.91-1957.17 205.453-1959.48 207.766-1962.75 211.02-1966.39 213.172-1970.4 214.222-1974.41 215.27-1978.46 215.185-1982.56 213.964-1986.65 212.744-1990.48 210.356-1994.04 206.802-1997.41 203.441-1999.76 199.816-2001.11 195.93-2002.44 192.043-2002.75 188.2-2002 184.398-2001.27 180.597-1999.47 177.123-1996.61 173.976L-1987.23 183.354C-1988.57 184.876-1989.44 186.561-1989.81 188.414-1990.19 190.265-1990.07 192.134-1989.47 194.018-1988.88 195.903-1987.8 197.615-1986.25 199.158-1984.63 200.785-1982.81 201.851-1980.8 202.354-1978.8 202.857-1976.78 202.792-1974.76 202.161-1972.72 201.529-1970.85 200.345-1969.11 198.611-1967.35 196.855-1966.15 194.961-1965.51 192.927-1964.86 190.893-1964.77 188.879-1965.25 186.888-1965.72 184.897-1966.76 183.097-1968.36 181.492-1970.32 179.543-1972.43 178.248-1974.71 177.606-1976.98 176.963-1979.13 177.07-1981.14 177.926L-1989.79 168.644Z" fill-rule="evenodd"/><path d="M194.241 1232.95C129.669 1238.03 64.7964 1238.03 0.224836 1232.95L97.2327 0.337434 194.241 1232.95Z" fill="#7B12EE" fill-rule="evenodd" transform="matrix(-0.707107 -0.707107 -0.707107 0.707107 -2701.96 1051.7)"/><path d="M-3581.09 1823.95-3611.4 1793.7-3603.38 1785.7-3581.67 1807.37-3569.21 1796.81-3569.31 1796.72C-3571.72 1796.8-3574.07 1796.35-3576.37 1795.35-3578.68 1794.35-3580.83 1792.86-3582.82 1790.87-3584.99 1788.7-3586.63 1786.28-3587.73 1783.59-3588.84 1780.91-3589.37 1778.12-3589.34 1775.24-3589.3 1772.36-3588.71 1769.53-3587.54 1766.76-3586.37 1764-3584.63 1761.45-3582.31 1759.14-3579.05 1755.88-3575.41 1753.72-3571.4 1752.67-3567.39 1751.63-3563.34 1751.72-3559.24 1752.93-3555.15 1754.15-3551.32 1756.54-3547.76 1760.09-3544.38 1763.47-3542.03 1767.08-3540.69 1770.98-3539.36 1774.85-3539.05 1778.7-3539.8 1782.5-3540.53 1786.3-3542.33 1789.77-3545.18 1792.93L-3554.57 1783.55C-3553.23 1782.03-3552.36 1780.33-3551.98 1778.48-3551.61 1776.64-3551.72 1774.76-3552.32 1772.88-3552.92 1771-3553.99 1769.28-3555.54 1767.74-3557.17 1766.12-3558.99 1765.06-3561 1764.55-3563 1764.04-3565.02 1764.11-3567.04 1764.74-3569.07 1765.37-3570.95 1766.56-3572.69 1768.29-3574.45 1770.04-3575.65 1771.94-3576.29 1773.97-3576.94 1776-3577.03 1778.02-3576.55 1780.01-3576.08 1782-3575.04 1783.81-3573.43 1785.41-3571.48 1787.36-3569.37 1788.66-3567.09 1789.3-3564.82 1789.94-3562.67 1789.83-3560.66 1788.97L-3552.01 1798.25Z" fill-rule="evenodd"/><path d="M194.241 1232.67C129.669 1237.75 64.7964 1237.75 0.224836 1232.67L97.2327 0.0581037 194.241 1232.67Z" fill="#7B12EE" fill-rule="evenodd" transform="matrix(0.707107 -0.707107 -0.707107 -0.707107 -2839.16 1051.73)"/><path d="M-3611.4 173.257-3581.14 142.949-3573.15 150.96-3594.82 172.678-3584.26 185.13-3584.17 185.033C-3584.25 182.63-3583.79 180.277-3582.8 177.971-3581.8 175.666-3580.31 173.515-3578.31 171.52-3576.15 169.354-3573.72 167.718-3571.04 166.613-3568.36 165.508-3565.57 164.972-3562.69 165.005-3559.81 165.036-3556.98 165.637-3554.21 166.806-3551.44 167.975-3548.9 169.718-3546.58 172.034-3543.32 175.295-3541.17 178.931-3540.12 182.942-3539.07 186.953-3539.16 191.007-3540.38 195.104-3541.6 199.201-3543.99 203.03-3547.54 206.591-3550.9 209.958-3554.53 212.312-3558.42 213.653-3562.3 214.993-3566.15 215.294-3569.95 214.554-3573.75 213.814-3577.22 212.017-3580.38 209.165L-3571 199.769C-3569.47 201.12-3567.78 201.984-3565.93 202.359-3564.08 202.734-3562.21 202.623-3560.33 202.022-3558.45 201.421-3556.73 200.349-3555.19 198.805-3553.56 197.175-3552.5 195.356-3552 193.35-3551.49 191.345-3551.56 189.329-3552.19 187.301-3552.82 185.275-3554 183.392-3555.74 181.654-3557.49 179.896-3559.38 178.695-3561.42 178.051-3563.45 177.407-3565.47 177.321-3567.46 177.794-3569.45 178.266-3571.26 179.306-3572.86 180.915-3574.81 182.867-3576.1 184.98-3576.75 187.254-3577.39 189.528-3577.28 191.671-3576.42 193.689L-3585.7 202.344Z" fill-rule="evenodd"/><path d="M194.52 1232.95C129.949 1238.03 65.0758 1238.03 0.504167 1232.95L97.512 0.337434 194.52 1232.95Z" fill="#7B12EE" fill-rule="evenodd" transform="matrix(-0.707107 0.707107 0.707107 0.707107 -2702 914.505)"/><path d="M-1930.4 1792.64-1960.65 1822.95-1968.65 1814.94-1946.97 1793.22-1957.54 1780.77-1957.63 1780.86C-1957.55 1783.27-1958 1785.62-1958.99 1787.92-1960 1790.23-1961.48 1792.38-1963.48 1794.37-1965.65 1796.54-1968.07 1798.18-1970.75 1799.29-1973.44 1800.39-1976.22 1800.92-1979.11 1800.89-1981.98 1800.86-1984.81 1800.26-1987.59 1799.09-1990.35 1797.92-1992.9 1796.18-1995.21 1793.86-1998.47 1790.6-2000.62 1786.96-2001.67 1782.95-2002.72 1778.94-2002.63 1774.89-2001.41 1770.8-2000.2 1766.7-1997.8 1762.87-1994.25 1759.31-1990.88 1755.93-1987.26 1753.58-1983.37 1752.24-1979.49 1750.91-1975.65 1750.6-1971.85 1751.35-1968.05 1752.08-1964.57 1753.88-1961.42 1756.73L-1970.8 1766.12C-1972.32 1764.78-1974.01 1763.91-1975.86 1763.53-1977.71 1763.16-1979.58 1763.27-1981.47 1763.87-1983.35 1764.47-1985.06 1765.55-1986.61 1767.09-1988.23 1768.72-1989.29 1770.54-1989.8 1772.55-1990.31 1774.55-1990.24 1776.57-1989.61 1778.59-1988.98 1780.62-1987.79 1782.5-1986.06 1784.24-1984.31 1786-1982.4 1787.2-1980.37 1787.84-1978.34 1788.49-1976.32 1788.58-1974.34 1788.1-1972.34 1787.63-1970.54 1786.59-1968.94 1784.98-1966.99 1783.03-1965.69 1780.92-1965.05 1778.65-1964.41 1776.37-1964.52 1774.22-1965.38 1772.21L-1956.1 1763.56Z" fill-rule="evenodd"/><path d="M-3046.4 982.949C-3046.4 830.523-2923.06 706.949-2770.9 706.949-2618.74 706.949-2495.4 830.523-2495.4 982.949-2495.4 1135.38-2618.74 1258.95-2770.9 1258.95-2923.06 1258.95-3046.4 1135.38-3046.4 982.949Z" fill="#FFFFFF" fill-rule="evenodd"/><path d="M-2901.69 1000.19C-2906.02 1000.19-2909.4 1001.87-2911.84 1005.22-2914.28 1008.57-2915.5 1013.26-2915.5 1019.3-2915.5 1023.34-2914.93 1026.82-2913.79 1029.75-2912.67 1032.68-2911.06 1034.95-2908.97 1036.57-2906.86 1038.18-2904.38 1039-2901.49 1039-2897.07 1039-2893.6 1037.31-2891.1 1033.94-2888.6 1030.56-2887.34 1025.86-2887.34 1019.83-2887.34 1013.8-2888.63 1009.02-2891.2 1005.49-2893.77 1001.96-2897.27 1000.19-2901.69 1000.19ZM-2968.37 1000.19-2968.37 1018.01-2964.04 1018.01C-2961.51 1018.01-2959.57 1017.22-2958.21 1015.65-2956.87 1014.07-2956.19 1011.78-2956.19 1008.76-2956.19 1003.05-2958.81 1000.19-2964.04 1000.19ZM-2804.45 994.186-2778.8 994.186C-2778.35 994.186-2778.12 994.413-2778.12 994.867L-2778.12 996.548C-2778.12 997.002-2778.33 997.297-2778.73 997.422L-2783.4 998.909C-2784.03 999.136-2784.46 999.385-2784.72 999.658-2784.97 999.919-2785.1 1000.51-2785.1 1001.41L-2785.1 1036.63C-2785.1 1037.54-2784.92 1038.15-2784.55 1038.49-2784.19 1038.83-2783.65 1039-2782.93 1039L-2771.42 1039C-2770.52 1039-2769.8 1038.84-2769.3 1038.53-2768.78 1038.21-2768.34 1037.79-2767.97 1037.24L-2764.05 1031.51C-2763.78 1031.15-2763.42 1031.03-2762.97 1031.17L-2760.66 1031.77C-2760.21 1031.91-2760.02 1032.2-2760.05 1032.66L-2761.61 1042.84C-2761.7 1043.57-2761.85 1044.1-2762.04 1044.46-2762.25 1044.83-2762.67 1045.05-2763.31 1045.14-2763.94 1045.23-2764.9 1045.23-2766.21 1045.14L-2770.06 1044.94-2804.45 1044.94C-2804.9 1044.94-2805.12 1044.71-2805.12 1044.26L-2805.12 1042.58C-2805.12 1042.12-2804.9 1041.83-2804.45 1041.69L-2800.12 1040.35C-2799.3 1040.03-2798.79 1039.72-2798.59 1039.4-2798.39 1039.09-2798.29 1038.59-2798.29 1037.92L-2798.29 1001.2C-2798.29 1000.53-2798.39 1000.03-2798.59 999.726-2798.79 999.408-2799.3 999.113-2800.12 998.84L-2804.45 997.422C-2804.9 997.297-2805.12 997.002-2805.12 996.548L-2805.12 994.867C-2805.12 994.413-2804.9 994.186-2804.45 994.186ZM-2866.69 994.186-2841.03 994.186C-2840.58 994.186-2840.35 994.413-2840.35 994.867L-2840.35 996.548C-2840.35 997.002-2840.56 997.297-2840.96 997.422L-2845.71 998.909C-2846.33 999.136-2846.76 999.385-2846.99 999.658-2847.21 999.919-2847.33 1000.51-2847.33 1001.41L-2847.33 1028.94C-2847.33 1032.04-2846.35 1034.5-2844.41 1036.3-2842.48 1038.09-2839.81 1039-2836.43 1039-2832.92 1039-2830.16 1037.96-2828.17 1035.89-2826.19 1033.83-2825.21 1030.94-2825.21 1027.25L-2825.21 1001.2C-2825.21 1000.53-2825.3 1000.03-2825.5 999.726-2825.7 999.408-2826.24 999.113-2827.08 998.84L-2831.49 997.422C-2831.9 997.297-2832.1 997.002-2832.1 996.548L-2832.1 994.867C-2832.1 994.413-2831.88 994.186-2831.42 994.186L-2809.77 994.186C-2809.32 994.186-2809.09 994.413-2809.09 994.867L-2809.09 996.548C-2809.09 997.002-2809.29 997.297-2809.7 997.422L-2814.37 998.909C-2815 999.136-2815.43 999.385-2815.65 999.658-2815.88 999.919-2816 1000.51-2816 1001.41L-2816 1025.9C-2816 1032.29-2817.96 1037.23-2821.88 1040.72-2825.81 1044.2-2831.38 1045.95-2838.6 1045.95-2845.64 1045.95-2851.04 1044.36-2854.83 1041.19-2858.63 1038.01-2860.53 1033.51-2860.53 1027.66L-2860.53 1001.2C-2860.53 1000.53-2860.63 1000.03-2860.82 999.726-2861.04 999.408-2861.57 999.113-2862.41 998.84L-2866.74 997.422C-2867.16 997.297-2867.35 997.002-2867.35 996.548L-2867.35 994.867C-2867.35 994.413-2867.14 994.186-2866.69 994.186ZM-2987.73 994.186-2964.04 994.186C-2950.14 994.186-2943.19 999.045-2943.19 1008.76-2943.19 1016.37-2947.26 1021.13-2955.37 1023.08-2954.15 1023.7-2953.06 1024.48-2952.06 1025.44-2951.07 1026.38-2950.05 1027.48-2949.01 1028.74L-2941.63 1038.05C-2941.1 1038.77-2940.56 1039.32-2940.01 1039.71-2939.47 1040.09-2938.86 1040.39-2938.19 1040.61L-2935.62 1041.62C-2935.21 1041.81-2935.01 1042.12-2935.01 1042.58L-2935.01 1044.26C-2935.01 1044.71-2935.23 1044.94-2935.67 1044.94L-2949.21 1044.94C-2949.98 1044.94-2950.59 1044.87-2951.04 1044.73-2951.5 1044.6-2951.93 1044.28-2952.37 1043.79-2952.8 1043.29-2953.36 1042.49-2954.09 1041.36L-2963.09 1027.25C-2964.04 1025.81-2964.8 1024.91-2965.35 1024.55-2965.92 1024.2-2966.54 1024.02-2967.22 1024.02L-2968.37 1024.02-2968.37 1037.72C-2968.37 1038.62-2968.25 1039.19-2968 1039.47-2967.75 1039.74-2967.31 1039.99-2966.68 1040.22L-2962.01 1041.69C-2961.6 1041.87-2961.4 1042.17-2961.4 1042.58L-2961.4 1044.26C-2961.4 1044.71-2961.62 1044.94-2962.08 1044.94L-2987.73 1044.94C-2988.17 1044.94-2988.4 1044.71-2988.4 1044.26L-2988.4 1042.58C-2988.4 1042.12-2988.17 1041.83-2987.73 1041.69L-2983.39 1040.35C-2982.58 1040.03-2982.07 1039.72-2981.87 1039.4-2981.66 1039.09-2981.56 1038.59-2981.56 1037.92L-2981.56 1001.2C-2981.56 1000.53-2981.66 1000.03-2981.87 999.726-2982.07 999.408-2982.58 999.113-2983.39 998.84L-2987.73 997.422C-2988.17 997.297-2988.4 997.002-2988.4 996.548L-2988.4 994.867C-2988.4 994.413-2988.17 994.186-2987.73 994.186ZM-2558.52 993.653C-2557.77 993.608-2557.2 993.642-2556.86 993.744-2556.53 993.857-2556.3 994.209-2556.19 994.788-2556.08 995.378-2556 996.343-2555.96 997.694L-2555.82 1006.6C-2555.82 1007.05-2556.05 1007.32-2556.5 1007.41L-2558.86 1007.75C-2559.27 1007.8-2559.61 1007.64-2559.88 1007.27L-2563 1002.16C-2563.49 1001.38-2564.01 1000.87-2564.55 1000.6-2565.09 1000.33-2565.7 1000.19-2566.38 1000.19L-2582.08 1000.19-2582.08 1016.59-2570.23 1016.59C-2569.33 1016.59-2568.64 1016.44-2568.13 1016.12-2567.64 1015.81-2567.23 1015.36-2566.92 1014.77L-2565.43 1012C-2565.25 1011.6-2564.93 1011.4-2564.48 1011.4L-2562.31 1011.4C-2561.87 1011.4-2561.64 1011.62-2561.64 1012.06L-2561.64 1027.46C-2561.64 1027.91-2561.87 1028.13-2562.31 1028.13L-2564.48 1028.13C-2564.93 1028.13-2565.25 1027.91-2565.43 1027.46L-2566.85 1024.55C-2567.25 1023.79-2567.72 1023.26-2568.24 1022.97-2568.75 1022.68-2569.35 1022.53-2570.03 1022.53L-2582.08 1022.53-2582.08 1036.63C-2582.08 1037.54-2581.9 1038.15-2581.53 1038.49-2581.17 1038.83-2580.63 1039-2579.92 1039L-2566.38 1039C-2565.47 1039-2564.75 1038.85-2564.21 1038.56-2563.67 1038.26-2563.19 1037.86-2562.8 1037.31L-2558.4 1031.51C-2558.22 1031.1-2557.87 1030.99-2557.37 1031.17L-2555.01 1031.77C-2554.6 1031.91-2554.4 1032.2-2554.4 1032.66L-2555.96 1042.84C-2556.09 1043.57-2556.26 1044.1-2556.47 1044.46-2556.66 1044.83-2557.08 1045.05-2557.68 1045.14-2558.29 1045.23-2559.25 1045.23-2560.56 1045.14L-2564.82 1044.94-2601.44 1044.94C-2601.88 1044.94-2602.1 1044.71-2602.1 1044.26L-2602.1 1042.58C-2602.1 1042.12-2601.88 1041.83-2601.44 1041.69L-2597.1 1040.35C-2596.29 1040.03-2595.79 1039.72-2595.57 1039.4-2595.37 1039.09-2595.28 1038.59-2595.28 1037.92L-2595.28 1001.2C-2595.28 1000.53-2595.37 1000.03-2595.57 999.726-2595.79 999.408-2596.29 999.113-2597.1 998.84L-2601.44 997.422C-2601.88 997.297-2602.1 997.002-2602.1 996.548L-2602.1 994.867C-2602.1 994.413-2601.88 994.186-2601.44 994.186L-2564.48 994.186ZM-2713.61 993.653C-2712.84 993.608-2712.29 993.642-2711.95 993.744-2711.61 993.857-2711.38 994.209-2711.27 994.788-2711.16 995.378-2711.08 996.343-2711.03 997.694L-2710.9 1006.6C-2710.9 1007.05-2711.12 1007.32-2711.58 1007.41L-2713.95 1007.75C-2714.36 1007.8-2714.7 1007.64-2714.97 1007.27L-2718.08 1002.16C-2718.57 1001.38-2719.09 1000.87-2719.63 1000.6-2720.17 1000.33-2720.78 1000.19-2721.47 1000.19L-2737.15 1000.19-2737.15 1016.59-2725.32 1016.59C-2724.42 1016.59-2723.71 1016.44-2723.22 1016.12-2722.72 1015.81-2722.31 1015.36-2722 1014.77L-2720.51 1012C-2720.32 1011.6-2720.02 1011.4-2719.57 1011.4L-2717.4 1011.4C-2716.94 1011.4-2716.72 1011.62-2716.72 1012.06L-2716.72 1027.46C-2716.72 1027.91-2716.94 1028.13-2717.4 1028.13L-2719.57 1028.13C-2720.02 1028.13-2720.32 1027.91-2720.51 1027.46L-2721.93 1024.55C-2722.34 1023.79-2722.8 1023.26-2723.32 1022.97-2723.84 1022.68-2724.44 1022.53-2725.1 1022.53L-2737.15 1022.53-2737.15 1036.63C-2737.15 1037.54-2736.97 1038.15-2736.61 1038.49-2736.25 1038.83-2735.71 1039-2734.99 1039L-2721.47 1039C-2720.56 1039-2719.84 1038.85-2719.3 1038.56-2718.75 1038.26-2718.28 1037.86-2717.87 1037.31L-2713.48 1031.51C-2713.28 1031.1-2712.96 1030.99-2712.46 1031.17L-2710.08 1031.77C-2709.68 1031.91-2709.49 1032.2-2709.49 1032.66L-2711.03 1042.84C-2711.17 1043.57-2711.34 1044.1-2711.54 1044.46-2711.75 1044.83-2712.15 1045.05-2712.76 1045.14-2713.37 1045.23-2714.33 1045.23-2715.63 1045.14L-2719.91 1044.94-2756.5 1044.94C-2756.95 1044.94-2757.19 1044.71-2757.19 1044.26L-2757.19 1042.58C-2757.19 1042.12-2756.95 1041.83-2756.5 1041.69L-2752.17 1040.35C-2751.36 1040.03-2750.86 1039.72-2750.66 1039.4-2750.46 1039.09-2750.35 1038.59-2750.35 1037.92L-2750.35 1001.2C-2750.35 1000.53-2750.46 1000.03-2750.66 999.726-2750.86 999.408-2751.36 999.113-2752.17 998.84L-2756.5 997.422C-2756.95 997.297-2757.19 997.002-2757.19 996.548L-2757.19 994.867C-2757.19 994.413-2756.95 994.186-2756.5 994.186L-2719.57 994.186ZM-2652.12 993.415C-2651.53 993.392-2650.59 993.494-2649.27 993.71L-2647.58 993.914C-2645.74 994.005-2643.97 994.073-2642.27 994.119-2640.58 994.164-2638.73 994.186-2636.72 994.186-2634.72 994.186-2632.35 994.186-2629.65 994.186-2626.9 994.186-2624.51 994.186-2622.47 994.186-2620.44 994.186-2618.59 994.164-2616.89 994.119-2615.2 994.073-2613.45 994.005-2611.64 993.914L-2608.26 993.449C-2607.54 993.312-2607.01 993.301-2606.65 993.415-2606.29 993.528-2606.05 993.857-2605.92 994.425-2605.81 994.981-2605.77 995.946-2605.77 997.297L-2605.42 1008.56C-2605.42 1008.97-2605.65 1009.22-2606.11 1009.31L-2608.4 1009.57C-2608.85 1009.61-2609.15 1009.44-2609.28 1009.03L-2612.25 1002.21C-2612.66 1001.41-2613.1 1000.87-2613.58 1000.6-2614.05 1000.33-2614.65 1000.19-2615.37 1000.19L-2623.01 1000.19-2623.01 1037.72C-2623.01 1038.62-2622.9 1039.19-2622.69 1039.47-2622.45 1039.74-2622.03 1039.99-2621.4 1040.22L-2616.66 1041.69C-2616.25 1041.87-2616.04 1042.17-2616.04 1042.58L-2616.04 1044.26C-2616.04 1044.71-2616.28 1044.94-2616.73 1044.94L-2642.37 1044.94C-2642.83 1044.94-2643.04 1044.71-2643.04 1044.26L-2643.04 1042.58C-2643.04 1042.12-2642.85 1041.83-2642.44 1041.69L-2638.1 1040.35C-2637.25 1040.03-2636.72 1039.72-2636.52 1039.4-2636.32 1039.09-2636.21 1038.59-2636.21 1037.92L-2636.21 1000.19-2643.66 1000.19C-2644.57 1000.19-2645.26 1000.36-2645.72 1000.7-2646.19 1001.03-2646.57 1001.5-2646.84 1002.09L-2649.96 1009.03C-2650.08 1009.44-2650.38 1009.61-2650.83 1009.57L-2653.13 1009.31C-2653.57 1009.22-2653.81 1008.97-2653.81 1008.56L-2653.54 995.537C-2653.48 994.822-2653.39 994.289-2653.23 993.948-2653.08 993.608-2652.7 993.437-2652.12 993.415ZM-2702.87 993.415C-2702.29 993.392-2701.34 993.494-2700.03 993.71L-2698.33 993.914C-2696.49 994.005-2694.71 994.073-2693.02 994.119-2691.33 994.164-2689.48 994.186-2687.48 994.186-2685.47 994.186-2683.12 994.186-2680.41 994.186-2677.65 994.186-2675.26 994.186-2673.23 994.186-2671.21 994.186-2669.34 994.164-2667.65 994.119-2665.96 994.073-2664.2 994.005-2662.41 993.914L-2659.02 993.449C-2658.3 993.312-2657.76 993.301-2657.39 993.415-2657.03 993.528-2656.8 993.857-2656.68 994.425-2656.57 994.981-2656.51 995.946-2656.51 997.297L-2656.17 1008.56C-2656.17 1008.97-2656.4 1009.22-2656.85 1009.31L-2659.16 1009.57C-2659.61 1009.61-2659.89 1009.44-2660.04 1009.03L-2663.01 1002.21C-2663.42 1001.41-2663.86 1000.87-2664.33 1000.6-2664.8 1000.33-2665.4 1000.19-2666.12 1000.19L-2673.77 1000.19-2673.77 1037.72C-2673.77 1038.62-2673.66 1039.19-2673.43 1039.47-2673.21 1039.74-2672.78 1039.99-2672.14 1040.22L-2667.41 1041.69C-2667 1041.87-2666.81 1042.17-2666.81 1042.58L-2666.81 1044.26C-2666.81 1044.71-2667.02 1044.94-2667.48 1044.94L-2693.12 1044.94C-2693.57 1044.94-2693.81 1044.71-2693.81 1044.26L-2693.81 1042.58C-2693.81 1042.12-2693.59 1041.83-2693.2 1041.69L-2688.87 1040.35C-2688 1040.03-2687.48 1039.72-2687.28 1039.4-2687.06 1039.09-2686.97 1038.59-2686.97 1037.92L-2686.97 1000.19-2694.41 1000.19C-2695.31 1000.19-2696 1000.36-2696.48 1000.7-2696.95 1001.03-2697.32 1001.5-2697.6 1002.09L-2700.7 1009.03C-2700.84 1009.44-2701.13 1009.61-2701.59 1009.57L-2703.89 1009.31C-2704.34 1009.22-2704.56 1008.97-2704.56 1008.56L-2704.29 995.537C-2704.25 994.822-2704.14 994.289-2703.98 993.948-2703.83 993.608-2703.46 993.437-2702.87 993.415ZM-2901.49 993.244C-2895.8 993.244-2890.83 994.345-2886.57 996.548-2882.31 998.75-2878.98 1001.83-2876.62 1005.76-2874.25 1009.69-2873.06 1014.28-2873.06 1019.49-2873.06 1024.8-2874.24 1029.43-2876.59 1033.39-2878.93 1037.36-2882.25 1040.42-2886.53 1042.61-2890.82 1044.79-2895.8 1045.88-2901.49 1045.88-2907.12 1045.88-2912.08 1044.78-2916.35 1042.58-2920.6 1040.36-2923.92 1037.29-2926.28 1033.33-2928.66 1029.36-2929.84 1024.76-2929.84 1019.49-2929.84 1014.32-2928.64 1009.75-2926.25 1005.79-2923.86 1001.84-2920.55 998.75-2916.31 996.548-2912.06 994.345-2907.12 993.244-2901.49 993.244ZM-2708.98 925.828-2710.24 930.335C-2710.9 932.617-2711.55 934.807-2712.2 936.885L-2713.29 940.199-2704.68 940.199-2705.76 936.885C-2706.39 934.785-2707.04 932.605-2707.71 930.324ZM-2713.35 919.948-2704.59 919.948-2693.05 952.89-2700.57 952.89-2702.93 945.614-2715.08 945.614-2717.48 952.89-2724.82 952.89ZM-2763.63 919.948-2736.87 919.948-2736.87 925.715-2746.84 925.715-2746.84 952.89-2753.61 952.89-2753.61 925.715-2763.63 925.715ZM-2798.92 919.948-2775.66 919.948-2775.66 925.715-2792.14 925.715-2792.14 933.434-2776.91 933.434-2776.91 939.076-2792.14 939.076-2792.14 947.124-2775.66 947.124-2775.66 952.89-2798.92 952.89ZM-2849.74 919.948-2839.73 919.948-2834.33 935.25C-2834.1 935.943-2833.84 936.805-2833.55 937.827-2833.24 938.86-2832.93 939.95-2832.62 941.107L-2831.88 943.866-2831.14 941.119C-2830.82 939.972-2830.52 938.883-2830.23 937.849-2829.93 936.805-2829.67 935.943-2829.46 935.25L-2824.13 919.948-2814.12 919.948-2814.12 952.89-2820.78 952.89-2820.78 937.259C-2820.78 936.521-2820.78 935.636-2820.74 934.615-2820.72 933.593-2820.7 932.492-2820.66 931.311-2820.64 930.131-2820.61 928.939-2820.58 927.735L-2820.56 927.088-2820.81 927.951C-2821.17 929.188-2821.52 930.392-2821.86 931.561-2822.2 932.741-2822.52 933.809-2822.82 934.785-2823.12 935.761-2823.38 936.578-2823.6 937.259L-2829.14 952.89-2834.68 952.89-2840.28 937.259C-2840.5 936.601-2840.77 935.772-2841.08 934.796-2841.39 933.809-2841.72 932.741-2842.07 931.572-2842.42 930.414-2842.78 929.211-2843.14 927.963L-2843.28 927.463-2843.28 927.724C-2843.25 928.916-2843.22 930.108-2843.19 931.288-2843.14 932.469-2843.12 933.57-2843.1 934.603-2843.08 935.636-2843.06 936.521-2843.06 937.259L-2843.06 952.89-2849.74 952.89Z" fill-rule="evenodd"/></g></svg>