<svg width="330" height="330" xmlns="http://www.w3.org/2000/svg" xmlns:xlink="http://www.w3.org/1999/xlink" xml:space="preserve" overflow="hidden"><defs><clipPath id="clip0"><rect x="3228" y="950" width="330" height="330"/></clipPath></defs><g clip-path="url(#clip0)" transform="translate(-3228 -950)"><path d="M3228 1115C3228 1023.87 3301.87 950 3393 950 3484.13 950 3558 1023.87 3558 1115 3558 1206.13 3484.13 1280 3393 1280 3301.87 1280 3228 1206.13 3228 1115Z" fill="#FFFFFF" fill-rule="evenodd" fill-opacity="0.501961"/><path d="M3454 1063.1C3457.58 1063.1 3461.16 1064.46 3463.89 1067.2 3469.36 1072.66 3469.36 1081.52 3463.89 1086.98 3438.62 1112.25 3413.34 1137.53 3388.07 1162.8 3385.34 1165.54 3381.76 1166.9 3378.18 1166.9L3378.18 1166.9 3378.18 1166.9C3374.6 1166.9 3371.02 1165.54 3368.29 1162.8 3352.89 1147.41 3337.5 1132.02 3322.11 1116.63 3316.64 1111.16 3316.64 1102.31 3322.11 1096.84L3322.11 1096.84C3327.57 1091.38 3336.43 1091.38 3341.89 1096.84L3378.18 1133.13 3444.11 1067.2C3446.84 1064.46 3450.42 1063.1 3454 1063.1ZM3393 970.273C3313.07 970.273 3248.27 1035.07 3248.27 1115 3248.27 1194.93 3313.07 1259.73 3393 1259.73 3472.93 1259.73 3537.73 1194.93 3537.73 1115 3537.73 1035.07 3472.93 970.273 3393 970.273ZM3393 950C3484.13 950 3558 1023.87 3558 1115 3558 1206.13 3484.13 1280 3393 1280 3301.87 1280 3228 1206.13 3228 1115 3228 1023.87 3301.87 950 3393 950Z" fill="#FFFFFF" fill-rule="evenodd"/></g></svg>